G04 #@! TF.GenerationSoftware,KiCad,Pcbnew,7.0.1-3b83917a11~172~ubuntu22.04.1*
G04 #@! TF.CreationDate,2023-08-11T16:57:34+02:00*
G04 #@! TF.ProjectId,io_coupling_MCU_enhanced,696f5f63-6f75-4706-9c69-6e675f4d4355,rev?*
G04 #@! TF.SameCoordinates,Original*
G04 #@! TF.FileFunction,Soldermask,Top*
G04 #@! TF.FilePolarity,Negative*
%FSLAX46Y46*%
G04 Gerber Fmt 4.6, Leading zero omitted, Abs format (unit mm)*
G04 Created by KiCad (PCBNEW 7.0.1-3b83917a11~172~ubuntu22.04.1) date 2023-08-11 16:57:34*
%MOMM*%
%LPD*%
G01*
G04 APERTURE LIST*
G04 Aperture macros list*
%AMRoundRect*
0 Rectangle with rounded corners*
0 $1 Rounding radius*
0 $2 $3 $4 $5 $6 $7 $8 $9 X,Y pos of 4 corners*
0 Add a 4 corners polygon primitive as box body*
4,1,4,$2,$3,$4,$5,$6,$7,$8,$9,$2,$3,0*
0 Add four circle primitives for the rounded corners*
1,1,$1+$1,$2,$3*
1,1,$1+$1,$4,$5*
1,1,$1+$1,$6,$7*
1,1,$1+$1,$8,$9*
0 Add four rect primitives between the rounded corners*
20,1,$1+$1,$2,$3,$4,$5,0*
20,1,$1+$1,$4,$5,$6,$7,0*
20,1,$1+$1,$6,$7,$8,$9,0*
20,1,$1+$1,$8,$9,$2,$3,0*%
%AMHorizOval*
0 Thick line with rounded ends*
0 $1 width*
0 $2 $3 position (X,Y) of the first rounded end (center of the circle)*
0 $4 $5 position (X,Y) of the second rounded end (center of the circle)*
0 Add line between two ends*
20,1,$1,$2,$3,$4,$5,0*
0 Add two circle primitives to create the rounded ends*
1,1,$1,$2,$3*
1,1,$1,$4,$5*%
%AMRotRect*
0 Rectangle, with rotation*
0 The origin of the aperture is its center*
0 $1 length*
0 $2 width*
0 $3 Rotation angle, in degrees counterclockwise*
0 Add horizontal line*
21,1,$1,$2,0,0,$3*%
G04 Aperture macros list end*
%ADD10RoundRect,0.262500X-0.262500X-0.837500X0.262500X-0.837500X0.262500X0.837500X-0.262500X0.837500X0*%
%ADD11RoundRect,0.250000X-0.250000X-0.275000X0.250000X-0.275000X0.250000X0.275000X-0.250000X0.275000X0*%
%ADD12C,2.000000*%
%ADD13RoundRect,0.242500X-0.257500X-0.242500X0.257500X-0.242500X0.257500X0.242500X-0.257500X0.242500X0*%
%ADD14C,1.800000*%
%ADD15RoundRect,0.200000X-1.110000X-0.200000X1.110000X-0.200000X1.110000X0.200000X-1.110000X0.200000X0*%
%ADD16RoundRect,0.200000X0.200000X0.275000X-0.200000X0.275000X-0.200000X-0.275000X0.200000X-0.275000X0*%
%ADD17RoundRect,0.200000X-0.200000X-0.275000X0.200000X-0.275000X0.200000X0.275000X-0.200000X0.275000X0*%
%ADD18RoundRect,0.250000X0.475000X-0.250000X0.475000X0.250000X-0.475000X0.250000X-0.475000X-0.250000X0*%
%ADD19RoundRect,0.225000X0.250000X-0.225000X0.250000X0.225000X-0.250000X0.225000X-0.250000X-0.225000X0*%
%ADD20C,1.950000*%
%ADD21RotRect,1.950000X1.950000X188.057000*%
%ADD22RoundRect,0.200000X0.400000X0.200000X-0.400000X0.200000X-0.400000X-0.200000X0.400000X-0.200000X0*%
%ADD23C,1.500000*%
%ADD24RoundRect,0.225000X-0.250000X0.225000X-0.250000X-0.225000X0.250000X-0.225000X0.250000X0.225000X0*%
%ADD25RotRect,1.950000X1.950000X204.171000*%
%ADD26R,0.620000X1.220000*%
%ADD27RoundRect,0.275000X0.428911X0.179680X-0.300293X0.355070X-0.428911X-0.179680X0.300293X-0.355070X0*%
%ADD28RoundRect,0.250000X0.313224X0.233218X-0.172912X0.350145X-0.313224X-0.233218X0.172912X-0.350145X0*%
%ADD29C,0.500000*%
%ADD30HorizOval,0.500000X0.000000X0.000000X0.000000X0.000000X0*%
%ADD31RoundRect,0.060000X-0.615000X0.240000X-0.615000X-0.240000X0.615000X-0.240000X0.615000X0.240000X0*%
%ADD32RoundRect,0.250000X-0.475000X0.250000X-0.475000X-0.250000X0.475000X-0.250000X0.475000X0.250000X0*%
%ADD33RoundRect,0.225000X-0.225000X-0.250000X0.225000X-0.250000X0.225000X0.250000X-0.225000X0.250000X0*%
%ADD34R,0.700000X0.700000*%
%ADD35R,0.700000X1.150000*%
%ADD36R,1.150000X0.700000*%
%ADD37RoundRect,0.075000X-0.075000X-0.275000X0.075000X-0.275000X0.075000X0.275000X-0.075000X0.275000X0*%
%ADD38RoundRect,0.250000X-0.450000X0.262500X-0.450000X-0.262500X0.450000X-0.262500X0.450000X0.262500X0*%
%ADD39R,0.600000X0.700000*%
%ADD40R,1.000000X0.700000*%
%ADD41RoundRect,0.075000X0.275000X-0.075000X0.275000X0.075000X-0.275000X0.075000X-0.275000X-0.075000X0*%
%ADD42RotRect,1.950000X1.950000X171.943000*%
%ADD43RoundRect,0.200000X0.275000X-0.200000X0.275000X0.200000X-0.275000X0.200000X-0.275000X-0.200000X0*%
%ADD44RoundRect,0.250000X0.250000X0.250000X-0.250000X0.250000X-0.250000X-0.250000X0.250000X-0.250000X0*%
%ADD45RoundRect,0.218750X0.218750X0.256250X-0.218750X0.256250X-0.218750X-0.256250X0.218750X-0.256250X0*%
%ADD46RoundRect,0.152500X-0.152500X0.357500X-0.152500X-0.357500X0.152500X-0.357500X0.152500X0.357500X0*%
%ADD47RoundRect,0.190500X-1.764500X1.714500X-1.764500X-1.714500X1.764500X-1.714500X1.764500X1.714500X0*%
%ADD48RoundRect,0.152500X-0.152500X0.482500X-0.152500X-0.482500X0.152500X-0.482500X0.152500X0.482500X0*%
%ADD49RoundRect,0.445000X1.130000X-0.445000X1.130000X0.445000X-1.130000X0.445000X-1.130000X-0.445000X0*%
%ADD50RoundRect,0.250000X-0.250000X-0.475000X0.250000X-0.475000X0.250000X0.475000X-0.250000X0.475000X0*%
%ADD51RoundRect,0.250000X-0.250000X0.250000X-0.250000X-0.250000X0.250000X-0.250000X0.250000X0.250000X0*%
%ADD52HorizOval,1.100000X0.390988X0.084428X-0.390988X-0.084428X0*%
%ADD53C,1.250000*%
%ADD54RoundRect,0.100000X0.534279X0.013064X0.492065X0.208558X-0.534279X-0.013064X-0.492065X-0.208558X0*%
%ADD55RotRect,1.950000X1.950000X155.828000*%
%ADD56RoundRect,0.250000X0.500000X-0.250000X0.500000X0.250000X-0.500000X0.250000X-0.500000X-0.250000X0*%
%ADD57RoundRect,0.200000X0.200000X-0.400000X0.200000X0.400000X-0.200000X0.400000X-0.200000X-0.400000X0*%
%ADD58RoundRect,0.212500X0.237500X-0.212500X0.237500X0.212500X-0.237500X0.212500X-0.237500X-0.212500X0*%
%ADD59RoundRect,0.112500X0.137500X-0.112500X0.137500X0.112500X-0.137500X0.112500X-0.137500X-0.112500X0*%
%ADD60C,0.350000*%
%ADD61C,0.800000*%
G04 APERTURE END LIST*
D10*
X-2125000Y30998800D03*
X-5075000Y30998800D03*
D11*
X-3600000Y29473800D03*
D12*
X-5080000Y-26670000D03*
X-5080000Y-29210000D03*
D13*
X-22465000Y-7200000D03*
X-23935000Y-7200000D03*
D14*
X17780000Y1270000D03*
X17780000Y-1270000D03*
X15240000Y1270000D03*
X15240000Y-1270000D03*
X12700000Y1270000D03*
X12700000Y-1270000D03*
X10160000Y1270000D03*
X10160000Y-1270000D03*
X7620000Y1270000D03*
X7620000Y-1270000D03*
D12*
X-30015518Y25650396D03*
X-31719389Y27534123D03*
X-28131792Y27354266D03*
X-29835662Y29237993D03*
X-26248065Y29058137D03*
X-27951935Y30941863D03*
X-24364338Y30762007D03*
X-26068208Y32645734D03*
X-22480611Y32465877D03*
X-24184482Y34349604D03*
X31719432Y27534204D03*
X30015594Y25650447D03*
X29835675Y29238041D03*
X28131838Y27354284D03*
X27951919Y30941878D03*
X26248081Y29058122D03*
X26068162Y32645716D03*
X24364325Y30761959D03*
X24184406Y34349553D03*
X22480568Y32465796D03*
D15*
X7365000Y20184000D03*
X3485000Y20184000D03*
X7365000Y21454000D03*
X3485000Y21454000D03*
X7365000Y22724000D03*
X3485000Y22724000D03*
X7365000Y23994000D03*
X3485000Y23994000D03*
X7365000Y25264000D03*
X3485000Y25264000D03*
D14*
X10200000Y-7700000D03*
D16*
X19475000Y-4000000D03*
X21125000Y-4000000D03*
D17*
X5299000Y4459000D03*
X3649000Y4459000D03*
D18*
X3048000Y-17973000D03*
X3048000Y-19873000D03*
D19*
X2925000Y28199000D03*
X2925000Y26649000D03*
D17*
X-18675000Y-5400000D03*
X-20325000Y-5400000D03*
D20*
X-8675323Y43449605D03*
D21*
X-3724677Y44150395D03*
D22*
X-21952000Y8590000D03*
X-19952000Y9540000D03*
X-19952000Y7640000D03*
D18*
X5080000Y-17973000D03*
X5080000Y-19873000D03*
D23*
X-9000000Y-28000000D03*
D24*
X-24216000Y-10388000D03*
X-24216000Y-8838000D03*
D20*
X-20280819Y39376347D03*
D25*
X-15719181Y41423653D03*
D24*
X-22311000Y-10388000D03*
X-22311000Y-8838000D03*
D26*
X-3109000Y-17750000D03*
X-2159000Y-17750000D03*
X-1209000Y-17750000D03*
X-1209000Y-20350000D03*
X-2159000Y-20350000D03*
X-3109000Y-20350000D03*
D27*
X-29508018Y9822668D03*
X-30747437Y4669626D03*
D28*
X-32376221Y10512534D03*
X-33615640Y5359492D03*
D29*
X-32558408Y7830779D03*
D30*
X-29641592Y7129221D03*
D23*
X23000000Y0D03*
D31*
X3361000Y-7677000D03*
X3361000Y-9577000D03*
X991000Y-9577000D03*
X991000Y-8627000D03*
X991000Y-7677000D03*
D17*
X-30862000Y2700000D03*
X-32512000Y2700000D03*
D32*
X-3005000Y-14215000D03*
X-3005000Y-12315000D03*
D23*
X0Y34800000D03*
D12*
X5080000Y-26670000D03*
D23*
X9000000Y-28000000D03*
D33*
X2850000Y-13900000D03*
X1300000Y-13900000D03*
D12*
X0Y-26670000D03*
X-2540000Y-29210000D03*
D34*
X-5325000Y24924000D03*
X-4175000Y24924000D03*
X-3025000Y24924000D03*
X-1875000Y24924000D03*
X-4175000Y23774000D03*
X-3025000Y23774000D03*
X-5325000Y22624000D03*
X-4175000Y22624000D03*
X-3025000Y22624000D03*
X-1875000Y22624000D03*
X-4175000Y21474000D03*
X-3025000Y21474000D03*
X400000Y17549000D03*
X-600000Y17549000D03*
X-1600000Y17549000D03*
X-2600000Y17549000D03*
X-3600000Y17549000D03*
X-4600000Y17549000D03*
X-5600000Y17549000D03*
X-6600000Y17549000D03*
X-7600000Y17549000D03*
X-1950000Y20149000D03*
X-3050000Y20149000D03*
X-4150000Y20149000D03*
X-5250000Y20149000D03*
X-6350000Y20149000D03*
X-6350000Y21249000D03*
X-6350000Y22349000D03*
X-6350000Y23449000D03*
X-6350000Y24549000D03*
X-6350000Y25649000D03*
X-850000Y25649000D03*
X-850000Y24549000D03*
X-850000Y23449000D03*
X-850000Y22349000D03*
X-850000Y21249000D03*
X-850000Y20149000D03*
D35*
X-1600000Y18774000D03*
X-2600000Y18774000D03*
X-3600000Y18774000D03*
X-4600000Y18774000D03*
X-5600000Y18774000D03*
D36*
X-7725000Y18699000D03*
X-7725000Y19699000D03*
X-7725000Y20699000D03*
X-7725000Y21699000D03*
X-7725000Y22699000D03*
X-7725000Y23699000D03*
X-7725000Y24699000D03*
X-7725000Y25699000D03*
X-7725000Y26699000D03*
X-7725000Y27699000D03*
D35*
X-5600000Y27624000D03*
X-4600000Y27624000D03*
X-3600000Y27624000D03*
X-2600000Y27624000D03*
X-1600000Y27624000D03*
D36*
X525000Y27699000D03*
X525000Y26699000D03*
X525000Y25699000D03*
X525000Y24699000D03*
X525000Y23699000D03*
X525000Y22699000D03*
X525000Y21699000D03*
X525000Y20699000D03*
X525000Y19699000D03*
X525000Y18699000D03*
D37*
X15950000Y28589000D03*
X16600000Y28589000D03*
X17250000Y28589000D03*
X17250000Y26811000D03*
X16600000Y26811000D03*
X15950000Y26811000D03*
D16*
X2379000Y6364000D03*
X4029000Y6364000D03*
D17*
X-30775000Y800000D03*
X-32425000Y800000D03*
D38*
X-14000Y7356500D03*
X-14000Y9181500D03*
D39*
X-25806000Y-7438000D03*
X-27706000Y-7438000D03*
X-27706000Y-5438000D03*
D40*
X-26006000Y-5438000D03*
D41*
X12559500Y26437500D03*
X12559500Y27087500D03*
X12559500Y27737500D03*
X14337500Y27737500D03*
X14337500Y27087500D03*
X14337500Y26437500D03*
D22*
X-25000000Y6050000D03*
X-23000000Y7000000D03*
X-23000000Y5100000D03*
D20*
X3724677Y44150395D03*
D42*
X8675323Y43449605D03*
D43*
X14211000Y30825000D03*
X14211000Y29175000D03*
D44*
X2104000Y8269000D03*
X4304000Y8269000D03*
D12*
X2540000Y-29210000D03*
D17*
X17725000Y30100000D03*
X16075000Y30100000D03*
D43*
X11048500Y28112500D03*
X11048500Y26462500D03*
D23*
X-25000000Y0D03*
D45*
X1287500Y-11995000D03*
X2862500Y-11995000D03*
D46*
X8395000Y7695000D03*
X9665000Y7695000D03*
X10935000Y7695000D03*
X12205000Y7695000D03*
D47*
X10300000Y9800000D03*
D48*
X9665000Y13160000D03*
X10935000Y13160000D03*
X12205000Y13160000D03*
X8395000Y13160000D03*
D24*
X5300000Y-9275000D03*
X5300000Y-7725000D03*
D12*
X5080000Y-29210000D03*
D49*
X-3100000Y10315000D03*
X-3100000Y5085000D03*
D17*
X2124000Y4459000D03*
X474000Y4459000D03*
D12*
X-2540000Y-26670000D03*
D50*
X-18350000Y-3600000D03*
X-20250000Y-3600000D03*
D51*
X6379000Y10979000D03*
X6379000Y13179000D03*
D17*
X20525000Y27200000D03*
X18875000Y27200000D03*
D52*
X-33450147Y-3540436D03*
D53*
X-30648779Y-3958575D03*
X-29551221Y-9041425D03*
D52*
X-31930451Y-10578229D03*
D54*
X-30374390Y-5229287D03*
X-30237195Y-5864644D03*
X-30100000Y-6500000D03*
X-29962805Y-7135356D03*
X-29825610Y-7770713D03*
D22*
X-21952000Y3256000D03*
X-19952000Y4206000D03*
X-19952000Y2306000D03*
D12*
X2540000Y-26670000D03*
D17*
X-30975000Y-1900000D03*
X-32625000Y-1900000D03*
D55*
X20280801Y39376307D03*
D20*
X15719199Y41423693D03*
D12*
X0Y-29210000D03*
D18*
X1016000Y-17973000D03*
X1016000Y-19873000D03*
D56*
X-3000000Y-7900000D03*
X-3000000Y-10800000D03*
D57*
X3204000Y12444000D03*
X4154000Y10444000D03*
X2254000Y10444000D03*
D32*
X-465000Y-14215000D03*
X-465000Y-12315000D03*
D58*
X-34200000Y1325000D03*
D59*
X-33850000Y425000D03*
X-33850000Y-425000D03*
D58*
X-34200000Y-1325000D03*
D60*
X-7106813Y25976997D03*
D61*
X-800000Y29400000D03*
X-6188000Y28212000D03*
D60*
X-2440000Y31200000D03*
X-2440000Y30600000D03*
X-2440000Y31800000D03*
X-2440000Y30000000D03*
X-4750000Y31800000D03*
X-4750000Y31200000D03*
X-4750000Y30600000D03*
X-4750000Y30000000D03*
D61*
X22400000Y-4000000D03*
D60*
X-2460000Y29350000D03*
D61*
X-30827420Y8503266D03*
X-23300000Y-10388000D03*
X-20700000Y4200000D03*
D60*
X-4500000Y28078800D03*
D61*
X-3600000Y23200000D03*
X2622103Y23477397D03*
X2125000Y28424000D03*
D60*
X-4700000Y26578800D03*
X-3600000Y26578800D03*
X-6200000Y19100000D03*
D61*
X-29300000Y-4900000D03*
D60*
X-2450000Y26578800D03*
D61*
X-20800000Y9649500D03*
D60*
X-2450000Y28678800D03*
X-2700000Y27178800D03*
D61*
X-22200000Y7000000D03*
D60*
X-2700000Y28078800D03*
X-4750000Y29300000D03*
D61*
X-600000Y-17750000D03*
X-18350000Y-4753000D03*
X-1505853Y18123565D03*
X2100000Y-8600000D03*
D60*
X-4750000Y28678800D03*
X-4500000Y27178800D03*
D61*
X-1700000Y-14215000D03*
D60*
X-4150000Y26580000D03*
X-3100000Y26578800D03*
D61*
X3300000Y1800000D03*
X5500000Y9600000D03*
X-24500Y10397655D03*
X-2872523Y-9827477D03*
X-25800000Y-6488498D03*
X-1800000Y-6500000D03*
X4100000Y18244365D03*
X-32500000Y-500000D03*
X4100000Y26400000D03*
X-32700000Y4300000D03*
X-10000000Y25100000D03*
X-31700000Y-6400000D03*
X-24800000Y-4400000D03*
D60*
X-8200000Y27423502D03*
X-4875498Y18273502D03*
X-8200000Y26423502D03*
X-5000000Y20400000D03*
X252448Y22423502D03*
X-3782130Y19424926D03*
X200000Y21423502D03*
X-4100000Y20500000D03*
X-1900000Y20500000D03*
X-2316735Y19424874D03*
X200000Y20423502D03*
X-3100000Y20500000D03*
X13437500Y27087500D03*
X14650000Y23750000D03*
X-6100000Y20400000D03*
X-600000Y21300000D03*
X-600000Y22500000D03*
X-600000Y23200000D03*
X200000Y19423502D03*
X1000000Y18500000D03*
D61*
X1800000Y17500000D03*
D60*
X-512251Y19787749D03*
M02*
