G04 #@! TF.GenerationSoftware,KiCad,Pcbnew,7.0.1-3b83917a11~172~ubuntu22.04.1*
G04 #@! TF.CreationDate,2023-08-11T16:57:34+02:00*
G04 #@! TF.ProjectId,io_coupling_MCU_enhanced,696f5f63-6f75-4706-9c69-6e675f4d4355,rev?*
G04 #@! TF.SameCoordinates,Original*
G04 #@! TF.FileFunction,Copper,L2,Inr*
G04 #@! TF.FilePolarity,Positive*
%FSLAX46Y46*%
G04 Gerber Fmt 4.6, Leading zero omitted, Abs format (unit mm)*
G04 Created by KiCad (PCBNEW 7.0.1-3b83917a11~172~ubuntu22.04.1) date 2023-08-11 16:57:34*
%MOMM*%
%LPD*%
G01*
G04 APERTURE LIST*
G04 Aperture macros list*
%AMHorizOval*
0 Thick line with rounded ends*
0 $1 width*
0 $2 $3 position (X,Y) of the first rounded end (center of the circle)*
0 $4 $5 position (X,Y) of the second rounded end (center of the circle)*
0 Add line between two ends*
20,1,$1,$2,$3,$4,$5,0*
0 Add two circle primitives to create the rounded ends*
1,1,$1,$2,$3*
1,1,$1,$4,$5*%
%AMRotRect*
0 Rectangle, with rotation*
0 The origin of the aperture is its center*
0 $1 length*
0 $2 width*
0 $3 Rotation angle, in degrees counterclockwise*
0 Add horizontal line*
21,1,$1,$2,0,0,$3*%
G04 Aperture macros list end*
G04 #@! TA.AperFunction,ComponentPad*
%ADD10C,2.000000*%
G04 #@! TD*
G04 #@! TA.AperFunction,ComponentPad*
%ADD11C,1.800000*%
G04 #@! TD*
G04 #@! TA.AperFunction,ComponentPad*
%ADD12C,1.950000*%
G04 #@! TD*
G04 #@! TA.AperFunction,ComponentPad*
%ADD13RotRect,1.950000X1.950000X188.057000*%
G04 #@! TD*
G04 #@! TA.AperFunction,ComponentPad*
%ADD14RotRect,1.950000X1.950000X204.171000*%
G04 #@! TD*
G04 #@! TA.AperFunction,ComponentPad*
%ADD15RotRect,1.950000X1.950000X171.943000*%
G04 #@! TD*
G04 #@! TA.AperFunction,ComponentPad*
%ADD16HorizOval,1.100000X0.390988X0.084428X-0.390988X-0.084428X0*%
G04 #@! TD*
G04 #@! TA.AperFunction,ComponentPad*
%ADD17C,1.250000*%
G04 #@! TD*
G04 #@! TA.AperFunction,ComponentPad*
%ADD18RotRect,1.950000X1.950000X155.828000*%
G04 #@! TD*
G04 #@! TA.AperFunction,ViaPad*
%ADD19C,0.350000*%
G04 #@! TD*
G04 #@! TA.AperFunction,ViaPad*
%ADD20C,0.800000*%
G04 #@! TD*
G04 APERTURE END LIST*
D10*
X-5080000Y-26670000D03*
X-5080000Y-29210000D03*
D11*
X17780000Y1270000D03*
X17780000Y-1270000D03*
X15240000Y1270000D03*
X15240000Y-1270000D03*
X12700000Y1270000D03*
X12700000Y-1270000D03*
X10160000Y1270000D03*
X10160000Y-1270000D03*
X7620000Y1270000D03*
X7620000Y-1270000D03*
D10*
X-30015518Y25650396D03*
X-31719389Y27534123D03*
X-28131792Y27354266D03*
X-29835662Y29237993D03*
X-26248065Y29058137D03*
X-27951935Y30941863D03*
X-24364338Y30762007D03*
X-26068208Y32645734D03*
X-22480611Y32465877D03*
X-24184482Y34349604D03*
X31719432Y27534204D03*
X30015594Y25650447D03*
X29835675Y29238041D03*
X28131838Y27354284D03*
X27951919Y30941878D03*
X26248081Y29058122D03*
X26068162Y32645716D03*
X24364325Y30761959D03*
X24184406Y34349553D03*
X22480568Y32465796D03*
D11*
X10200000Y-7700000D03*
D12*
X-8675323Y43449605D03*
D13*
X-3724677Y44150395D03*
D12*
X-20280819Y39376347D03*
D14*
X-15719181Y41423653D03*
D10*
X5080000Y-26670000D03*
X0Y-26670000D03*
X-2540000Y-29210000D03*
D12*
X3724677Y44150395D03*
D15*
X8675323Y43449605D03*
D10*
X2540000Y-29210000D03*
X5080000Y-29210000D03*
X-2540000Y-26670000D03*
D16*
X-33450147Y-3540436D03*
D17*
X-30648779Y-3958575D03*
X-29551221Y-9041425D03*
D16*
X-31930451Y-10578229D03*
D10*
X2540000Y-26670000D03*
D18*
X20280801Y39376307D03*
D12*
X15719199Y41423693D03*
D10*
X0Y-29210000D03*
D19*
X-7106813Y25976997D03*
D20*
X-800000Y29400000D03*
X-6188000Y28212000D03*
D19*
X-2440000Y31200000D03*
X-2440000Y30600000D03*
X-2440000Y31800000D03*
X-2440000Y30000000D03*
X-4750000Y31800000D03*
X-4750000Y31200000D03*
X-4750000Y30600000D03*
X-4750000Y30000000D03*
D20*
X22400000Y-4000000D03*
D19*
X-2460000Y29350000D03*
D20*
X-30827420Y8503266D03*
X-23300000Y-10388000D03*
X-20700000Y4200000D03*
D19*
X-4500000Y28078800D03*
D20*
X-3600000Y23200000D03*
X2622103Y23477397D03*
X2125000Y28424000D03*
D19*
X-4700000Y26578800D03*
X-3600000Y26578800D03*
X-6200000Y19100000D03*
D20*
X-29300000Y-4900000D03*
D19*
X-2450000Y26578800D03*
D20*
X-20800000Y9649500D03*
D19*
X-2450000Y28678800D03*
X-2700000Y27178800D03*
D20*
X-22200000Y7000000D03*
D19*
X-2700000Y28078800D03*
X-4750000Y29300000D03*
D20*
X-600000Y-17750000D03*
X-18350000Y-4753000D03*
X-1505853Y18123565D03*
X2100000Y-8600000D03*
D19*
X-4750000Y28678800D03*
X-4500000Y27178800D03*
D20*
X-1700000Y-14215000D03*
D19*
X-4150000Y26580000D03*
X-3100000Y26578800D03*
D20*
X3300000Y1800000D03*
X5500000Y9600000D03*
X-24500Y10397655D03*
X-2872523Y-9827477D03*
X-25800000Y-6488498D03*
X-1800000Y-6500000D03*
X4100000Y18244365D03*
X-32500000Y-500000D03*
X4100000Y26400000D03*
X-32700000Y4300000D03*
X-10000000Y25100000D03*
X-31700000Y-6400000D03*
X-24800000Y-4400000D03*
D19*
X-8200000Y27423502D03*
X-4875498Y18273502D03*
X-8200000Y26423502D03*
X-5000000Y20400000D03*
X252448Y22423502D03*
X-3782130Y19424926D03*
X200000Y21423502D03*
X-4100000Y20500000D03*
X-1900000Y20500000D03*
X-2316735Y19424874D03*
X200000Y20423502D03*
X-3100000Y20500000D03*
X13437500Y27087500D03*
X14650000Y23750000D03*
X-6100000Y20400000D03*
X-600000Y21300000D03*
X-600000Y22500000D03*
X-600000Y23200000D03*
X200000Y19423502D03*
X1000000Y18500000D03*
D20*
X1800000Y17500000D03*
D19*
X-512251Y19787749D03*
G04 #@! TA.AperFunction,Conductor*
G36*
X369979Y47291516D02*
G01*
X1002269Y47282259D01*
X1004024Y47282221D01*
X1740184Y47261019D01*
X1742057Y47260950D01*
X2373685Y47233196D01*
X2375379Y47233110D01*
X3110621Y47190723D01*
X3112551Y47190597D01*
X3743005Y47144375D01*
X3744636Y47144245D01*
X4478631Y47080681D01*
X4480616Y47080493D01*
X5109161Y47015867D01*
X5110728Y47015695D01*
X5842868Y46930995D01*
X5844906Y46930743D01*
X6470867Y46847801D01*
X6472370Y46847592D01*
X7202244Y46741780D01*
X7204332Y46741459D01*
X7827036Y46640323D01*
X7828473Y46640081D01*
X8555583Y46513198D01*
X8557720Y46512806D01*
X9176479Y46393625D01*
X9177851Y46393353D01*
X9901818Y46245421D01*
X9904000Y46244954D01*
X10518073Y46107922D01*
X10519378Y46107624D01*
X11239650Y45938709D01*
X11241875Y45938165D01*
X11850938Y45783405D01*
X11852177Y45783083D01*
X12567977Y45593318D01*
X12570243Y45592695D01*
X13173513Y45420459D01*
X13174685Y45420118D01*
X13885968Y45209455D01*
X13888271Y45208748D01*
X14484731Y45019409D01*
X14485836Y45019053D01*
X15192145Y44787544D01*
X15194484Y44786751D01*
X15783822Y44580498D01*
X15784859Y44580130D01*
X16485528Y44327908D01*
X16487899Y44327027D01*
X17069294Y44104246D01*
X17070265Y44103870D01*
X17765124Y43830897D01*
X17767523Y43829925D01*
X18340311Y43590988D01*
X18341216Y43590606D01*
X19029711Y43296980D01*
X19032135Y43295916D01*
X19595460Y43041321D01*
X19596299Y43040938D01*
X20278345Y42726557D01*
X20280792Y42725396D01*
X20834008Y42455600D01*
X20834782Y42455219D01*
X21509861Y42120156D01*
X21512326Y42118899D01*
X22054522Y41834539D01*
X22055232Y41834163D01*
X22723319Y41478241D01*
X22725798Y41476884D01*
X23256140Y41178631D01*
X23256788Y41178264D01*
X23917582Y40801412D01*
X23920072Y40799954D01*
X24437713Y40488558D01*
X24438298Y40488203D01*
X25091816Y40090140D01*
X25094313Y40088578D01*
X25597695Y39765326D01*
X25598221Y39764987D01*
X26244904Y39345093D01*
X26247404Y39343426D01*
X26735516Y39009405D01*
X26735982Y39009085D01*
X27375868Y38566908D01*
X27378367Y38565135D01*
X27849837Y38221816D01*
X27850245Y38221517D01*
X28483743Y37756246D01*
X28486238Y37754365D01*
X28939214Y37403775D01*
X28939566Y37403501D01*
X29567668Y36913741D01*
X29570154Y36911752D01*
X30001690Y36557080D01*
X30001988Y36556834D01*
X30626752Y36040078D01*
X30629224Y36037978D01*
X31035519Y35683626D01*
X31035765Y35683411D01*
X31659972Y35136098D01*
X31662426Y35133888D01*
X32037821Y34786625D01*
X32038018Y34786442D01*
X32666547Y34202488D01*
X32668978Y34200167D01*
X33002370Y33873140D01*
X33002519Y33872994D01*
X33645660Y33240003D01*
X33648065Y33237569D01*
X33915976Y32958922D01*
X33916079Y32958815D01*
X34595810Y32250145D01*
X34597560Y32248283D01*
X34599652Y32246010D01*
X34600276Y32245326D01*
X34733476Y32098413D01*
X34733479Y32098412D01*
X35513850Y31236458D01*
X35516208Y31233777D01*
X35946892Y30729623D01*
X35955914Y30717670D01*
X36045973Y30582031D01*
X36059407Y30555257D01*
X36112694Y30406495D01*
X36119315Y30377280D01*
X36135372Y30220082D01*
X36134794Y30190133D01*
X36112686Y30033672D01*
X36104944Y30004736D01*
X36051757Y29872544D01*
X36045962Y29858142D01*
X36031505Y29831905D01*
X35937084Y29700951D01*
X35937080Y29700946D01*
X35927588Y29689333D01*
X33348657Y26897538D01*
X33290327Y26862083D01*
X33222069Y26862871D01*
X33164571Y26899664D01*
X33135258Y26961312D01*
X33143013Y27029132D01*
X33158537Y27066610D01*
X33177217Y27144417D01*
X33213967Y27297493D01*
X33232597Y27534204D01*
X33213967Y27770915D01*
X33158537Y28001798D01*
X33067672Y28221167D01*
X32943608Y28423620D01*
X32789401Y28604173D01*
X32608848Y28758380D01*
X32406395Y28882444D01*
X32187026Y28973309D01*
X31956143Y29028739D01*
X31719432Y29047369D01*
X31482721Y29028739D01*
X31482713Y29028737D01*
X31476167Y29028222D01*
X31423520Y29035504D01*
X31378756Y29064159D01*
X31350102Y29108922D01*
X31342820Y29161563D01*
X31348840Y29238041D01*
X31330210Y29474752D01*
X31274780Y29705635D01*
X31183915Y29925004D01*
X31059851Y30127457D01*
X30905644Y30308010D01*
X30725091Y30462217D01*
X30522638Y30586281D01*
X30303269Y30677146D01*
X30072386Y30732576D01*
X29835675Y30751206D01*
X29598964Y30732576D01*
X29598961Y30732575D01*
X29592412Y30732060D01*
X29539765Y30739342D01*
X29495002Y30767997D01*
X29466347Y30812759D01*
X29459065Y30865407D01*
X29465084Y30941878D01*
X29446454Y31178589D01*
X29391024Y31409472D01*
X29300159Y31628841D01*
X29176095Y31831294D01*
X29021888Y32011847D01*
X28841335Y32166054D01*
X28638882Y32290118D01*
X28419513Y32380983D01*
X28188630Y32436413D01*
X27951919Y32455043D01*
X27715208Y32436413D01*
X27715200Y32436411D01*
X27708654Y32435896D01*
X27656007Y32443178D01*
X27611244Y32471833D01*
X27582589Y32516596D01*
X27575307Y32569237D01*
X27581327Y32645716D01*
X27562697Y32882427D01*
X27507267Y33113310D01*
X27416402Y33332679D01*
X27292338Y33535132D01*
X27138131Y33715685D01*
X26957578Y33869892D01*
X26755125Y33993956D01*
X26535756Y34084821D01*
X26304873Y34140251D01*
X26068162Y34158881D01*
X25831451Y34140251D01*
X25831448Y34140250D01*
X25824899Y34139735D01*
X25772252Y34147017D01*
X25727489Y34175672D01*
X25698834Y34220434D01*
X25691552Y34273082D01*
X25691554Y34273103D01*
X25697571Y34349553D01*
X25678941Y34586264D01*
X25623511Y34817147D01*
X25532646Y35036516D01*
X25408582Y35238969D01*
X25254375Y35419522D01*
X25073822Y35573729D01*
X24871369Y35697793D01*
X24652000Y35788658D01*
X24421117Y35844088D01*
X24184406Y35862718D01*
X23947695Y35844088D01*
X23716812Y35788658D01*
X23497443Y35697793D01*
X23294990Y35573729D01*
X23114437Y35419522D01*
X22960230Y35238969D01*
X22836166Y35036516D01*
X22835707Y35035407D01*
X22745300Y34817146D01*
X22689883Y34586316D01*
X22689871Y34586264D01*
X22671241Y34349553D01*
X22689137Y34122172D01*
X22690387Y34106288D01*
X22683105Y34053640D01*
X22654450Y34008877D01*
X22609687Y33980223D01*
X22557045Y33972941D01*
X22480568Y33978961D01*
X22243857Y33960331D01*
X22012974Y33904901D01*
X21793605Y33814036D01*
X21591152Y33689972D01*
X21410599Y33535765D01*
X21256392Y33355212D01*
X21132328Y33152759D01*
X21086895Y33043074D01*
X21041462Y32933389D01*
X20986033Y32702508D01*
X20967403Y32465796D01*
X20986033Y32229083D01*
X21041462Y31998202D01*
X21104480Y31846065D01*
X21132294Y31778914D01*
X21132329Y31778831D01*
X21256391Y31576381D01*
X21410599Y31395827D01*
X21591153Y31241619D01*
X21793603Y31117557D01*
X22012974Y31026690D01*
X22243855Y30971261D01*
X22480568Y30952631D01*
X22717279Y30971261D01*
X22717280Y30971261D01*
X22723832Y30971777D01*
X22776479Y30964495D01*
X22821242Y30935840D01*
X22849897Y30891078D01*
X22857179Y30838430D01*
X22851160Y30761959D01*
X22869790Y30525246D01*
X22925219Y30294365D01*
X22981920Y30157477D01*
X23005279Y30101083D01*
X23016086Y30074994D01*
X23140148Y29872544D01*
X23294356Y29691990D01*
X23474910Y29537782D01*
X23677360Y29413720D01*
X23896731Y29322853D01*
X24127612Y29267424D01*
X24364325Y29248794D01*
X24607589Y29267939D01*
X24660236Y29260657D01*
X24704998Y29232002D01*
X24733653Y29187239D01*
X24740934Y29134594D01*
X24735391Y29064159D01*
X24734916Y29058122D01*
X24753546Y28821409D01*
X24808975Y28590528D01*
X24899842Y28371157D01*
X25023904Y28168707D01*
X25178112Y27988153D01*
X25358666Y27833945D01*
X25561116Y27709883D01*
X25561118Y27709882D01*
X25593243Y27696575D01*
X25780487Y27619016D01*
X26011368Y27563587D01*
X26248081Y27544957D01*
X26484792Y27563587D01*
X26484793Y27563587D01*
X26491345Y27564103D01*
X26543992Y27556821D01*
X26588755Y27528166D01*
X26617410Y27483404D01*
X26624692Y27430756D01*
X26618673Y27354284D01*
X26637303Y27117571D01*
X26692732Y26886690D01*
X26783599Y26667319D01*
X26907661Y26464869D01*
X27061869Y26284315D01*
X27242423Y26130107D01*
X27422597Y26019696D01*
X27444875Y26006044D01*
X27477000Y25992737D01*
X27664244Y25915178D01*
X27895125Y25859749D01*
X28131838Y25841119D01*
X28375102Y25860264D01*
X28427749Y25852982D01*
X28472511Y25824327D01*
X28501166Y25779564D01*
X28508447Y25726919D01*
X28506030Y25696201D01*
X28502429Y25650447D01*
X28521059Y25413734D01*
X28576488Y25182853D01*
X28667355Y24963482D01*
X28791417Y24761032D01*
X28945625Y24580478D01*
X29126179Y24426270D01*
X29134562Y24421133D01*
X29328631Y24302207D01*
X29360756Y24288900D01*
X29548000Y24211341D01*
X29778881Y24155912D01*
X30015594Y24137282D01*
X30252306Y24155912D01*
X30492677Y24213620D01*
X30493299Y24211027D01*
X30534429Y24217334D01*
X30590335Y24198257D01*
X30631070Y24155479D01*
X30647392Y24098707D01*
X30635594Y24040826D01*
X30598356Y23994971D01*
X30534577Y23946664D01*
X30460314Y23890417D01*
X30448171Y23882299D01*
X30155968Y23710950D01*
X30142955Y23704316D01*
X29832625Y23568511D01*
X29818923Y23563454D01*
X29494780Y23465083D01*
X29480580Y23461672D01*
X29147118Y23402098D01*
X29132622Y23400381D01*
X28799275Y23380714D01*
X28791985Y23380500D01*
X17680500Y23380502D01*
X17680000Y23380502D01*
X17450278Y23380502D01*
X16992323Y23343532D01*
X16765575Y23306682D01*
X16538833Y23269833D01*
X16538830Y23269832D01*
X16538828Y23269832D01*
X16255507Y23200000D01*
X16092725Y23159878D01*
X15719353Y23035227D01*
X15656933Y23014388D01*
X15234254Y22834301D01*
X14827435Y22620787D01*
X14439117Y22375229D01*
X14318605Y22284670D01*
X14071820Y22099223D01*
X13727914Y21794550D01*
X13409648Y21463198D01*
X13331630Y21367643D01*
X13119076Y21107312D01*
X13021977Y20966639D01*
X12858080Y20729195D01*
X12628360Y20331309D01*
X12529879Y20123763D01*
X12431399Y19916220D01*
X12285161Y19530625D01*
X12268476Y19486629D01*
X12140651Y19045328D01*
X12048750Y18595168D01*
X11993370Y18139066D01*
X11974870Y17680000D01*
X11993370Y17220933D01*
X12048750Y16764831D01*
X12140651Y16314671D01*
X12268476Y15873370D01*
X12431398Y15443782D01*
X12628360Y15028690D01*
X12858080Y14630804D01*
X13084075Y14303394D01*
X13119075Y14252689D01*
X13119077Y14252687D01*
X13409648Y13896801D01*
X13727914Y13565449D01*
X14071820Y13260776D01*
X14439112Y12984774D01*
X14439117Y12984771D01*
X14827436Y12739213D01*
X14964192Y12667438D01*
X15234264Y12525693D01*
X15656933Y12345611D01*
X16092725Y12200121D01*
X16538833Y12090166D01*
X16992318Y12016468D01*
X17373952Y11985659D01*
X17450278Y11979498D01*
X17679901Y11979498D01*
X17680000Y11979498D01*
X17680500Y11979498D01*
X23005422Y11979498D01*
X23012375Y11979303D01*
X23328941Y11961525D01*
X23342759Y11959968D01*
X23660695Y11905948D01*
X23674252Y11902854D01*
X23984148Y11813574D01*
X23997272Y11808981D01*
X24295215Y11685570D01*
X24307744Y11679537D01*
X24590006Y11523536D01*
X24601780Y11516137D01*
X24864783Y11329526D01*
X24875655Y11320857D01*
X25116127Y11105958D01*
X25125960Y11096125D01*
X25340859Y10855653D01*
X25349528Y10844781D01*
X25536139Y10581778D01*
X25543538Y10570004D01*
X25699539Y10287742D01*
X25705572Y10275213D01*
X25828983Y9977270D01*
X25833576Y9964146D01*
X25922856Y9654250D01*
X25925950Y9640693D01*
X25979970Y9322757D01*
X25981527Y9308939D01*
X25999305Y8992373D01*
X25999500Y8985420D01*
X25999500Y-8985422D01*
X25999305Y-8992375D01*
X25981527Y-9308941D01*
X25979970Y-9322759D01*
X25925950Y-9640695D01*
X25922856Y-9654252D01*
X25833576Y-9964148D01*
X25828983Y-9977272D01*
X25705572Y-10275215D01*
X25699539Y-10287744D01*
X25543538Y-10570006D01*
X25536139Y-10581780D01*
X25349528Y-10844783D01*
X25340859Y-10855655D01*
X25125960Y-11096127D01*
X25116127Y-11105960D01*
X24875655Y-11320859D01*
X24864783Y-11329528D01*
X24601780Y-11516139D01*
X24590006Y-11523538D01*
X24307744Y-11679539D01*
X24295215Y-11685572D01*
X23997272Y-11808983D01*
X23984148Y-11813576D01*
X23674252Y-11902856D01*
X23660695Y-11905950D01*
X23342759Y-11959970D01*
X23328941Y-11961527D01*
X23012375Y-11979305D01*
X23005422Y-11979500D01*
X17680500Y-11979500D01*
X17680000Y-11979500D01*
X17456027Y-11979500D01*
X17009461Y-12014646D01*
X17009456Y-12014646D01*
X17009453Y-12014647D01*
X16567034Y-12084719D01*
X16131458Y-12189290D01*
X15705437Y-12327714D01*
X15291591Y-12499134D01*
X14892460Y-12702501D01*
X14510526Y-12936551D01*
X14148135Y-13199844D01*
X13807507Y-13490768D01*
X13490768Y-13807507D01*
X13199844Y-14148135D01*
X12936551Y-14510526D01*
X12702501Y-14892460D01*
X12499134Y-15291591D01*
X12327714Y-15705437D01*
X12189290Y-16131458D01*
X12084719Y-16567034D01*
X12014647Y-17009453D01*
X11979500Y-17456030D01*
X11979500Y-28005422D01*
X11979305Y-28012375D01*
X11961527Y-28328941D01*
X11959970Y-28342759D01*
X11905950Y-28660695D01*
X11902856Y-28674252D01*
X11813576Y-28984148D01*
X11808983Y-28997272D01*
X11685572Y-29295215D01*
X11679539Y-29307744D01*
X11523538Y-29590006D01*
X11516139Y-29601780D01*
X11329528Y-29864783D01*
X11320859Y-29875655D01*
X11105960Y-30116127D01*
X11096127Y-30125960D01*
X10855655Y-30340859D01*
X10844783Y-30349528D01*
X10581780Y-30536139D01*
X10570006Y-30543538D01*
X10287744Y-30699539D01*
X10275215Y-30705572D01*
X9977272Y-30828983D01*
X9964148Y-30833576D01*
X9654252Y-30922856D01*
X9640695Y-30925950D01*
X9322759Y-30979970D01*
X9308941Y-30981527D01*
X8992375Y-30999305D01*
X8985422Y-30999500D01*
X-8985422Y-30999500D01*
X-8992375Y-30999305D01*
X-9308941Y-30981527D01*
X-9322759Y-30979970D01*
X-9640695Y-30925950D01*
X-9654252Y-30922856D01*
X-9964148Y-30833576D01*
X-9977272Y-30828983D01*
X-10275215Y-30705572D01*
X-10287744Y-30699539D01*
X-10570006Y-30543538D01*
X-10581780Y-30536139D01*
X-10844783Y-30349528D01*
X-10855655Y-30340859D01*
X-11096127Y-30125960D01*
X-11105960Y-30116127D01*
X-11320859Y-29875655D01*
X-11329528Y-29864783D01*
X-11516139Y-29601780D01*
X-11523538Y-29590006D01*
X-11679539Y-29307744D01*
X-11685572Y-29295215D01*
X-11808983Y-28997272D01*
X-11813576Y-28984148D01*
X-11902856Y-28674252D01*
X-11905950Y-28660695D01*
X-11959970Y-28342759D01*
X-11961527Y-28328941D01*
X-11979305Y-28012375D01*
X-11979500Y-28005422D01*
X-11979500Y-28000000D01*
X-10355659Y-28000000D01*
X-10335063Y-28235408D01*
X-10273903Y-28463663D01*
X-10174035Y-28677829D01*
X-10038495Y-28871401D01*
X-9871401Y-29038495D01*
X-9677829Y-29174035D01*
X-9463663Y-29273903D01*
X-9235408Y-29335063D01*
X-9176593Y-29340208D01*
X-9058968Y-29350500D01*
X-9058966Y-29350500D01*
X-8941034Y-29350500D01*
X-8941032Y-29350500D01*
X-8764592Y-29335063D01*
X-8536337Y-29273903D01*
X-8399298Y-29210000D01*
X-4053165Y-29210000D01*
X-4034535Y-29446711D01*
X-3979105Y-29677594D01*
X-3888240Y-29896963D01*
X-3764176Y-30099416D01*
X-3609969Y-30279969D01*
X-3429416Y-30434176D01*
X-3226963Y-30558240D01*
X-3007594Y-30649105D01*
X-2776711Y-30704535D01*
X-2540000Y-30723165D01*
X-2303289Y-30704535D01*
X-2072406Y-30649105D01*
X-1853037Y-30558240D01*
X-1650584Y-30434176D01*
X-1470031Y-30279969D01*
X-1364289Y-30156161D01*
X-1321914Y-30124083D01*
X-1270000Y-30112693D01*
X-1218086Y-30124083D01*
X-1175710Y-30156161D01*
X-1069969Y-30279969D01*
X-889416Y-30434176D01*
X-686963Y-30558240D01*
X-467594Y-30649105D01*
X-236711Y-30704535D01*
X0Y-30723165D01*
X236711Y-30704535D01*
X467594Y-30649105D01*
X686963Y-30558240D01*
X889416Y-30434176D01*
X1069969Y-30279969D01*
X1175710Y-30156161D01*
X1218086Y-30124083D01*
X1270000Y-30112693D01*
X1321914Y-30124083D01*
X1364289Y-30156161D01*
X1470031Y-30279969D01*
X1650584Y-30434176D01*
X1853037Y-30558240D01*
X2072406Y-30649105D01*
X2303289Y-30704535D01*
X2540000Y-30723165D01*
X2776711Y-30704535D01*
X3007594Y-30649105D01*
X3226963Y-30558240D01*
X3429416Y-30434176D01*
X3609969Y-30279969D01*
X3715710Y-30156161D01*
X3758086Y-30124083D01*
X3810000Y-30112693D01*
X3861914Y-30124083D01*
X3904289Y-30156161D01*
X4010031Y-30279969D01*
X4190584Y-30434176D01*
X4393037Y-30558240D01*
X4612406Y-30649105D01*
X4843289Y-30704535D01*
X5080000Y-30723165D01*
X5316711Y-30704535D01*
X5547594Y-30649105D01*
X5766963Y-30558240D01*
X5969416Y-30434176D01*
X6149969Y-30279969D01*
X6304176Y-30099416D01*
X6428240Y-29896963D01*
X6519105Y-29677594D01*
X6574535Y-29446711D01*
X6593165Y-29210000D01*
X6574535Y-28973289D01*
X6519105Y-28742406D01*
X6428240Y-28523037D01*
X6304176Y-28320584D01*
X6149969Y-28140031D01*
X6149967Y-28140029D01*
X6149966Y-28140028D01*
X6026162Y-28034290D01*
X6000204Y-28000000D01*
X7644340Y-28000000D01*
X7664936Y-28235407D01*
X7693701Y-28342759D01*
X7726097Y-28463663D01*
X7825965Y-28677829D01*
X7961505Y-28871401D01*
X8128599Y-29038495D01*
X8322171Y-29174035D01*
X8536337Y-29273903D01*
X8764592Y-29335063D01*
X8941032Y-29350500D01*
X8941034Y-29350500D01*
X9058966Y-29350500D01*
X9058968Y-29350500D01*
X9176593Y-29340208D01*
X9235408Y-29335063D01*
X9463663Y-29273903D01*
X9677829Y-29174035D01*
X9871401Y-29038495D01*
X10038495Y-28871401D01*
X10174035Y-28677830D01*
X10273903Y-28463663D01*
X10335063Y-28235408D01*
X10355659Y-28000000D01*
X10335063Y-27764592D01*
X10273903Y-27536337D01*
X10174035Y-27322171D01*
X10038495Y-27128599D01*
X9871401Y-26961505D01*
X9677829Y-26825965D01*
X9463663Y-26726097D01*
X9463662Y-26726096D01*
X9235407Y-26664936D01*
X9058968Y-26649500D01*
X9058966Y-26649500D01*
X8941034Y-26649500D01*
X8941032Y-26649500D01*
X8764592Y-26664936D01*
X8536336Y-26726097D01*
X8322170Y-26825965D01*
X8128598Y-26961505D01*
X7961508Y-27128595D01*
X7961505Y-27128598D01*
X7961505Y-27128599D01*
X7955208Y-27137593D01*
X7825964Y-27322172D01*
X7726097Y-27536337D01*
X7664936Y-27764592D01*
X7644340Y-28000000D01*
X6000204Y-28000000D01*
X5994083Y-27991914D01*
X5982693Y-27940000D01*
X5994083Y-27888086D01*
X6026162Y-27845710D01*
X6121139Y-27764592D01*
X6149969Y-27739969D01*
X6304176Y-27559416D01*
X6428240Y-27356963D01*
X6519105Y-27137594D01*
X6574535Y-26906711D01*
X6593165Y-26670000D01*
X6574535Y-26433289D01*
X6519105Y-26202406D01*
X6428240Y-25983037D01*
X6304176Y-25780584D01*
X6149969Y-25600031D01*
X5969416Y-25445824D01*
X5766963Y-25321760D01*
X5657278Y-25276327D01*
X5547593Y-25230894D01*
X5316712Y-25175465D01*
X5080000Y-25156835D01*
X4843287Y-25175465D01*
X4612406Y-25230894D01*
X4393035Y-25321761D01*
X4190585Y-25445823D01*
X4010031Y-25600031D01*
X3904290Y-25723838D01*
X3861914Y-25755916D01*
X3810000Y-25767306D01*
X3758086Y-25755916D01*
X3715710Y-25723838D01*
X3609969Y-25600031D01*
X3429416Y-25445824D01*
X3226963Y-25321760D01*
X3117278Y-25276327D01*
X3007593Y-25230894D01*
X2776712Y-25175465D01*
X2540000Y-25156835D01*
X2303287Y-25175465D01*
X2072406Y-25230894D01*
X1853035Y-25321761D01*
X1650585Y-25445823D01*
X1470031Y-25600031D01*
X1364290Y-25723838D01*
X1321914Y-25755916D01*
X1270000Y-25767306D01*
X1218086Y-25755916D01*
X1175710Y-25723838D01*
X1069969Y-25600031D01*
X889416Y-25445824D01*
X686963Y-25321760D01*
X577278Y-25276327D01*
X467593Y-25230894D01*
X236712Y-25175465D01*
X0Y-25156835D01*
X-236712Y-25175465D01*
X-467593Y-25230894D01*
X-577278Y-25276327D01*
X-686963Y-25321760D01*
X-889416Y-25445824D01*
X-1069969Y-25600031D01*
X-1175710Y-25723838D01*
X-1218086Y-25755916D01*
X-1270000Y-25767306D01*
X-1321914Y-25755916D01*
X-1364290Y-25723838D01*
X-1470031Y-25600031D01*
X-1650585Y-25445823D01*
X-1853035Y-25321761D01*
X-2072406Y-25230894D01*
X-2303287Y-25175465D01*
X-2540000Y-25156835D01*
X-2776712Y-25175465D01*
X-3007593Y-25230894D01*
X-3117278Y-25276327D01*
X-3226963Y-25321760D01*
X-3429416Y-25445824D01*
X-3609969Y-25600031D01*
X-3764176Y-25780584D01*
X-3888240Y-25983037D01*
X-3979105Y-26202406D01*
X-4034535Y-26433289D01*
X-4053165Y-26670000D01*
X-4034535Y-26906711D01*
X-3979105Y-27137594D01*
X-3888240Y-27356963D01*
X-3764176Y-27559416D01*
X-3609969Y-27739969D01*
X-3581139Y-27764592D01*
X-3486162Y-27845710D01*
X-3454083Y-27888086D01*
X-3442693Y-27940000D01*
X-3454083Y-27991914D01*
X-3486162Y-28034290D01*
X-3609966Y-28140028D01*
X-3609967Y-28140029D01*
X-3609969Y-28140031D01*
X-3764176Y-28320584D01*
X-3888240Y-28523037D01*
X-3979105Y-28742406D01*
X-4034535Y-28973289D01*
X-4053165Y-29210000D01*
X-8399298Y-29210000D01*
X-8322171Y-29174035D01*
X-8128599Y-29038495D01*
X-7961505Y-28871401D01*
X-7825965Y-28677830D01*
X-7726097Y-28463663D01*
X-7693701Y-28342759D01*
X-7664936Y-28235407D01*
X-7644340Y-28000000D01*
X-7664936Y-27764592D01*
X-7726097Y-27536336D01*
X-7825965Y-27322170D01*
X-7961505Y-27128598D01*
X-8128598Y-26961505D01*
X-8322170Y-26825965D01*
X-8536336Y-26726097D01*
X-8764592Y-26664936D01*
X-8941032Y-26649500D01*
X-8941034Y-26649500D01*
X-9058966Y-26649500D01*
X-9058968Y-26649500D01*
X-9235407Y-26664936D01*
X-9463662Y-26726096D01*
X-9463663Y-26726097D01*
X-9677829Y-26825965D01*
X-9871401Y-26961505D01*
X-10038495Y-27128599D01*
X-10174035Y-27322170D01*
X-10273903Y-27536337D01*
X-10335063Y-27764592D01*
X-10355659Y-28000000D01*
X-11979500Y-28000000D01*
X-11979500Y-17456030D01*
X-12014647Y-17009453D01*
X-12084719Y-16567034D01*
X-12189290Y-16131458D01*
X-12327714Y-15705437D01*
X-12499134Y-15291591D01*
X-12702502Y-14892459D01*
X-12936546Y-14510533D01*
X-13199849Y-14148129D01*
X-13490768Y-13807507D01*
X-13807507Y-13490768D01*
X-14148129Y-13199849D01*
X-14510533Y-12936546D01*
X-14892459Y-12702502D01*
X-15291591Y-12499134D01*
X-15705437Y-12327714D01*
X-16131458Y-12189290D01*
X-16567034Y-12084719D01*
X-17009453Y-12014647D01*
X-17009456Y-12014646D01*
X-17009461Y-12014646D01*
X-17456027Y-11979500D01*
X-17456030Y-11979500D01*
X-32416276Y-11979500D01*
X-32429058Y-11978839D01*
X-32572437Y-11963980D01*
X-32597457Y-11958738D01*
X-32733228Y-11915279D01*
X-32756641Y-11905019D01*
X-32797607Y-11881764D01*
X-32840749Y-11840901D01*
X-32859927Y-11784659D01*
X-32850736Y-11725953D01*
X-32815287Y-11678263D01*
X-32761720Y-11652541D01*
X-32702337Y-11654694D01*
X-32511890Y-11709090D01*
X-32304081Y-11726137D01*
X-32148855Y-11708287D01*
X-31508570Y-11570026D01*
X-31265211Y-11517477D01*
X-31116451Y-11469687D01*
X-30934194Y-11368412D01*
X-30888361Y-11329528D01*
X-30775195Y-11233521D01*
X-30645569Y-11070206D01*
X-30573188Y-10929309D01*
X-30550293Y-10884742D01*
X-30493031Y-10684254D01*
X-30475983Y-10476440D01*
X-30499803Y-10269301D01*
X-30563577Y-10070789D01*
X-30664854Y-9888529D01*
X-30799739Y-9729535D01*
X-30963058Y-9599906D01*
X-31148524Y-9504630D01*
X-31349011Y-9447368D01*
X-31452916Y-9438844D01*
X-31556821Y-9430321D01*
X-31712049Y-9448171D01*
X-32595689Y-9638980D01*
X-32744450Y-9686771D01*
X-32926710Y-9788048D01*
X-33085704Y-9922933D01*
X-33085707Y-9922937D01*
X-33215334Y-10086252D01*
X-33310609Y-10271717D01*
X-33318743Y-10300196D01*
X-33350802Y-10354329D01*
X-33405303Y-10385760D01*
X-33468214Y-10386398D01*
X-33523341Y-10356079D01*
X-33556492Y-10302607D01*
X-33700776Y-9833664D01*
X-33701797Y-9830165D01*
X-33861722Y-9250265D01*
X-33861845Y-9249814D01*
X-33918470Y-9041425D01*
X-30689577Y-9041425D01*
X-30673004Y-9220265D01*
X-30670194Y-9250599D01*
X-30612706Y-9452647D01*
X-30519073Y-9640689D01*
X-30519071Y-9640690D01*
X-30519071Y-9640692D01*
X-30392476Y-9808330D01*
X-30237234Y-9949853D01*
X-30058630Y-10060440D01*
X-29862747Y-10136325D01*
X-29656255Y-10174925D01*
X-29446189Y-10174925D01*
X-29446187Y-10174925D01*
X-29239695Y-10136325D01*
X-29043812Y-10060440D01*
X-28865208Y-9949853D01*
X-28730969Y-9827477D01*
X-3786027Y-9827477D01*
X-3766065Y-10017405D01*
X-3727425Y-10136325D01*
X-3707050Y-10199033D01*
X-3616380Y-10356079D01*
X-3611563Y-10364421D01*
X-3483776Y-10506343D01*
X-3329275Y-10618595D01*
X-3154811Y-10696271D01*
X-3154809Y-10696271D01*
X-3154808Y-10696272D01*
X-2968012Y-10735977D01*
X-2968010Y-10735977D01*
X-2777036Y-10735977D01*
X-2777034Y-10735977D01*
X-2590237Y-10696272D01*
X-2415771Y-10618595D01*
X-2365100Y-10581780D01*
X-2261270Y-10506343D01*
X-2133483Y-10364421D01*
X-2133480Y-10364418D01*
X-2037995Y-10199033D01*
X-1978981Y-10017406D01*
X-1959019Y-9827477D01*
X-1978981Y-9637547D01*
X-2037995Y-9455920D01*
X-2133480Y-9290535D01*
X-2261271Y-9148610D01*
X-2415771Y-9036358D01*
X-2590237Y-8958681D01*
X-2777034Y-8918977D01*
X-2777036Y-8918977D01*
X-2968010Y-8918977D01*
X-2968012Y-8918977D01*
X-3154808Y-8958681D01*
X-3329274Y-9036358D01*
X-3336248Y-9041425D01*
X-3483776Y-9148611D01*
X-3575606Y-9250599D01*
X-3611565Y-9290535D01*
X-3707050Y-9455920D01*
X-3707050Y-9455921D01*
X-3766065Y-9637549D01*
X-3786027Y-9827477D01*
X-28730969Y-9827477D01*
X-28709966Y-9808330D01*
X-28694650Y-9788049D01*
X-28583368Y-9640689D01*
X-28489735Y-9452647D01*
X-28432247Y-9250599D01*
X-28412865Y-9041424D01*
X-28432247Y-8832250D01*
X-28489735Y-8630202D01*
X-28583368Y-8442160D01*
X-28709964Y-8274521D01*
X-28865208Y-8132996D01*
X-29043813Y-8022409D01*
X-29239694Y-7946525D01*
X-29314075Y-7932621D01*
X-29446187Y-7907925D01*
X-29656255Y-7907925D01*
X-29862746Y-7946524D01*
X-29862747Y-7946525D01*
X-30058628Y-8022409D01*
X-30237233Y-8132996D01*
X-30392477Y-8274521D01*
X-30519073Y-8442160D01*
X-30612706Y-8630202D01*
X-30670194Y-8832250D01*
X-30670194Y-8832253D01*
X-30689577Y-9041425D01*
X-33918470Y-9041425D01*
X-34001382Y-8736295D01*
X-34002242Y-8732946D01*
X-34142452Y-8153557D01*
X-34142604Y-8152921D01*
X-34249684Y-7700000D01*
X8786672Y-7700000D01*
X8805948Y-7932621D01*
X8863251Y-8158908D01*
X8957016Y-8372669D01*
X9084684Y-8568081D01*
X9084686Y-8568083D01*
X9242780Y-8739818D01*
X9426983Y-8883190D01*
X9632273Y-8994287D01*
X9687466Y-9013235D01*
X9853046Y-9070080D01*
X10083288Y-9108500D01*
X10316712Y-9108500D01*
X10546953Y-9070080D01*
X10657339Y-9032183D01*
X10767727Y-8994287D01*
X10973017Y-8883190D01*
X11157220Y-8739818D01*
X11315314Y-8568083D01*
X11442984Y-8372669D01*
X11536749Y-8158907D01*
X11594051Y-7932626D01*
X11613327Y-7700000D01*
X11594051Y-7467374D01*
X11536749Y-7241093D01*
X11442984Y-7027331D01*
X11379149Y-6929624D01*
X11315315Y-6831918D01*
X11157219Y-6660181D01*
X11116371Y-6628388D01*
X10973017Y-6516810D01*
X10767727Y-6405713D01*
X10767726Y-6405712D01*
X10767725Y-6405712D01*
X10546953Y-6329919D01*
X10316712Y-6291500D01*
X10083288Y-6291500D01*
X9853046Y-6329919D01*
X9632274Y-6405712D01*
X9426983Y-6516810D01*
X9242780Y-6660181D01*
X9084684Y-6831918D01*
X8957016Y-7027330D01*
X8863251Y-7241091D01*
X8805948Y-7467378D01*
X8786672Y-7700000D01*
X-34249684Y-7700000D01*
X-34266265Y-7629868D01*
X-34266976Y-7626674D01*
X-34388189Y-7045957D01*
X-34388358Y-7045133D01*
X-34495178Y-6515431D01*
X-34495750Y-6512401D01*
X-34515521Y-6400000D01*
X-32613504Y-6400000D01*
X-32593542Y-6589928D01*
X-32561049Y-6689929D01*
X-32534527Y-6771556D01*
X-32499678Y-6831917D01*
X-32439040Y-6936944D01*
X-32311253Y-7078866D01*
X-32156752Y-7191118D01*
X-31982288Y-7268794D01*
X-31982286Y-7268794D01*
X-31982285Y-7268795D01*
X-31795489Y-7308500D01*
X-31795487Y-7308500D01*
X-31604513Y-7308500D01*
X-31604511Y-7308500D01*
X-31417714Y-7268795D01*
X-31243248Y-7191118D01*
X-31210554Y-7167364D01*
X-31088747Y-7078866D01*
X-30960960Y-6936944D01*
X-30960957Y-6936941D01*
X-30865472Y-6771556D01*
X-30806458Y-6589929D01*
X-30795797Y-6488498D01*
X-26713504Y-6488498D01*
X-26693542Y-6678426D01*
X-26689804Y-6689929D01*
X-26634527Y-6860054D01*
X-26590135Y-6936944D01*
X-26539040Y-7025442D01*
X-26411253Y-7167364D01*
X-26256752Y-7279616D01*
X-26082288Y-7357292D01*
X-26082286Y-7357292D01*
X-26082285Y-7357293D01*
X-25895489Y-7396998D01*
X-25895487Y-7396998D01*
X-25704513Y-7396998D01*
X-25704511Y-7396998D01*
X-25517714Y-7357293D01*
X-25343248Y-7279616D01*
X-25290223Y-7241091D01*
X-25188747Y-7167364D01*
X-25060960Y-7025442D01*
X-25060957Y-7025439D01*
X-24965472Y-6860054D01*
X-24906458Y-6678427D01*
X-24887705Y-6500000D01*
X-2713504Y-6500000D01*
X-2693542Y-6689928D01*
X-2647406Y-6831918D01*
X-2634527Y-6871556D01*
X-2545683Y-7025439D01*
X-2539040Y-7036944D01*
X-2411253Y-7178866D01*
X-2256752Y-7291118D01*
X-2082288Y-7368794D01*
X-2082286Y-7368794D01*
X-2082285Y-7368795D01*
X-1895489Y-7408500D01*
X-1895487Y-7408500D01*
X-1704513Y-7408500D01*
X-1704511Y-7408500D01*
X-1517714Y-7368795D01*
X-1343248Y-7291118D01*
X-1274392Y-7241091D01*
X-1188747Y-7178866D01*
X-1060960Y-7036944D01*
X-1060957Y-7036941D01*
X-965472Y-6871556D01*
X-906458Y-6689929D01*
X-886496Y-6499999D01*
X-906458Y-6310070D01*
X-965472Y-6128443D01*
X-1060957Y-5963058D01*
X-1188748Y-5821133D01*
X-1343248Y-5708881D01*
X-1517714Y-5631204D01*
X-1704511Y-5591500D01*
X-1704513Y-5591500D01*
X-1895487Y-5591500D01*
X-1895489Y-5591500D01*
X-2082285Y-5631204D01*
X-2256751Y-5708881D01*
X-2314901Y-5751129D01*
X-2411253Y-5821134D01*
X-2449001Y-5863058D01*
X-2539042Y-5963058D01*
X-2634527Y-6128443D01*
X-2634527Y-6128444D01*
X-2693542Y-6310072D01*
X-2713504Y-6500000D01*
X-24887705Y-6500000D01*
X-24886496Y-6488497D01*
X-24906458Y-6298568D01*
X-24965472Y-6116941D01*
X-25060957Y-5951556D01*
X-25188748Y-5809631D01*
X-25343248Y-5697379D01*
X-25517714Y-5619702D01*
X-25704511Y-5579998D01*
X-25704513Y-5579998D01*
X-25895487Y-5579998D01*
X-25895489Y-5579998D01*
X-26082285Y-5619702D01*
X-26256751Y-5697379D01*
X-26314901Y-5739628D01*
X-26411253Y-5809632D01*
X-26518607Y-5928861D01*
X-26539042Y-5951556D01*
X-26634527Y-6116941D01*
X-26662931Y-6204360D01*
X-26693542Y-6298570D01*
X-26713504Y-6488498D01*
X-30795797Y-6488498D01*
X-30786496Y-6400000D01*
X-30806458Y-6210070D01*
X-30865472Y-6028443D01*
X-30960957Y-5863058D01*
X-31088748Y-5721133D01*
X-31243248Y-5608881D01*
X-31417714Y-5531204D01*
X-31604511Y-5491500D01*
X-31604513Y-5491500D01*
X-31795487Y-5491500D01*
X-31795489Y-5491500D01*
X-31982285Y-5531204D01*
X-32156751Y-5608881D01*
X-32187478Y-5631206D01*
X-32311253Y-5721134D01*
X-32390936Y-5809631D01*
X-32439042Y-5863058D01*
X-32534527Y-6028443D01*
X-32534527Y-6028444D01*
X-32593542Y-6210072D01*
X-32613504Y-6400000D01*
X-34515521Y-6400000D01*
X-34598216Y-5929875D01*
X-34598390Y-5928861D01*
X-34687872Y-5394203D01*
X-34688317Y-5391341D01*
X-34772143Y-4806915D01*
X-34772309Y-4805711D01*
X-34818120Y-4462416D01*
X-34810296Y-4399849D01*
X-34772714Y-4349220D01*
X-34715092Y-4323618D01*
X-34652328Y-4329665D01*
X-34600653Y-4365796D01*
X-34591388Y-4376715D01*
X-34580855Y-4389132D01*
X-34417540Y-4518759D01*
X-34232075Y-4614034D01*
X-34031586Y-4671297D01*
X-33823777Y-4688344D01*
X-33668551Y-4670494D01*
X-33028266Y-4532233D01*
X-32784907Y-4479684D01*
X-32636147Y-4431894D01*
X-32453890Y-4330619D01*
X-32412021Y-4295098D01*
X-32294891Y-4195728D01*
X-32165265Y-4032413D01*
X-32163226Y-4028444D01*
X-32127333Y-3958575D01*
X-31787135Y-3958575D01*
X-31770562Y-4137415D01*
X-31767752Y-4167749D01*
X-31710264Y-4369797D01*
X-31616631Y-4557839D01*
X-31616629Y-4557840D01*
X-31616629Y-4557842D01*
X-31490034Y-4725480D01*
X-31334792Y-4867003D01*
X-31156188Y-4977590D01*
X-30960305Y-5053475D01*
X-30753813Y-5092075D01*
X-30543747Y-5092075D01*
X-30543745Y-5092075D01*
X-30337253Y-5053475D01*
X-30141370Y-4977590D01*
X-29962766Y-4867003D01*
X-29807524Y-4725480D01*
X-29779479Y-4688343D01*
X-29680926Y-4557839D01*
X-29602332Y-4400000D01*
X-25713504Y-4400000D01*
X-25693542Y-4589928D01*
X-25634527Y-4771556D01*
X-25539040Y-4936944D01*
X-25411253Y-5078866D01*
X-25256752Y-5191118D01*
X-25082288Y-5268794D01*
X-25082286Y-5268794D01*
X-25082285Y-5268795D01*
X-24895489Y-5308500D01*
X-24895487Y-5308500D01*
X-24704513Y-5308500D01*
X-24704511Y-5308500D01*
X-24517714Y-5268795D01*
X-24343248Y-5191118D01*
X-24206928Y-5092075D01*
X-24188747Y-5078866D01*
X-24060960Y-4936944D01*
X-24060957Y-4936941D01*
X-23965472Y-4771556D01*
X-23906458Y-4589929D01*
X-23886496Y-4399999D01*
X-23906458Y-4210070D01*
X-23965472Y-4028443D01*
X-24060957Y-3863058D01*
X-24188748Y-3721133D01*
X-24343248Y-3608881D01*
X-24517714Y-3531204D01*
X-24704511Y-3491500D01*
X-24704513Y-3491500D01*
X-24895487Y-3491500D01*
X-24895489Y-3491500D01*
X-25082285Y-3531204D01*
X-25256751Y-3608881D01*
X-25256752Y-3608882D01*
X-25411253Y-3721134D01*
X-25436706Y-3749403D01*
X-25539042Y-3863058D01*
X-25634527Y-4028443D01*
X-25634527Y-4028444D01*
X-25693542Y-4210072D01*
X-25713504Y-4400000D01*
X-29602332Y-4400000D01*
X-29587293Y-4369797D01*
X-29529805Y-4167749D01*
X-29510423Y-3958574D01*
X-29529805Y-3749400D01*
X-29587293Y-3547352D01*
X-29680926Y-3359310D01*
X-29807522Y-3191671D01*
X-29962766Y-3050146D01*
X-30141371Y-2939559D01*
X-30337252Y-2863675D01*
X-30406471Y-2850736D01*
X-30543745Y-2825075D01*
X-30753813Y-2825075D01*
X-30960304Y-2863674D01*
X-30960305Y-2863675D01*
X-31156186Y-2939559D01*
X-31334791Y-3050146D01*
X-31490035Y-3191671D01*
X-31616631Y-3359310D01*
X-31710264Y-3547352D01*
X-31767752Y-3749400D01*
X-31767752Y-3749403D01*
X-31787135Y-3958575D01*
X-32127333Y-3958575D01*
X-32069989Y-3846949D01*
X-32012727Y-3646461D01*
X-31995679Y-3438647D01*
X-32019499Y-3231508D01*
X-32083273Y-3032996D01*
X-32184550Y-2850736D01*
X-32319435Y-2691742D01*
X-32482754Y-2562113D01*
X-32668220Y-2466837D01*
X-32868707Y-2409575D01*
X-32972612Y-2401051D01*
X-33076517Y-2392528D01*
X-33231745Y-2410378D01*
X-34115385Y-2601187D01*
X-34264146Y-2648978D01*
X-34446406Y-2750255D01*
X-34605400Y-2885140D01*
X-34605403Y-2885144D01*
X-34735030Y-3048459D01*
X-34735032Y-3048463D01*
X-34739881Y-3057901D01*
X-34782362Y-3105052D01*
X-34842609Y-3125009D01*
X-34904838Y-3112543D01*
X-34952749Y-3070920D01*
X-34973790Y-3011044D01*
X-35010652Y-2546255D01*
X-35010767Y-2544670D01*
X-35046843Y-2001577D01*
X-35046976Y-1999244D01*
X-35074924Y-1411130D01*
X-35074996Y-1409356D01*
X-35093057Y-864981D01*
X-35093109Y-862832D01*
X-35098853Y-500000D01*
X-33413504Y-500000D01*
X-33393542Y-689928D01*
X-33334527Y-871556D01*
X-33239040Y-1036944D01*
X-33111253Y-1178866D01*
X-32956752Y-1291118D01*
X-32782288Y-1368794D01*
X-32782286Y-1368794D01*
X-32782285Y-1368795D01*
X-32595489Y-1408500D01*
X-32595487Y-1408500D01*
X-32404513Y-1408500D01*
X-32404511Y-1408500D01*
X-32217714Y-1368795D01*
X-32043248Y-1291118D01*
X-32014180Y-1269999D01*
X-31888747Y-1178866D01*
X-31790355Y-1069591D01*
X-31760957Y-1036941D01*
X-31665472Y-871556D01*
X-31606458Y-689929D01*
X-31586496Y-500000D01*
X-31606458Y-310070D01*
X-31665472Y-128443D01*
X-31739629Y0D01*
X-26355659Y0D01*
X-26335063Y-235408D01*
X-26273903Y-463663D01*
X-26174035Y-677829D01*
X-26038495Y-871401D01*
X-25871401Y-1038495D01*
X-25677829Y-1174035D01*
X-25463663Y-1273903D01*
X-25235408Y-1335063D01*
X-25176594Y-1340208D01*
X-25058968Y-1350500D01*
X-25058966Y-1350500D01*
X-24941034Y-1350500D01*
X-24941032Y-1350500D01*
X-24764592Y-1335063D01*
X-24764591Y-1335062D01*
X-24536337Y-1273903D01*
X-24527965Y-1269999D01*
X8746672Y-1269999D01*
X8765948Y-1502621D01*
X8823251Y-1728908D01*
X8917016Y-1942669D01*
X9044684Y-2138081D01*
X9202779Y-2309817D01*
X9202780Y-2309818D01*
X9386983Y-2453190D01*
X9592273Y-2564287D01*
X9647467Y-2583235D01*
X9813046Y-2640080D01*
X10043288Y-2678500D01*
X10276712Y-2678500D01*
X10506953Y-2640080D01*
X10620242Y-2601187D01*
X10727727Y-2564287D01*
X10933017Y-2453190D01*
X11117220Y-2309818D01*
X11275314Y-2138083D01*
X11326192Y-2060207D01*
X11370982Y-2018975D01*
X11430000Y-2004030D01*
X11489018Y-2018975D01*
X11533807Y-2060207D01*
X11584686Y-2138083D01*
X11742780Y-2309818D01*
X11926983Y-2453190D01*
X12132273Y-2564287D01*
X12187467Y-2583235D01*
X12353046Y-2640080D01*
X12583288Y-2678500D01*
X12816712Y-2678500D01*
X13046953Y-2640080D01*
X13160242Y-2601187D01*
X13267727Y-2564287D01*
X13473017Y-2453190D01*
X13657220Y-2309818D01*
X13815314Y-2138083D01*
X13866192Y-2060207D01*
X13910982Y-2018975D01*
X13970000Y-2004030D01*
X14029018Y-2018975D01*
X14073807Y-2060207D01*
X14124686Y-2138083D01*
X14282780Y-2309818D01*
X14466983Y-2453190D01*
X14672273Y-2564287D01*
X14727467Y-2583235D01*
X14893046Y-2640080D01*
X15123288Y-2678500D01*
X15356712Y-2678500D01*
X15586953Y-2640080D01*
X15700242Y-2601187D01*
X15807727Y-2564287D01*
X16013017Y-2453190D01*
X16197220Y-2309818D01*
X16355314Y-2138083D01*
X16406192Y-2060207D01*
X16450982Y-2018975D01*
X16510000Y-2004030D01*
X16569018Y-2018975D01*
X16613807Y-2060207D01*
X16664686Y-2138083D01*
X16822780Y-2309818D01*
X17006983Y-2453190D01*
X17212273Y-2564287D01*
X17267466Y-2583235D01*
X17433046Y-2640080D01*
X17663288Y-2678500D01*
X17896712Y-2678500D01*
X18126953Y-2640080D01*
X18240242Y-2601187D01*
X18347727Y-2564287D01*
X18553017Y-2453190D01*
X18737220Y-2309818D01*
X18895314Y-2138083D01*
X19022984Y-1942669D01*
X19116749Y-1728907D01*
X19174051Y-1502626D01*
X19193327Y-1270000D01*
X19174051Y-1037374D01*
X19116749Y-811093D01*
X19022984Y-597331D01*
X18959149Y-499624D01*
X18895315Y-401918D01*
X18737219Y-230181D01*
X18697775Y-199480D01*
X18567202Y-97851D01*
X18531966Y-54460D01*
X18519367Y0D01*
X21644340Y0D01*
X21664936Y-235407D01*
X21726096Y-463662D01*
X21726097Y-463663D01*
X21825965Y-677829D01*
X21961505Y-871401D01*
X22128599Y-1038495D01*
X22322171Y-1174035D01*
X22536337Y-1273903D01*
X22764591Y-1335062D01*
X22764592Y-1335063D01*
X22941032Y-1350500D01*
X22941034Y-1350500D01*
X23058966Y-1350500D01*
X23058968Y-1350500D01*
X23176594Y-1340208D01*
X23235408Y-1335063D01*
X23463663Y-1273903D01*
X23677829Y-1174035D01*
X23871401Y-1038495D01*
X24038495Y-871401D01*
X24174035Y-677830D01*
X24273903Y-463663D01*
X24335063Y-235408D01*
X24355659Y0D01*
X24335063Y235408D01*
X24273903Y463663D01*
X24174035Y677829D01*
X24038495Y871401D01*
X23871401Y1038495D01*
X23677829Y1174035D01*
X23463663Y1273903D01*
X23235408Y1335063D01*
X23176594Y1340208D01*
X23058968Y1350500D01*
X23058966Y1350500D01*
X22941034Y1350500D01*
X22941032Y1350500D01*
X22764592Y1335063D01*
X22536337Y1273903D01*
X22322171Y1174035D01*
X22128599Y1038495D01*
X21961505Y871401D01*
X21825965Y677830D01*
X21788428Y597330D01*
X21726097Y463662D01*
X21664936Y235407D01*
X21644340Y0D01*
X18519367Y0D01*
X18531966Y54460D01*
X18567202Y97851D01*
X18737220Y230182D01*
X18895314Y401917D01*
X18946192Y479791D01*
X18982894Y535969D01*
X19022984Y597331D01*
X19116749Y811093D01*
X19174051Y1037374D01*
X19193327Y1270000D01*
X19174051Y1502626D01*
X19116749Y1728907D01*
X19022984Y1942669D01*
X18895314Y2138083D01*
X18737220Y2309818D01*
X18553017Y2453190D01*
X18347727Y2564287D01*
X18237339Y2602183D01*
X18126953Y2640080D01*
X17896712Y2678500D01*
X17663288Y2678500D01*
X17433046Y2640080D01*
X17267466Y2583235D01*
X17212273Y2564287D01*
X17006983Y2453190D01*
X16822780Y2309818D01*
X16664686Y2138083D01*
X16664685Y2138081D01*
X16613809Y2060209D01*
X16569018Y2018975D01*
X16510000Y2004030D01*
X16450982Y2018975D01*
X16406191Y2060209D01*
X16355314Y2138083D01*
X16197220Y2309818D01*
X16013017Y2453190D01*
X15807727Y2564287D01*
X15697339Y2602183D01*
X15586953Y2640080D01*
X15356712Y2678500D01*
X15123288Y2678500D01*
X14893046Y2640080D01*
X14727467Y2583235D01*
X14672273Y2564287D01*
X14466983Y2453190D01*
X14282780Y2309818D01*
X14124686Y2138083D01*
X14124685Y2138081D01*
X14073809Y2060209D01*
X14029018Y2018975D01*
X13970000Y2004030D01*
X13910982Y2018975D01*
X13866191Y2060209D01*
X13815314Y2138083D01*
X13657220Y2309818D01*
X13473017Y2453190D01*
X13267727Y2564287D01*
X13157339Y2602183D01*
X13046953Y2640080D01*
X12816712Y2678500D01*
X12583288Y2678500D01*
X12353046Y2640080D01*
X12187467Y2583235D01*
X12132273Y2564287D01*
X11926983Y2453190D01*
X11742780Y2309818D01*
X11584686Y2138083D01*
X11584685Y2138081D01*
X11533809Y2060209D01*
X11489018Y2018975D01*
X11430000Y2004030D01*
X11370982Y2018975D01*
X11326191Y2060209D01*
X11275314Y2138083D01*
X11117220Y2309818D01*
X10933017Y2453190D01*
X10727727Y2564287D01*
X10617339Y2602183D01*
X10506953Y2640080D01*
X10276712Y2678500D01*
X10043288Y2678500D01*
X9813046Y2640080D01*
X9647467Y2583235D01*
X9592273Y2564287D01*
X9386983Y2453190D01*
X9202780Y2309818D01*
X9044684Y2138081D01*
X8917016Y1942669D01*
X8823251Y1728908D01*
X8765948Y1502621D01*
X8746673Y1270000D01*
X8765948Y1037378D01*
X8823251Y811091D01*
X8917016Y597330D01*
X9044684Y401918D01*
X9202780Y230181D01*
X9372795Y97853D01*
X9408033Y54460D01*
X9420632Y0D01*
X9408033Y-54460D01*
X9372795Y-97853D01*
X9202780Y-230181D01*
X9044684Y-401918D01*
X8917016Y-597330D01*
X8823251Y-811091D01*
X8765948Y-1037378D01*
X8746672Y-1269999D01*
X-24527965Y-1269999D01*
X-24322171Y-1174035D01*
X-24128599Y-1038495D01*
X-23961505Y-871401D01*
X-23825965Y-677830D01*
X-23726097Y-463663D01*
X-23684942Y-310070D01*
X-23664936Y-235407D01*
X-23644340Y0D01*
X-23664936Y235407D01*
X-23726097Y463663D01*
X-23825965Y677829D01*
X-23961505Y871401D01*
X-24128598Y1038494D01*
X-24246621Y1121134D01*
X-24322171Y1174035D01*
X-24536337Y1273903D01*
X-24764592Y1335063D01*
X-24941032Y1350500D01*
X-24941034Y1350500D01*
X-25058966Y1350500D01*
X-25058968Y1350500D01*
X-25176594Y1340208D01*
X-25235408Y1335063D01*
X-25463663Y1273903D01*
X-25677829Y1174035D01*
X-25871401Y1038495D01*
X-26038495Y871401D01*
X-26174035Y677830D01*
X-26273903Y463663D01*
X-26335063Y235408D01*
X-26355659Y0D01*
X-31739629Y0D01*
X-31760957Y36941D01*
X-31790355Y69591D01*
X-31888747Y178866D01*
X-32043248Y291118D01*
X-32217712Y368794D01*
X-32217714Y368795D01*
X-32404511Y408500D01*
X-32404513Y408500D01*
X-32595487Y408500D01*
X-32595489Y408500D01*
X-32782285Y368795D01*
X-32782286Y368794D01*
X-32782288Y368794D01*
X-32956752Y291118D01*
X-33111253Y178866D01*
X-33239040Y36944D01*
X-33239041Y36941D01*
X-33239042Y36941D01*
X-33334527Y-128443D01*
X-33334527Y-128444D01*
X-33393542Y-310072D01*
X-33413504Y-500000D01*
X-35098853Y-500000D01*
X-35102426Y-274345D01*
X-35102442Y-272382D01*
X-35102442Y272384D01*
X-35102426Y274347D01*
X-35093109Y862834D01*
X-35093057Y864983D01*
X-35074996Y1409359D01*
X-35074924Y1411133D01*
X-35056445Y1800000D01*
X2386496Y1800000D01*
X2406458Y1610070D01*
X2465472Y1428443D01*
X2560957Y1263058D01*
X2688748Y1121133D01*
X2843248Y1008881D01*
X3017714Y931204D01*
X3204511Y891500D01*
X3204513Y891500D01*
X3395487Y891500D01*
X3395489Y891500D01*
X3582285Y931204D01*
X3756751Y1008881D01*
X3814901Y1051129D01*
X3911253Y1121134D01*
X4039040Y1263056D01*
X4039042Y1263058D01*
X4134527Y1428443D01*
X4193541Y1610070D01*
X4193542Y1610072D01*
X4213504Y1800000D01*
X4193542Y1989928D01*
X4134527Y2171556D01*
X4039040Y2336944D01*
X3911253Y2478866D01*
X3756752Y2591118D01*
X3582288Y2668794D01*
X3582286Y2668794D01*
X3582285Y2668795D01*
X3395489Y2708500D01*
X3395487Y2708500D01*
X3204513Y2708500D01*
X3204511Y2708500D01*
X3017714Y2668795D01*
X3017712Y2668794D01*
X2843248Y2591118D01*
X2688747Y2478866D01*
X2590355Y2369591D01*
X2560957Y2336941D01*
X2465472Y2171556D01*
X2406458Y1989929D01*
X2386496Y1800000D01*
X-35056445Y1800000D01*
X-35046976Y1999249D01*
X-35046843Y2001582D01*
X-35010768Y2544651D01*
X-35010653Y2546236D01*
X-34964068Y3133605D01*
X-34963843Y3136118D01*
X-34909828Y3677218D01*
X-34909681Y3678613D01*
X-34844469Y4264739D01*
X-34844139Y4267429D01*
X-34839793Y4300000D01*
X-33613504Y4300000D01*
X-33593542Y4110072D01*
X-33593541Y4110070D01*
X-33534527Y3928443D01*
X-33439042Y3763058D01*
X-33439040Y3763056D01*
X-33311253Y3621134D01*
X-33214901Y3551129D01*
X-33156751Y3508881D01*
X-32982285Y3431204D01*
X-32795489Y3391500D01*
X-32795487Y3391500D01*
X-32604513Y3391500D01*
X-32604511Y3391500D01*
X-32417714Y3431204D01*
X-32243248Y3508881D01*
X-32088748Y3621133D01*
X-31960957Y3763058D01*
X-31865472Y3928443D01*
X-31806458Y4110070D01*
X-31786496Y4300000D01*
X-31806458Y4489929D01*
X-31865472Y4671556D01*
X-31960957Y4836941D01*
X-31990355Y4869591D01*
X-32088747Y4978866D01*
X-32243248Y5091118D01*
X-32417712Y5168794D01*
X-32417714Y5168795D01*
X-32604511Y5208500D01*
X-32604513Y5208500D01*
X-32795487Y5208500D01*
X-32795489Y5208500D01*
X-32982285Y5168795D01*
X-32982286Y5168794D01*
X-32982288Y5168794D01*
X-33156752Y5091118D01*
X-33311253Y4978866D01*
X-33439040Y4836944D01*
X-33534527Y4671556D01*
X-33593542Y4489928D01*
X-33613504Y4300000D01*
X-34839793Y4300000D01*
X-34772318Y4805643D01*
X-34772152Y4806847D01*
X-34688312Y5391371D01*
X-34687867Y5394233D01*
X-34598409Y5928750D01*
X-34598235Y5929764D01*
X-34495746Y6512422D01*
X-34495174Y6515452D01*
X-34388383Y7045011D01*
X-34388214Y7045836D01*
X-34266966Y7626716D01*
X-34266255Y7629909D01*
X-34238874Y7745723D01*
X-33258908Y7745723D01*
X-33218198Y7580554D01*
X-33139142Y7429927D01*
X-33026337Y7302596D01*
X-33026335Y7302594D01*
X-32951962Y7251258D01*
X-32886338Y7205961D01*
X-32727280Y7145639D01*
X-32600780Y7130279D01*
X-32516037Y7130279D01*
X-32516036Y7130279D01*
X-32452785Y7137959D01*
X-32389535Y7145639D01*
X-32230477Y7205961D01*
X-32164850Y7251260D01*
X-30512707Y7251260D01*
X-30511751Y7081151D01*
X-30470111Y6916213D01*
X-30390210Y6766031D01*
X-30276692Y6639337D01*
X-30136152Y6543494D01*
X-30136150Y6543493D01*
X-30101701Y6530649D01*
X-30016749Y6498976D01*
X-29594056Y6397310D01*
X-29467475Y6382662D01*
X-29298719Y6404117D01*
X-29140004Y6465332D01*
X-29000551Y6562753D01*
X-28888463Y6690717D01*
X-28810257Y6841786D01*
X-28770475Y7007183D01*
X-28771433Y7177292D01*
X-28813071Y7342227D01*
X-28892973Y7492409D01*
X-29006492Y7619103D01*
X-29147029Y7714947D01*
X-29147031Y7714947D01*
X-29147033Y7714949D01*
X-29266434Y7759465D01*
X-29689125Y7861131D01*
X-29773514Y7870896D01*
X-29815708Y7875779D01*
X-29815708Y7875778D01*
X-29815709Y7875779D01*
X-29984463Y7854325D01*
X-30143178Y7793108D01*
X-30282632Y7695688D01*
X-30394720Y7567724D01*
X-30472926Y7416655D01*
X-30512707Y7251260D01*
X-32164850Y7251260D01*
X-32090480Y7302594D01*
X-31977673Y7429928D01*
X-31898617Y7580554D01*
X-31857908Y7745724D01*
X-31857908Y7915834D01*
X-31898617Y8081003D01*
X-31977673Y8231629D01*
X-31977674Y8231631D01*
X-32090479Y8358962D01*
X-32230478Y8455597D01*
X-32389536Y8515919D01*
X-32516036Y8531279D01*
X-32600780Y8531279D01*
X-32727280Y8515919D01*
X-32886338Y8455597D01*
X-33026337Y8358962D01*
X-33139142Y8231631D01*
X-33218198Y8081004D01*
X-33258908Y7915835D01*
X-33258908Y7745723D01*
X-34238874Y7745723D01*
X-34142631Y8152810D01*
X-34142479Y8153446D01*
X-34002233Y8732982D01*
X-34001373Y8736331D01*
X-33861893Y9249639D01*
X-33861770Y9250090D01*
X-33701792Y9830179D01*
X-33700771Y9833678D01*
X-33547966Y10330318D01*
X-33547883Y10330586D01*
X-33527081Y10397655D01*
X-938004Y10397655D01*
X-918042Y10207727D01*
X-918041Y10207725D01*
X-859027Y10026098D01*
X-763542Y9860713D01*
X-763540Y9860711D01*
X-635753Y9718789D01*
X-546923Y9654250D01*
X-481251Y9606536D01*
X-306785Y9528859D01*
X-119989Y9489155D01*
X-119987Y9489155D01*
X70987Y9489155D01*
X70989Y9489155D01*
X257785Y9528859D01*
X417571Y9600000D01*
X4586496Y9600000D01*
X4606458Y9410070D01*
X4665472Y9228443D01*
X4760957Y9063058D01*
X4888748Y8921133D01*
X5043248Y8808881D01*
X5217714Y8731204D01*
X5404511Y8691500D01*
X5404513Y8691500D01*
X5595487Y8691500D01*
X5595489Y8691500D01*
X5782285Y8731204D01*
X5956751Y8808881D01*
X6014901Y8851130D01*
X6111253Y8921134D01*
X6239040Y9063056D01*
X6239042Y9063058D01*
X6334527Y9228443D01*
X6393541Y9410070D01*
X6393542Y9410072D01*
X6413504Y9600000D01*
X6393542Y9789928D01*
X6334527Y9971556D01*
X6239040Y10136944D01*
X6111253Y10278866D01*
X5956752Y10391118D01*
X5782288Y10468794D01*
X5782286Y10468794D01*
X5782285Y10468795D01*
X5595489Y10508500D01*
X5595487Y10508500D01*
X5404513Y10508500D01*
X5404511Y10508500D01*
X5217714Y10468795D01*
X5217712Y10468794D01*
X5043248Y10391118D01*
X4888747Y10278866D01*
X4790355Y10169591D01*
X4760957Y10136941D01*
X4665472Y9971556D01*
X4606458Y9789929D01*
X4586496Y9600000D01*
X417571Y9600000D01*
X432251Y9606536D01*
X497923Y9654250D01*
X586753Y9718789D01*
X714540Y9860711D01*
X714542Y9860713D01*
X810027Y10026098D01*
X869041Y10207725D01*
X869042Y10207727D01*
X889004Y10397655D01*
X869042Y10587583D01*
X810027Y10769211D01*
X760120Y10855653D01*
X714542Y10934596D01*
X714541Y10934596D01*
X714540Y10934599D01*
X586753Y11076521D01*
X432252Y11188773D01*
X257788Y11266449D01*
X257786Y11266449D01*
X257785Y11266450D01*
X70989Y11306155D01*
X70987Y11306155D01*
X-119987Y11306155D01*
X-119989Y11306155D01*
X-306785Y11266450D01*
X-306786Y11266449D01*
X-306788Y11266449D01*
X-481252Y11188773D01*
X-635753Y11076521D01*
X-763540Y10934599D01*
X-763541Y10934596D01*
X-763542Y10934596D01*
X-809120Y10855653D01*
X-859027Y10769211D01*
X-918042Y10587583D01*
X-938004Y10397655D01*
X-33527081Y10397655D01*
X-33366676Y10914827D01*
X-33365819Y10917486D01*
X-33363061Y10925718D01*
X-33362727Y10926701D01*
X-33216274Y11351975D01*
X-33216243Y11352064D01*
X-33191368Y11424119D01*
X-33186612Y11435900D01*
X-33124069Y11570522D01*
X-33110966Y11592472D01*
X-33025666Y11706695D01*
X-33008340Y11725492D01*
X-32901430Y11819796D01*
X-32880619Y11834640D01*
X-32756640Y11905020D01*
X-32733232Y11915279D01*
X-32597451Y11958741D01*
X-32572434Y11963982D01*
X-32429056Y11978841D01*
X-32416274Y11979502D01*
X-17450279Y11979502D01*
X-17450278Y11979502D01*
X-17373952Y11985663D01*
X-16992318Y12016472D01*
X-16538834Y12090170D01*
X-16092739Y12200123D01*
X-16092738Y12200123D01*
X-16092735Y12200124D01*
X-15656935Y12345615D01*
X-15656931Y12345616D01*
X-15656924Y12345619D01*
X-15234256Y12525701D01*
X-14827447Y12739212D01*
X-14827444Y12739214D01*
X-14827438Y12739217D01*
X-14512772Y12938199D01*
X-14439115Y12984777D01*
X-14071816Y13260785D01*
X-13727926Y13565445D01*
X-13409650Y13896803D01*
X-13141609Y14225095D01*
X-13119080Y14252690D01*
X-13084079Y14303396D01*
X-12858084Y14630805D01*
X-12628365Y15028692D01*
X-12431402Y15443783D01*
X-12268481Y15873371D01*
X-12140656Y16314671D01*
X-12048755Y16764831D01*
X-11993375Y17220932D01*
X-11985259Y17422335D01*
X-11966528Y17483036D01*
X-11920195Y17526495D01*
X-11858423Y17541306D01*
X-8432855Y17460067D01*
X-6832326Y17422110D01*
X-6832318Y17422110D01*
X-5900000Y17400000D01*
X-5364984Y17749817D01*
X-5326450Y17745830D01*
X-5282098Y17720571D01*
X-5266622Y17706861D01*
X-5119652Y17629725D01*
X-5039070Y17609863D01*
X-4958490Y17590002D01*
X-4792507Y17590002D01*
X-4792506Y17590002D01*
X-4752784Y17599792D01*
X-4631346Y17629724D01*
X-4484371Y17706862D01*
X-4360134Y17816927D01*
X-4265843Y17953530D01*
X-4206985Y18108727D01*
X-4186977Y18273502D01*
X-4205419Y18425380D01*
X-4194752Y18492631D01*
X-4150182Y18544110D01*
X-3944955Y18678297D01*
X-3879323Y18721211D01*
X-3846870Y18736265D01*
X-3811467Y18741426D01*
X-3699139Y18741426D01*
X-3699138Y18741426D01*
X-3659415Y18751216D01*
X-3537978Y18781148D01*
X-3391003Y18858286D01*
X-3266766Y18968351D01*
X-3172474Y19104956D01*
X-3165383Y19123655D01*
X-3131668Y19172499D01*
X-3079116Y19200079D01*
X-3019766Y19200079D01*
X-2967214Y19172497D01*
X-2933501Y19123655D01*
X-2926389Y19104903D01*
X-2832100Y18968301D01*
X-2832098Y18968299D01*
X-2707861Y18858234D01*
X-2560886Y18781096D01*
X-2479125Y18760944D01*
X-2399727Y18741374D01*
X-2233744Y18741374D01*
X-2233743Y18741374D01*
X-2194020Y18751164D01*
X-2072583Y18781096D01*
X-1925608Y18858234D01*
X-1801371Y18968299D01*
X-1707080Y19104902D01*
X-1648222Y19260099D01*
X-1628214Y19424874D01*
X-1648222Y19589648D01*
X-1694848Y19712591D01*
X-1702002Y19771508D01*
X-1680956Y19827002D01*
X-1636532Y19866358D01*
X-1508876Y19933358D01*
X-1388555Y20039953D01*
X-1336003Y20067535D01*
X-1276653Y20067535D01*
X-1224100Y20039953D01*
X-1190386Y19991109D01*
X-1183232Y19932194D01*
X-1200771Y19787749D01*
X-1180764Y19622975D01*
X-1167604Y19588276D01*
X-1121905Y19467777D01*
X-1092327Y19424926D01*
X-1027616Y19331176D01*
X-1027614Y19331174D01*
X-903377Y19221109D01*
X-756402Y19143971D01*
X-647958Y19117242D01*
X-595243Y19104249D01*
X-595242Y19104249D01*
X-475230Y19104249D01*
X-417604Y19090045D01*
X-373180Y19050689D01*
X-315365Y18966929D01*
X-315363Y18966927D01*
X-191126Y18856862D01*
X-44151Y18779724D01*
X64292Y18752995D01*
X117008Y18740002D01*
X117009Y18740002D01*
X200654Y18740002D01*
X266928Y18720806D01*
X312682Y18669160D01*
X323750Y18601056D01*
X311479Y18500000D01*
X331487Y18335225D01*
X390345Y18180028D01*
X484636Y18043425D01*
X608873Y17933360D01*
X755848Y17856222D01*
X815859Y17841431D01*
X874217Y17808362D01*
X906816Y17749739D01*
X904940Y17703191D01*
X907821Y17702889D01*
X906459Y17689931D01*
X906458Y17689928D01*
X889281Y17526495D01*
X886496Y17500000D01*
X906458Y17310070D01*
X965472Y17128443D01*
X1060957Y16963058D01*
X1188748Y16821133D01*
X1343248Y16708881D01*
X1517714Y16631204D01*
X1704511Y16591500D01*
X1704513Y16591500D01*
X1895487Y16591500D01*
X1895489Y16591500D01*
X2082285Y16631204D01*
X2256751Y16708881D01*
X2333762Y16764833D01*
X2411253Y16821134D01*
X2539040Y16963056D01*
X2539042Y16963058D01*
X2634527Y17128443D01*
X2693541Y17310070D01*
X2693542Y17310072D01*
X2713504Y17500000D01*
X2693542Y17689928D01*
X2634527Y17871556D01*
X2539040Y18036944D01*
X2411253Y18178866D01*
X2321102Y18244365D01*
X3186496Y18244365D01*
X3206458Y18054435D01*
X3265472Y17872808D01*
X3360957Y17707423D01*
X3488748Y17565498D01*
X3643248Y17453246D01*
X3817714Y17375569D01*
X4004511Y17335865D01*
X4004513Y17335865D01*
X4195487Y17335865D01*
X4195489Y17335865D01*
X4382285Y17375569D01*
X4556751Y17453246D01*
X4677954Y17541306D01*
X4711253Y17565499D01*
X4823290Y17689929D01*
X4839042Y17707423D01*
X4934527Y17872808D01*
X4989964Y18043425D01*
X4993542Y18054437D01*
X5013504Y18244365D01*
X4993542Y18434293D01*
X4934527Y18615921D01*
X4898514Y18678297D01*
X4839042Y18781306D01*
X4839041Y18781306D01*
X4839040Y18781309D01*
X4711253Y18923231D01*
X4556752Y19035483D01*
X4382288Y19113159D01*
X4382286Y19113159D01*
X4382285Y19113160D01*
X4195489Y19152865D01*
X4195487Y19152865D01*
X4004513Y19152865D01*
X4004511Y19152865D01*
X3817714Y19113160D01*
X3796087Y19103531D01*
X3643248Y19035483D01*
X3488747Y18923231D01*
X3413933Y18840141D01*
X3360957Y18781306D01*
X3265472Y18615921D01*
X3206458Y18434294D01*
X3186496Y18244365D01*
X2321102Y18244365D01*
X2256752Y18291118D01*
X2082288Y18368794D01*
X2082286Y18368794D01*
X2082285Y18368795D01*
X1895489Y18408500D01*
X1895487Y18408500D01*
X1809485Y18408500D01*
X1751859Y18422703D01*
X1707435Y18462060D01*
X1686389Y18517553D01*
X1676965Y18595165D01*
X1668513Y18664774D01*
X1609654Y18819971D01*
X1515365Y18956573D01*
X1391124Y19066641D01*
X1244153Y19143777D01*
X1082992Y19183500D01*
X999346Y19183500D01*
X933072Y19202696D01*
X887318Y19254342D01*
X876250Y19322446D01*
X888520Y19423502D01*
X880855Y19486629D01*
X868513Y19588276D01*
X809654Y19743473D01*
X734009Y19853064D01*
X714566Y19898699D01*
X714566Y19948305D01*
X734009Y19993939D01*
X809654Y20103531D01*
X868513Y20258728D01*
X888520Y20423502D01*
X868513Y20588276D01*
X809654Y20743473D01*
X734009Y20853064D01*
X714566Y20898699D01*
X714566Y20948305D01*
X734009Y20993939D01*
X809654Y21103531D01*
X868513Y21258728D01*
X888520Y21423502D01*
X868513Y21588276D01*
X809654Y21743473D01*
X760233Y21815071D01*
X740790Y21860707D01*
X740790Y21910313D01*
X760234Y21955950D01*
X767811Y21966927D01*
X767813Y21966929D01*
X862102Y22103531D01*
X920961Y22258728D01*
X940968Y22423502D01*
X920961Y22588276D01*
X862102Y22743473D01*
X767813Y22880075D01*
X643572Y22990143D01*
X496601Y23067279D01*
X335440Y23107002D01*
X209667Y23107002D01*
X152041Y23121205D01*
X107617Y23160562D01*
X86571Y23216055D01*
X80042Y23269826D01*
X68513Y23364774D01*
X9654Y23519971D01*
X-84635Y23656573D01*
X-133654Y23700000D01*
X-190092Y23750000D01*
X13961480Y23750000D01*
X13981487Y23585225D01*
X14040345Y23430028D01*
X14134636Y23293425D01*
X14258873Y23183360D01*
X14405848Y23106222D01*
X14527285Y23076290D01*
X14567008Y23066500D01*
X14732991Y23066500D01*
X14732992Y23066500D01*
X14802239Y23083568D01*
X14894151Y23106222D01*
X15041126Y23183360D01*
X15165363Y23293425D01*
X15165365Y23293427D01*
X15224805Y23379541D01*
X15259654Y23430028D01*
X15293765Y23519971D01*
X15318513Y23585226D01*
X15338520Y23750000D01*
X15318513Y23914774D01*
X15259654Y24069971D01*
X15165365Y24206573D01*
X15041124Y24316641D01*
X14894153Y24393777D01*
X14732992Y24433500D01*
X14567008Y24433500D01*
X14405847Y24393777D01*
X14258876Y24316641D01*
X14258874Y24316639D01*
X14258873Y24316639D01*
X14139609Y24210980D01*
X14134635Y24206573D01*
X14124231Y24191500D01*
X14040345Y24069971D01*
X13981487Y23914774D01*
X13961480Y23750000D01*
X-190092Y23750000D01*
X-208873Y23766639D01*
X-208874Y23766639D01*
X-208876Y23766641D01*
X-355847Y23843777D01*
X-517008Y23883500D01*
X-682992Y23883500D01*
X-844153Y23843777D01*
X-991124Y23766641D01*
X-1115365Y23656573D01*
X-1209654Y23519971D01*
X-1268513Y23364774D01*
X-1288520Y23200000D01*
X-1268513Y23035226D01*
X-1214940Y22893967D01*
X-1206883Y22850000D01*
X-1214940Y22806032D01*
X-1268513Y22664774D01*
X-1288520Y22500000D01*
X-1268513Y22335226D01*
X-1239501Y22258728D01*
X-1209654Y22180028D01*
X-1115364Y22043425D01*
X-1058236Y21992815D01*
X-1021359Y21934499D01*
X-1021359Y21865501D01*
X-1058236Y21807185D01*
X-1072494Y21794553D01*
X-1115365Y21756573D01*
X-1209654Y21619971D01*
X-1268513Y21464774D01*
X-1288520Y21300000D01*
X-1269619Y21144337D01*
X-1276773Y21085423D01*
X-1310487Y21036579D01*
X-1363039Y21008997D01*
X-1422390Y21008997D01*
X-1474942Y21036578D01*
X-1508875Y21066640D01*
X-1508876Y21066641D01*
X-1655847Y21143777D01*
X-1817008Y21183500D01*
X-1982992Y21183500D01*
X-2144153Y21143777D01*
X-2291124Y21066641D01*
X-2291126Y21066639D01*
X-2417773Y20954440D01*
X-2470325Y20926858D01*
X-2529675Y20926858D01*
X-2582227Y20954440D01*
X-2708873Y21066639D01*
X-2708875Y21066640D01*
X-2708876Y21066641D01*
X-2855847Y21143777D01*
X-3017008Y21183500D01*
X-3182992Y21183500D01*
X-3344153Y21143777D01*
X-3491124Y21066641D01*
X-3491126Y21066639D01*
X-3517772Y21043033D01*
X-3570324Y21015450D01*
X-3629676Y21015450D01*
X-3682228Y21043033D01*
X-3708873Y21066639D01*
X-3708875Y21066640D01*
X-3708876Y21066641D01*
X-3855847Y21143777D01*
X-4017008Y21183500D01*
X-4182992Y21183500D01*
X-4344153Y21143777D01*
X-4491124Y21066641D01*
X-4541752Y21021787D01*
X-4584708Y20996988D01*
X-4633953Y20991008D01*
X-4681601Y21004810D01*
X-4755845Y21043776D01*
X-4755847Y21043777D01*
X-4917008Y21083500D01*
X-5082992Y21083500D01*
X-5244153Y21043777D01*
X-5391124Y20966641D01*
X-5467774Y20898734D01*
X-5520325Y20871154D01*
X-5579675Y20871154D01*
X-5632225Y20898734D01*
X-5708876Y20966641D01*
X-5855847Y21043777D01*
X-6017008Y21083500D01*
X-6182992Y21083500D01*
X-6344153Y21043777D01*
X-6491124Y20966641D01*
X-6615365Y20856573D01*
X-6709654Y20719971D01*
X-6768513Y20564774D01*
X-6788520Y20400000D01*
X-6768513Y20235226D01*
X-6762819Y20220213D01*
X-6709654Y20080028D01*
X-6698201Y20063436D01*
X-6615365Y19943427D01*
X-6615363Y19943425D01*
X-6491126Y19833360D01*
X-6344151Y19756222D01*
X-6235707Y19729493D01*
X-6182992Y19716500D01*
X-6017009Y19716500D01*
X-6017008Y19716500D01*
X-5977286Y19726290D01*
X-5855848Y19756222D01*
X-5708875Y19833359D01*
X-5632227Y19901264D01*
X-5579675Y19928845D01*
X-5520325Y19928845D01*
X-5467773Y19901264D01*
X-5391124Y19833359D01*
X-5244151Y19756222D01*
X-5135707Y19729493D01*
X-5082992Y19716500D01*
X-4917009Y19716500D01*
X-4917008Y19716500D01*
X-4877286Y19726290D01*
X-4755848Y19756222D01*
X-4608871Y19833361D01*
X-4607975Y19834156D01*
X-4597356Y19839405D01*
X-4595545Y19840356D01*
X-4595521Y19840312D01*
X-4549571Y19863028D01*
X-4484592Y19858306D01*
X-4430975Y19821295D01*
X-4403522Y19762212D01*
X-4409809Y19697367D01*
X-4450643Y19589700D01*
X-4470650Y19424926D01*
X-4450643Y19260152D01*
X-4435836Y19221109D01*
X-4423298Y19188049D01*
X-4416451Y19126789D01*
X-4439948Y19069801D01*
X-4446921Y19064192D01*
X-4596721Y18981802D01*
X-4596724Y18981802D01*
X-4646028Y18954684D01*
X-4689633Y18940393D01*
X-4735454Y18942939D01*
X-4792506Y18957002D01*
X-4958490Y18957002D01*
X-5119651Y18917279D01*
X-5266622Y18840143D01*
X-5390863Y18730075D01*
X-5485152Y18593473D01*
X-5508318Y18532387D01*
X-5533260Y18492130D01*
X-5571478Y18464160D01*
X-5675881Y18415062D01*
X-5690423Y18409315D01*
X-6036340Y18297332D01*
X-6051515Y18293460D01*
X-6408792Y18226018D01*
X-6424335Y18224092D01*
X-6787257Y18202269D01*
X-6802918Y18202318D01*
X-7169636Y18226723D01*
X-7177399Y18227486D01*
X-8528045Y18403658D01*
X-12017153Y18858758D01*
X-12065178Y18875548D01*
X-12102420Y18910211D01*
X-12122607Y18956912D01*
X-12140658Y19045328D01*
X-12150453Y19079143D01*
X-12250594Y19424874D01*
X-12268481Y19486626D01*
X-12285168Y19530625D01*
X-12431403Y19916217D01*
X-12588739Y20247795D01*
X-12628365Y20331305D01*
X-12858084Y20729192D01*
X-13070259Y21036578D01*
X-13119080Y21107308D01*
X-13276408Y21300000D01*
X-13409650Y21463194D01*
X-13727926Y21794552D01*
X-14071816Y22099212D01*
X-14071831Y22099223D01*
X-14439120Y22375224D01*
X-14827438Y22620781D01*
X-15234256Y22834296D01*
X-15656935Y23014383D01*
X-16092735Y23159874D01*
X-16538829Y23269826D01*
X-16538831Y23269826D01*
X-16538834Y23269827D01*
X-16765576Y23306676D01*
X-16992323Y23343526D01*
X-17450278Y23380496D01*
X-17450279Y23380496D01*
X-17656011Y23380496D01*
X-17656032Y23380500D01*
X-17679901Y23380500D01*
X-28791976Y23380500D01*
X-28799279Y23380715D01*
X-28803257Y23380949D01*
X-29132623Y23400381D01*
X-29147119Y23402098D01*
X-29480581Y23461672D01*
X-29494781Y23465083D01*
X-29818923Y23563454D01*
X-29832625Y23568511D01*
X-30142955Y23704316D01*
X-30155968Y23710950D01*
X-30448171Y23882299D01*
X-30460314Y23890417D01*
X-30598299Y23994928D01*
X-30635538Y24040784D01*
X-30647334Y24098666D01*
X-30631012Y24155439D01*
X-30590274Y24198217D01*
X-30534366Y24217292D01*
X-30493222Y24210980D01*
X-30492601Y24213569D01*
X-30252230Y24155861D01*
X-30015518Y24137231D01*
X-29778805Y24155861D01*
X-29547924Y24211290D01*
X-29328553Y24302157D01*
X-29126103Y24426219D01*
X-28945549Y24580427D01*
X-28791341Y24760981D01*
X-28667279Y24963431D01*
X-28610710Y25100000D01*
X-10913504Y25100000D01*
X-10893542Y24910072D01*
X-10893541Y24910070D01*
X-10834527Y24728443D01*
X-10739042Y24563058D01*
X-10739040Y24563056D01*
X-10611253Y24421134D01*
X-10573599Y24393777D01*
X-10456751Y24308881D01*
X-10282285Y24231204D01*
X-10095489Y24191500D01*
X-10095487Y24191500D01*
X-9904513Y24191500D01*
X-9904511Y24191500D01*
X-9717714Y24231204D01*
X-9543248Y24308881D01*
X-9388748Y24421133D01*
X-9384168Y24426219D01*
X-9377613Y24433500D01*
X-9260957Y24563058D01*
X-9165472Y24728443D01*
X-9106458Y24910070D01*
X-9086496Y25100000D01*
X-9106458Y25289929D01*
X-9165472Y25471556D01*
X-9260957Y25636941D01*
X-9314315Y25696201D01*
X-9388747Y25778866D01*
X-9543248Y25891118D01*
X-9667142Y25946279D01*
X-9717714Y25968795D01*
X-9904511Y26008500D01*
X-9904513Y26008500D01*
X-10095487Y26008500D01*
X-10095489Y26008500D01*
X-10282285Y25968795D01*
X-10282286Y25968794D01*
X-10282288Y25968794D01*
X-10456752Y25891118D01*
X-10611253Y25778866D01*
X-10739040Y25636944D01*
X-10739041Y25636941D01*
X-10739042Y25636941D01*
X-10789237Y25550000D01*
X-10834527Y25471556D01*
X-10893542Y25289928D01*
X-10913504Y25100000D01*
X-28610710Y25100000D01*
X-28576412Y25182802D01*
X-28520983Y25413683D01*
X-28502353Y25650396D01*
X-28508374Y25726898D01*
X-28501092Y25779545D01*
X-28472437Y25824307D01*
X-28427675Y25852962D01*
X-28375027Y25860244D01*
X-28131792Y25841101D01*
X-27895079Y25859731D01*
X-27664198Y25915160D01*
X-27444827Y26006027D01*
X-27242377Y26130089D01*
X-27061823Y26284297D01*
X-26907615Y26464851D01*
X-26783553Y26667301D01*
X-26783545Y26667319D01*
X-26752002Y26743472D01*
X-26692686Y26886672D01*
X-26637257Y27117553D01*
X-26618627Y27354266D01*
X-26624648Y27430769D01*
X-26617366Y27483416D01*
X-26588711Y27528178D01*
X-26543949Y27556833D01*
X-26491301Y27564115D01*
X-26248065Y27544972D01*
X-26011352Y27563602D01*
X-25780471Y27619031D01*
X-25565477Y27708085D01*
X-25561102Y27709897D01*
X-25561100Y27709898D01*
X-25358650Y27833960D01*
X-25178096Y27988168D01*
X-25023888Y28168722D01*
X-24899826Y28371172D01*
X-24808959Y28590543D01*
X-24753530Y28821424D01*
X-24734900Y29058137D01*
X-24740921Y29134639D01*
X-24733639Y29187286D01*
X-24704984Y29232048D01*
X-24660222Y29260703D01*
X-24607574Y29267985D01*
X-24364338Y29248842D01*
X-24127625Y29267472D01*
X-23896744Y29322901D01*
X-23677491Y29413719D01*
X-23677375Y29413767D01*
X-23677373Y29413768D01*
X-23474923Y29537830D01*
X-23294369Y29692038D01*
X-23140161Y29872592D01*
X-23016099Y30075042D01*
X-22925232Y30294413D01*
X-22869803Y30525294D01*
X-22851173Y30762007D01*
X-22857194Y30838509D01*
X-22849912Y30891156D01*
X-22821257Y30935918D01*
X-22776495Y30964573D01*
X-22723847Y30971855D01*
X-22480611Y30952712D01*
X-22243898Y30971342D01*
X-22013017Y31026771D01*
X-21798180Y31115760D01*
X-21793648Y31117637D01*
X-21793646Y31117638D01*
X-21591196Y31241700D01*
X-21410642Y31395908D01*
X-21256434Y31576462D01*
X-21132372Y31778912D01*
X-21041505Y31998283D01*
X-20986076Y32229164D01*
X-20981138Y32291914D01*
X-20967446Y32465877D01*
X-20986076Y32702588D01*
X-20987630Y32709060D01*
X-21041505Y32933470D01*
X-21115997Y33113309D01*
X-21132371Y33152840D01*
X-21256435Y33355293D01*
X-21410642Y33535846D01*
X-21591195Y33690053D01*
X-21793648Y33814117D01*
X-22013017Y33904982D01*
X-22243900Y33960412D01*
X-22480611Y33979042D01*
X-22557117Y33973020D01*
X-22609760Y33980302D01*
X-22654523Y34008956D01*
X-22683178Y34053719D01*
X-22690460Y34106367D01*
X-22681483Y34220434D01*
X-22671317Y34349604D01*
X-22689947Y34586315D01*
X-22706221Y34654103D01*
X-22745376Y34817197D01*
X-22835762Y35035407D01*
X-22836242Y35036567D01*
X-22960306Y35239020D01*
X-23114513Y35419573D01*
X-23295066Y35573780D01*
X-23497519Y35697844D01*
X-23716888Y35788709D01*
X-23947771Y35844139D01*
X-24184482Y35862769D01*
X-24421193Y35844139D01*
X-24652076Y35788709D01*
X-24871445Y35697844D01*
X-25073898Y35573780D01*
X-25254451Y35419573D01*
X-25408658Y35239020D01*
X-25532722Y35036567D01*
X-25623587Y34817198D01*
X-25679017Y34586315D01*
X-25697647Y34349604D01*
X-25691625Y34273097D01*
X-25698907Y34220455D01*
X-25727562Y34175692D01*
X-25772324Y34147037D01*
X-25824972Y34139755D01*
X-25831494Y34140268D01*
X-25831497Y34140269D01*
X-26068208Y34158899D01*
X-26304919Y34140269D01*
X-26535802Y34084839D01*
X-26755171Y33993974D01*
X-26957624Y33869910D01*
X-27138177Y33715703D01*
X-27292384Y33535150D01*
X-27416448Y33332697D01*
X-27507313Y33113328D01*
X-27562743Y32882445D01*
X-27581373Y32645734D01*
X-27575351Y32569226D01*
X-27582633Y32516584D01*
X-27611288Y32471821D01*
X-27656050Y32443166D01*
X-27708698Y32435884D01*
X-27715221Y32436397D01*
X-27715224Y32436398D01*
X-27951935Y32455028D01*
X-28188646Y32436398D01*
X-28419529Y32380968D01*
X-28638898Y32290103D01*
X-28841351Y32166039D01*
X-29021904Y32011832D01*
X-29176111Y31831279D01*
X-29300175Y31628826D01*
X-29391040Y31409457D01*
X-29446470Y31178574D01*
X-29465100Y30941863D01*
X-29459078Y30865356D01*
X-29466360Y30812714D01*
X-29495015Y30767951D01*
X-29539777Y30739296D01*
X-29592425Y30732014D01*
X-29598948Y30732527D01*
X-29598951Y30732528D01*
X-29835662Y30751158D01*
X-30072373Y30732528D01*
X-30303256Y30677098D01*
X-30522625Y30586233D01*
X-30725078Y30462169D01*
X-30905631Y30307962D01*
X-31059838Y30127409D01*
X-31183902Y29924956D01*
X-31274767Y29705587D01*
X-31330197Y29474704D01*
X-31348827Y29237993D01*
X-31342805Y29161486D01*
X-31350087Y29108844D01*
X-31378742Y29064081D01*
X-31423504Y29035426D01*
X-31476152Y29028144D01*
X-31482675Y29028657D01*
X-31482678Y29028658D01*
X-31719389Y29047288D01*
X-31956100Y29028658D01*
X-32186983Y28973228D01*
X-32406352Y28882363D01*
X-32608805Y28758299D01*
X-32789358Y28604092D01*
X-32943565Y28423539D01*
X-33067629Y28221086D01*
X-33158494Y28001717D01*
X-33213924Y27770834D01*
X-33232554Y27534123D01*
X-33213924Y27297412D01*
X-33161456Y27078866D01*
X-33158493Y27066526D01*
X-33142997Y27029114D01*
X-33135242Y26961294D01*
X-33164556Y26899646D01*
X-33222054Y26862854D01*
X-33290311Y26862066D01*
X-33348643Y26897522D01*
X-33348659Y26897539D01*
X-35033211Y28721134D01*
X-35927588Y29689333D01*
X-35937084Y29700951D01*
X-36031506Y29831905D01*
X-36045963Y29858142D01*
X-36051758Y29872544D01*
X-36104945Y30004736D01*
X-36112687Y30033672D01*
X-36134795Y30190133D01*
X-36135373Y30220082D01*
X-36119316Y30377280D01*
X-36112695Y30406495D01*
X-36059408Y30555257D01*
X-36045974Y30582031D01*
X-35955915Y30717670D01*
X-35946894Y30729623D01*
X-35666483Y31057870D01*
X-35516206Y31233781D01*
X-35513868Y31236439D01*
X-34734055Y32097776D01*
X-34734053Y32097776D01*
X-34734054Y32097777D01*
X-34600276Y32245326D01*
X-34599652Y32246009D01*
X-34597537Y32248307D01*
X-34595787Y32250169D01*
X-33916327Y32958557D01*
X-33916224Y32958665D01*
X-33648064Y33237570D01*
X-33645659Y33240003D01*
X-33002352Y33873158D01*
X-33002203Y33873304D01*
X-32668997Y34200149D01*
X-32666566Y34202470D01*
X-32037762Y34786680D01*
X-32037565Y34786863D01*
X-31662448Y35133869D01*
X-31659994Y35136079D01*
X-31035660Y35683502D01*
X-31035414Y35683717D01*
X-30629210Y36037989D01*
X-30626738Y36040089D01*
X-30001993Y36556829D01*
X-30001695Y36557075D01*
X-29570151Y36911754D01*
X-29567665Y36913743D01*
X-28939496Y37403555D01*
X-28939144Y37403829D01*
X-28486257Y37754351D01*
X-28483762Y37756232D01*
X-27850260Y38221506D01*
X-27849852Y38221805D01*
X-27378348Y38565148D01*
X-27375849Y38566921D01*
X-26736029Y39009053D01*
X-26735563Y39009373D01*
X-26247376Y39343446D01*
X-26244875Y39345113D01*
X-25598378Y39764884D01*
X-25597854Y39765223D01*
X-25094307Y40088583D01*
X-25091809Y40090145D01*
X-24438235Y40488241D01*
X-24437650Y40488596D01*
X-23920097Y40799939D01*
X-23917607Y40801397D01*
X-23256818Y41178247D01*
X-23256170Y41178614D01*
X-22725764Y41476902D01*
X-22723285Y41478259D01*
X-22055381Y41834084D01*
X-22054671Y41834460D01*
X-21512361Y42118881D01*
X-21509896Y42120139D01*
X-20865684Y42439880D01*
X-20852240Y42445592D01*
X-20728611Y42489719D01*
X-20701900Y42496027D01*
X-20576296Y42511299D01*
X-20548848Y42511575D01*
X-20422962Y42498836D01*
X-20396125Y42493066D01*
X-20335799Y42472895D01*
X-20276130Y42452943D01*
X-20251219Y42441409D01*
X-20142994Y42375868D01*
X-20121232Y42359137D01*
X-20042573Y42283416D01*
X-20025088Y42266584D01*
X-20015734Y42256523D01*
X-11468542Y31974186D01*
X-8674435Y28612854D01*
X-8670067Y28607281D01*
X-8482937Y28353972D01*
X-8475173Y28342097D01*
X-8410836Y28230190D01*
X-8394349Y28166570D01*
X-8412692Y28103461D01*
X-8460709Y28058589D01*
X-8591124Y27990143D01*
X-8715365Y27880075D01*
X-8809654Y27743473D01*
X-8868513Y27588276D01*
X-8888520Y27423502D01*
X-8868513Y27258728D01*
X-8809654Y27103531D01*
X-8734009Y26993939D01*
X-8714566Y26948305D01*
X-8714566Y26898699D01*
X-8734009Y26853064D01*
X-8809654Y26743473D01*
X-8868513Y26588276D01*
X-8888520Y26423502D01*
X-8868513Y26258728D01*
X-8850060Y26210072D01*
X-8809654Y26103530D01*
X-8767192Y26042014D01*
X-8715365Y25966929D01*
X-8715363Y25966927D01*
X-8591126Y25856862D01*
X-8444151Y25779724D01*
X-8367052Y25760721D01*
X-8319482Y25737325D01*
X-8286030Y25696201D01*
X-8272810Y25644865D01*
X-8282237Y25592700D01*
X-8300000Y25550000D01*
X-9100000Y23900000D01*
X-7268475Y23810657D01*
X-7268473Y23810657D01*
X-7050001Y23800000D01*
X-7050000Y23800000D01*
X-5000000Y23700000D01*
X-5000000Y31737229D01*
X-4997487Y31762065D01*
X-4985834Y31819066D01*
X-4966342Y31864750D01*
X-4940538Y31902071D01*
X-4904681Y31936440D01*
X-4866300Y31960641D01*
X-4819828Y31978183D01*
X-4774351Y31985488D01*
X-4726002Y31983694D01*
X-4676874Y31972013D01*
X-4633961Y31952618D01*
X-4592175Y31923068D01*
X-4559588Y31889071D01*
X-4531831Y31846065D01*
X-4514273Y31802371D01*
X-4509720Y31778831D01*
X-4502256Y31740238D01*
X-4500000Y31716693D01*
X-4500000Y30078800D01*
X-3600009Y30078800D01*
X-3600000Y30078799D01*
X-3599991Y30078800D01*
X-2700000Y30078800D01*
X-2700000Y31716693D01*
X-2697744Y31740240D01*
X-2685727Y31802371D01*
X-2668167Y31846068D01*
X-2640412Y31889070D01*
X-2607824Y31923068D01*
X-2566038Y31952618D01*
X-2523124Y31972013D01*
X-2473964Y31983701D01*
X-2425677Y31985504D01*
X-2379962Y31978184D01*
X-2333583Y31960730D01*
X-2294934Y31936439D01*
X-2259098Y31902224D01*
X-2233046Y31864740D01*
X-2213468Y31819225D01*
X-2201572Y31762028D01*
X-2198975Y31737262D01*
X-2186784Y28610140D01*
X-2175051Y25600662D01*
X-2171149Y24600000D01*
X-1000000Y26100000D01*
X-1000000Y26400000D01*
X3186496Y26400000D01*
X3206458Y26210070D01*
X3265472Y26028443D01*
X3360957Y25863058D01*
X3488748Y25721133D01*
X3643248Y25608881D01*
X3817714Y25531204D01*
X4004511Y25491500D01*
X4004513Y25491500D01*
X4195487Y25491500D01*
X4195489Y25491500D01*
X4382285Y25531204D01*
X4556751Y25608881D01*
X4623016Y25657026D01*
X4711253Y25721134D01*
X4836046Y25859731D01*
X4839042Y25863058D01*
X4934527Y26028443D01*
X4971402Y26141932D01*
X4993542Y26210072D01*
X5013504Y26400000D01*
X4993542Y26589928D01*
X4934527Y26771556D01*
X4890830Y26847241D01*
X4839042Y26936941D01*
X4839041Y26936941D01*
X4839040Y26936944D01*
X4711253Y27078866D01*
X4699369Y27087500D01*
X12748979Y27087500D01*
X12768987Y26922725D01*
X12827845Y26767528D01*
X12922136Y26630925D01*
X13046373Y26520860D01*
X13193348Y26443722D01*
X13314786Y26413790D01*
X13354508Y26404000D01*
X13520491Y26404000D01*
X13520492Y26404000D01*
X13599614Y26423502D01*
X13681651Y26443722D01*
X13720736Y26464235D01*
X13828624Y26520859D01*
X13828626Y26520860D01*
X13952863Y26630925D01*
X13952865Y26630927D01*
X14030549Y26743472D01*
X14047154Y26767528D01*
X14096454Y26897522D01*
X14106013Y26922726D01*
X14126020Y27087500D01*
X14106013Y27252274D01*
X14047154Y27407471D01*
X13952865Y27544073D01*
X13828624Y27654141D01*
X13681653Y27731277D01*
X13520492Y27771000D01*
X13354508Y27771000D01*
X13193347Y27731277D01*
X13046376Y27654141D01*
X13046374Y27654139D01*
X13046373Y27654139D01*
X12923150Y27544972D01*
X12922135Y27544073D01*
X12911164Y27528178D01*
X12827845Y27407471D01*
X12768987Y27252274D01*
X12748979Y27087500D01*
X4699369Y27087500D01*
X4556752Y27191118D01*
X4382288Y27268794D01*
X4382286Y27268794D01*
X4382285Y27268795D01*
X4195489Y27308500D01*
X4195487Y27308500D01*
X4004513Y27308500D01*
X4004511Y27308500D01*
X3817714Y27268795D01*
X3817712Y27268794D01*
X3643248Y27191118D01*
X3488747Y27078866D01*
X3412281Y26993942D01*
X3360957Y26936941D01*
X3265472Y26771556D01*
X3206458Y26589929D01*
X3186496Y26400000D01*
X-1000000Y26400000D01*
X-1000000Y28367500D01*
X-983387Y28429500D01*
X-938000Y28474887D01*
X-876000Y28491500D01*
X-704511Y28491500D01*
X-517714Y28531204D01*
X-343248Y28608881D01*
X-188748Y28721133D01*
X-60957Y28863058D01*
X34527Y29028443D01*
X77757Y29161492D01*
X93542Y29210072D01*
X113504Y29400000D01*
X93542Y29589928D01*
X34527Y29771556D01*
X34526Y29771556D01*
X-60957Y29936941D01*
X-122000Y30004736D01*
X-188747Y30078866D01*
X-343248Y30191118D01*
X-403741Y30218051D01*
X-517714Y30268795D01*
X-704511Y30308500D01*
X-704513Y30308500D01*
X-876000Y30308500D01*
X-938000Y30325113D01*
X-983387Y30370500D01*
X-1000000Y30432500D01*
X-1000000Y31049996D01*
X-1000000Y31050000D01*
X-1000000Y33600000D01*
X-6100000Y33600000D01*
X-6100000Y31050606D01*
X-6100246Y31047552D01*
X-6118411Y30867101D01*
X-6123358Y30842774D01*
X-6174155Y30679124D01*
X-6183854Y30656267D01*
X-6222264Y30586231D01*
X-6266244Y30506036D01*
X-6280306Y30485565D01*
X-6390991Y30354761D01*
X-6408841Y30337515D01*
X-6543374Y30231396D01*
X-6564305Y30218051D01*
X-6684380Y30157477D01*
X-6717289Y30140875D01*
X-6740470Y30131966D01*
X-6905762Y30086829D01*
X-6930242Y30082721D01*
X-7101220Y30071433D01*
X-7126034Y30072286D01*
X-7295836Y30095302D01*
X-7319975Y30101083D01*
X-7350399Y30111687D01*
X-7481771Y30157477D01*
X-7504288Y30167959D01*
X-7651595Y30255464D01*
X-7671572Y30270225D01*
X-7803115Y30389534D01*
X-7811896Y30398340D01*
X-11781250Y34800000D01*
X-1355659Y34800000D01*
X-1335063Y34564592D01*
X-1273903Y34336337D01*
X-1174035Y34122171D01*
X-1060771Y33960412D01*
X-1038494Y33928598D01*
X-871401Y33761505D01*
X-677829Y33625965D01*
X-463663Y33526097D01*
X-235407Y33464936D01*
X-58968Y33449500D01*
X-58966Y33449500D01*
X58966Y33449500D01*
X58968Y33449500D01*
X235407Y33464936D01*
X463663Y33526097D01*
X677829Y33625965D01*
X871401Y33761505D01*
X1038491Y33928595D01*
X1038495Y33928599D01*
X1174035Y34122170D01*
X1273903Y34336337D01*
X1335063Y34564592D01*
X1355659Y34800000D01*
X1335063Y35035408D01*
X1273903Y35263663D01*
X1174035Y35477829D01*
X1038495Y35671401D01*
X871401Y35838495D01*
X677829Y35974035D01*
X463663Y36073903D01*
X235408Y36135063D01*
X176594Y36140208D01*
X58968Y36150500D01*
X58966Y36150500D01*
X-58966Y36150500D01*
X-58968Y36150500D01*
X-176594Y36140208D01*
X-235408Y36135063D01*
X-463663Y36073903D01*
X-677829Y35974035D01*
X-871401Y35838495D01*
X-1038495Y35671401D01*
X-1174035Y35477830D01*
X-1273903Y35263663D01*
X-1335063Y35035408D01*
X-1355659Y34800000D01*
X-11781250Y34800000D01*
X-15933291Y39404244D01*
X-15938515Y39410431D01*
X-15945401Y39419150D01*
X-16008269Y39498753D01*
X-16032125Y39549256D01*
X-16031396Y39605107D01*
X-16006229Y39654973D01*
X-15961730Y39688733D01*
X-15190803Y40034733D01*
X-14177853Y40489354D01*
X-14125264Y40520094D01*
X-14021195Y40622812D01*
X-13950282Y40750686D01*
X-13918266Y40893361D01*
X-13927744Y41039273D01*
X-13929000Y41043131D01*
X-13946603Y41097196D01*
X-14093138Y41423693D01*
X14230614Y41423693D01*
X14250916Y41178680D01*
X14311270Y40940350D01*
X14410027Y40715204D01*
X14544494Y40509389D01*
X14711007Y40328506D01*
X14905019Y40177501D01*
X14905021Y40177500D01*
X15069334Y40088578D01*
X15121246Y40060485D01*
X15353770Y39980659D01*
X15596273Y39940193D01*
X15842125Y39940193D01*
X16084627Y39980659D01*
X16317151Y40060485D01*
X16317152Y40060485D01*
X16317156Y40060487D01*
X16533377Y40177500D01*
X16727390Y40328506D01*
X16893901Y40509386D01*
X16968006Y40622811D01*
X17028370Y40715204D01*
X17127127Y40940350D01*
X17187481Y41178680D01*
X17207784Y41423693D01*
X17187481Y41668705D01*
X17167527Y41747499D01*
X17127127Y41907035D01*
X17028370Y42132181D01*
X16893901Y42338000D01*
X16727390Y42518880D01*
X16533377Y42669886D01*
X16317156Y42786899D01*
X16084625Y42866727D01*
X15842125Y42907193D01*
X15596273Y42907193D01*
X15353773Y42866727D01*
X15121242Y42786899D01*
X14905021Y42669886D01*
X14711008Y42518880D01*
X14544497Y42338000D01*
X14544495Y42337997D01*
X14544494Y42337996D01*
X14410027Y42132181D01*
X14311270Y41907035D01*
X14250916Y41668705D01*
X14230614Y41423693D01*
X-14093138Y41423693D01*
X-14784883Y42964982D01*
X-14815622Y43017569D01*
X-14918339Y43121637D01*
X-14918340Y43121638D01*
X-15046214Y43192551D01*
X-15188889Y43224567D01*
X-15334804Y43215089D01*
X-15392724Y43196231D01*
X-17260510Y42357951D01*
X-17313097Y42327212D01*
X-17313099Y42327210D01*
X-17345294Y42295433D01*
X-17394623Y42265579D01*
X-17452121Y42261262D01*
X-17505355Y42283416D01*
X-17542815Y42327250D01*
X-18051129Y43321777D01*
X-18058891Y43340657D01*
X-18081792Y43412722D01*
X-18087098Y43449605D01*
X-10163907Y43449605D01*
X-10143605Y43204592D01*
X-10083251Y42966262D01*
X-9984494Y42741116D01*
X-9881268Y42583118D01*
X-9850025Y42535298D01*
X-9683514Y42354418D01*
X-9489501Y42203412D01*
X-9273280Y42086399D01*
X-9273276Y42086397D01*
X-9273275Y42086397D01*
X-9040751Y42006571D01*
X-8798249Y41966105D01*
X-8552397Y41966105D01*
X-8309894Y42006571D01*
X-8077370Y42086397D01*
X-7979881Y42139155D01*
X-7861145Y42203412D01*
X-7861143Y42203413D01*
X-7667131Y42354418D01*
X-7500618Y42535301D01*
X-7366151Y42741116D01*
X-7267394Y42966262D01*
X-7207040Y43204592D01*
X-7186738Y43449605D01*
X-7207040Y43694617D01*
X-7267394Y43932947D01*
X-7366151Y44158093D01*
X-7500618Y44363908D01*
X-7500619Y44363909D01*
X-7500621Y44363912D01*
X-7667132Y44544792D01*
X-7861145Y44695798D01*
X-8077366Y44812811D01*
X-8309897Y44892639D01*
X-8552397Y44933105D01*
X-8798249Y44933105D01*
X-9040749Y44892639D01*
X-9273280Y44812811D01*
X-9489501Y44695798D01*
X-9683514Y44544792D01*
X-9850025Y44363912D01*
X-9984494Y44158093D01*
X-10083251Y43932947D01*
X-10143605Y43694618D01*
X-10158847Y43510676D01*
X-10163907Y43449605D01*
X-18087098Y43449605D01*
X-18087586Y43452994D01*
X-18086156Y43518219D01*
X-18078602Y43558202D01*
X-18056136Y43619451D01*
X-18036048Y43654832D01*
X-17994966Y43705514D01*
X-17964505Y43732491D01*
X-17900435Y43772660D01*
X-17882307Y43782043D01*
X-17767506Y43829932D01*
X-17765107Y43830904D01*
X-17070223Y44103887D01*
X-17069252Y44104263D01*
X-16487916Y44327021D01*
X-16485545Y44327902D01*
X-15784873Y44580125D01*
X-15783836Y44580493D01*
X-15194460Y44786759D01*
X-15192121Y44787552D01*
X-14492458Y45016882D01*
X-5339046Y45016882D01*
X-5337005Y44956004D01*
X-5050062Y42928937D01*
X-5043806Y42904202D01*
X-5035127Y42869883D01*
X-4965329Y42741395D01*
X-4862159Y42637775D01*
X-4733979Y42567419D01*
X-4591160Y42536025D01*
X-4530289Y42538066D01*
X-4212006Y42583121D01*
X7060953Y42583121D01*
X7092347Y42440302D01*
X7162703Y42312122D01*
X7266323Y42208952D01*
X7394811Y42139154D01*
X7453861Y42124221D01*
X7453865Y42124220D01*
X8284979Y42006571D01*
X9480935Y41837276D01*
X9541806Y41835235D01*
X9684625Y41866629D01*
X9812805Y41936985D01*
X9915975Y42040605D01*
X9985773Y42169093D01*
X9994452Y42203412D01*
X10000708Y42228147D01*
X10287651Y44255214D01*
X10289692Y44316092D01*
X10258299Y44458905D01*
X10187942Y44587088D01*
X10084323Y44690257D01*
X9955834Y44760055D01*
X9896781Y44774990D01*
X7869714Y45061933D01*
X7834926Y45063099D01*
X7808839Y45063974D01*
X7808838Y45063973D01*
X7808836Y45063974D01*
X7666023Y45032581D01*
X7666021Y45032580D01*
X7666020Y45032580D01*
X7537840Y44962224D01*
X7434670Y44858604D01*
X7364872Y44730116D01*
X7356193Y44695796D01*
X7349938Y44671063D01*
X7206085Y43654832D01*
X7062994Y42643992D01*
X7060953Y42583121D01*
X-4212006Y42583121D01*
X-3198726Y42726557D01*
X-2503219Y42825010D01*
X-2503215Y42825011D01*
X-2444165Y42839944D01*
X-2315677Y42909742D01*
X-2212057Y43012912D01*
X-2141701Y43141092D01*
X-2110307Y43283911D01*
X-2112348Y43344782D01*
X-2226387Y44150395D01*
X2236092Y44150395D01*
X2256394Y43905382D01*
X2316748Y43667052D01*
X2415505Y43441906D01*
X2549972Y43236091D01*
X2716485Y43055208D01*
X2910497Y42904203D01*
X2910499Y42904202D01*
X3029235Y42839945D01*
X3126724Y42787187D01*
X3359248Y42707361D01*
X3601751Y42666895D01*
X3847603Y42666895D01*
X4090105Y42707361D01*
X4322629Y42787187D01*
X4322630Y42787187D01*
X4322634Y42787189D01*
X4538855Y42904202D01*
X4732868Y43055208D01*
X4899379Y43236088D01*
X4930622Y43283908D01*
X5033848Y43441906D01*
X5132605Y43667052D01*
X5192959Y43905382D01*
X5213261Y44150395D01*
X5203700Y44265783D01*
X5192959Y44395408D01*
X5132605Y44633737D01*
X5033848Y44858883D01*
X4899379Y45064702D01*
X4732868Y45245582D01*
X4538855Y45396588D01*
X4322634Y45513601D01*
X4090103Y45593429D01*
X3847603Y45633895D01*
X3601751Y45633895D01*
X3359251Y45593429D01*
X3126720Y45513601D01*
X2910499Y45396588D01*
X2716486Y45245582D01*
X2549975Y45064702D01*
X2549973Y45064699D01*
X2549972Y45064698D01*
X2415505Y44858883D01*
X2316748Y44633737D01*
X2256394Y44395407D01*
X2236092Y44150395D01*
X-2226387Y44150395D01*
X-2256612Y44363912D01*
X-2399292Y45371853D01*
X-2405547Y45396586D01*
X-2414226Y45430906D01*
X-2484024Y45559394D01*
X-2587194Y45663014D01*
X-2715374Y45733370D01*
X-2715375Y45733370D01*
X-2715377Y45733371D01*
X-2858190Y45764764D01*
X-2858192Y45764763D01*
X-2858193Y45764764D01*
X-2884280Y45763889D01*
X-2919068Y45762723D01*
X-4946135Y45475780D01*
X-5005188Y45460845D01*
X-5133677Y45391047D01*
X-5237296Y45287878D01*
X-5307653Y45159695D01*
X-5339046Y45016882D01*
X-14492458Y45016882D01*
X-14485908Y45019029D01*
X-14484804Y45019385D01*
X-13888226Y45208762D01*
X-13885921Y45209469D01*
X-13174645Y45420129D01*
X-13173474Y45420470D01*
X-12570304Y45592677D01*
X-12568038Y45593300D01*
X-11852136Y45783094D01*
X-11850897Y45783416D01*
X-11241887Y45938162D01*
X-11239662Y45938706D01*
X-10519372Y46107626D01*
X-10518066Y46107924D01*
X-9903992Y46244955D01*
X-9901811Y46245422D01*
X-9177922Y46393339D01*
X-9176550Y46393611D01*
X-8557708Y46512808D01*
X-8555571Y46513200D01*
X-7828487Y46640079D01*
X-7827050Y46640321D01*
X-7204325Y46741460D01*
X-7202237Y46741781D01*
X-6472370Y46847592D01*
X-6470867Y46847801D01*
X-5844913Y46930742D01*
X-5842875Y46930994D01*
X-5110720Y47015696D01*
X-5109153Y47015868D01*
X-4480622Y47080492D01*
X-4478637Y47080680D01*
X-3744630Y47144245D01*
X-3742999Y47144375D01*
X-3112555Y47190597D01*
X-3110625Y47190723D01*
X-2375378Y47233110D01*
X-2373684Y47233196D01*
X-1742058Y47260950D01*
X-1740185Y47261019D01*
X-1004025Y47282221D01*
X-1002270Y47282259D01*
X-369980Y47291516D01*
X-368165Y47291529D01*
X368164Y47291529D01*
X369979Y47291516D01*
G37*
G04 #@! TD.AperFunction*
M02*
