M48
; DRILL file {KiCad 7.0.1-3b83917a11~172~ubuntu22.04.1} date vr 11 aug 2023 16:57:46
; FORMAT={-:-/ absolute / metric / decimal}
; #@! TF.CreationDate,2023-08-11T16:57:46+02:00
; #@! TF.GenerationSoftware,Kicad,Pcbnew,7.0.1-3b83917a11~172~ubuntu22.04.1
; #@! TF.FileFunction,Plated,1,4,PTH
FMAT,2
METRIC
; #@! TA.AperFunction,Plated,PTH,ViaDrill
T1C0.200
; #@! TA.AperFunction,Plated,PTH,ViaDrill
T2C0.400
; #@! TA.AperFunction,Plated,PTH,ComponentDrill
T3C0.500
; #@! TA.AperFunction,Plated,PTH,ComponentDrill
T4C0.700
; #@! TA.AperFunction,Plated,PTH,ComponentDrill
T5C0.850
; #@! TA.AperFunction,Plated,PTH,ComponentDrill
T6C1.300
%
G90
G05
T1
X-8.2Y27.424
X-8.2Y26.424
X-7.107Y25.977
X-6.2Y19.1
X-6.1Y20.4
X-5.0Y20.4
X-4.875Y18.274
X-4.75Y31.8
X-4.75Y31.2
X-4.75Y30.6
X-4.75Y30.0
X-4.75Y29.3
X-4.75Y28.679
X-4.7Y26.579
X-4.5Y28.079
X-4.5Y27.179
X-4.15Y26.58
X-4.1Y20.5
X-3.782Y19.425
X-3.6Y26.579
X-3.1Y26.579
X-3.1Y20.5
X-2.7Y28.079
X-2.7Y27.179
X-2.46Y29.35
X-2.45Y28.679
X-2.45Y26.579
X-2.44Y31.8
X-2.44Y31.2
X-2.44Y30.6
X-2.44Y30.0
X-2.317Y19.425
X-1.9Y20.5
X-0.6Y23.2
X-0.6Y22.5
X-0.6Y21.3
X-0.512Y19.788
X0.2Y21.424
X0.2Y20.424
X0.2Y19.424
X0.252Y22.424
X1.0Y18.5
X13.438Y27.087
X14.65Y23.75
T2
X-32.7Y4.3
X-32.5Y-0.5
X-31.7Y-6.4
X-30.827Y8.503
X-29.3Y-4.9
X-25.8Y-6.488
X-24.8Y-4.4
X-23.3Y-10.388
X-22.2Y7.0
X-20.8Y9.649
X-20.7Y4.2
X-18.35Y-4.753
X-10.0Y25.1
X-6.188Y28.212
X-3.6Y23.2
X-2.873Y-9.827
X-1.8Y-6.5
X-1.7Y-14.215
X-1.506Y18.124
X-0.8Y29.4
X-0.6Y-17.75
X-0.024Y10.398
X1.8Y17.5
X2.1Y-8.6
X2.125Y28.424
X2.622Y23.477
X3.3Y1.8
X4.1Y26.4
X4.1Y18.244
X5.5Y9.6
X22.4Y-4.0
T4
X-30.649Y-3.959
X-29.551Y-9.041
T5
X7.62Y1.27
X7.62Y-1.27
X10.16Y1.27
X10.16Y-1.27
X10.2Y-7.7
X12.7Y1.27
X12.7Y-1.27
X15.24Y1.27
X15.24Y-1.27
X17.78Y1.27
X17.78Y-1.27
T6
X-31.719Y27.534
X-30.016Y25.65
X-29.836Y29.238
X-28.132Y27.354
X-27.952Y30.942
X-26.248Y29.058
X-26.068Y32.646
X-24.364Y30.762
X-24.184Y34.35
X-22.481Y32.466
X-20.281Y39.376
X-15.719Y41.424
X-8.675Y43.45
X-5.08Y-26.67
X-5.08Y-29.21
X-3.725Y44.15
X-2.54Y-26.67
X-2.54Y-29.21
X0.0Y-26.67
X0.0Y-29.21
X2.54Y-26.67
X2.54Y-29.21
X3.725Y44.15
X5.08Y-26.67
X5.08Y-29.21
X8.675Y43.45
X15.719Y41.424
X20.281Y39.376
X22.481Y32.466
X24.184Y34.35
X24.364Y30.762
X26.068Y32.646
X26.248Y29.058
X27.952Y30.942
X28.132Y27.354
X29.836Y29.238
X30.016Y25.65
X31.719Y27.534
T3
X-33.841Y-3.625G85X-33.059Y-3.456
G05
X-32.321Y-10.663G85X-31.539Y-10.494
G05
T0
M30
