G04 #@! TF.GenerationSoftware,KiCad,Pcbnew,7.0.1-3b83917a11~172~ubuntu22.04.1*
G04 #@! TF.CreationDate,2023-08-11T16:57:34+02:00*
G04 #@! TF.ProjectId,io_coupling_MCU_enhanced,696f5f63-6f75-4706-9c69-6e675f4d4355,rev?*
G04 #@! TF.SameCoordinates,Original*
G04 #@! TF.FileFunction,Paste,Top*
G04 #@! TF.FilePolarity,Positive*
%FSLAX46Y46*%
G04 Gerber Fmt 4.6, Leading zero omitted, Abs format (unit mm)*
G04 Created by KiCad (PCBNEW 7.0.1-3b83917a11~172~ubuntu22.04.1) date 2023-08-11 16:57:34*
%MOMM*%
%LPD*%
G01*
G04 APERTURE LIST*
G04 Aperture macros list*
%AMRoundRect*
0 Rectangle with rounded corners*
0 $1 Rounding radius*
0 $2 $3 $4 $5 $6 $7 $8 $9 X,Y pos of 4 corners*
0 Add a 4 corners polygon primitive as box body*
4,1,4,$2,$3,$4,$5,$6,$7,$8,$9,$2,$3,0*
0 Add four circle primitives for the rounded corners*
1,1,$1+$1,$2,$3*
1,1,$1+$1,$4,$5*
1,1,$1+$1,$6,$7*
1,1,$1+$1,$8,$9*
0 Add four rect primitives between the rounded corners*
20,1,$1+$1,$2,$3,$4,$5,0*
20,1,$1+$1,$4,$5,$6,$7,0*
20,1,$1+$1,$6,$7,$8,$9,0*
20,1,$1+$1,$8,$9,$2,$3,0*%
G04 Aperture macros list end*
%ADD10C,0.010000*%
%ADD11RoundRect,0.262500X-0.262500X-0.837500X0.262500X-0.837500X0.262500X0.837500X-0.262500X0.837500X0*%
%ADD12RoundRect,0.250000X-0.250000X-0.275000X0.250000X-0.275000X0.250000X0.275000X-0.250000X0.275000X0*%
%ADD13RoundRect,0.242500X-0.257500X-0.242500X0.257500X-0.242500X0.257500X0.242500X-0.257500X0.242500X0*%
%ADD14RoundRect,0.200000X-1.110000X-0.200000X1.110000X-0.200000X1.110000X0.200000X-1.110000X0.200000X0*%
%ADD15RoundRect,0.200000X0.200000X0.275000X-0.200000X0.275000X-0.200000X-0.275000X0.200000X-0.275000X0*%
%ADD16RoundRect,0.200000X-0.200000X-0.275000X0.200000X-0.275000X0.200000X0.275000X-0.200000X0.275000X0*%
%ADD17RoundRect,0.250000X0.475000X-0.250000X0.475000X0.250000X-0.475000X0.250000X-0.475000X-0.250000X0*%
%ADD18RoundRect,0.225000X0.250000X-0.225000X0.250000X0.225000X-0.250000X0.225000X-0.250000X-0.225000X0*%
%ADD19RoundRect,0.200000X0.400000X0.200000X-0.400000X0.200000X-0.400000X-0.200000X0.400000X-0.200000X0*%
%ADD20RoundRect,0.225000X-0.250000X0.225000X-0.250000X-0.225000X0.250000X-0.225000X0.250000X0.225000X0*%
%ADD21R,0.620000X1.220000*%
%ADD22RoundRect,0.275000X0.428911X0.179680X-0.300293X0.355070X-0.428911X-0.179680X0.300293X-0.355070X0*%
%ADD23RoundRect,0.250000X0.313224X0.233218X-0.172912X0.350145X-0.313224X-0.233218X0.172912X-0.350145X0*%
%ADD24RoundRect,0.060000X-0.615000X0.240000X-0.615000X-0.240000X0.615000X-0.240000X0.615000X0.240000X0*%
%ADD25RoundRect,0.250000X-0.475000X0.250000X-0.475000X-0.250000X0.475000X-0.250000X0.475000X0.250000X0*%
%ADD26RoundRect,0.225000X-0.225000X-0.250000X0.225000X-0.250000X0.225000X0.250000X-0.225000X0.250000X0*%
%ADD27R,0.500000X0.500000*%
%ADD28R,0.500000X0.700000*%
%ADD29R,0.700000X0.500000*%
%ADD30RoundRect,0.075000X-0.075000X-0.275000X0.075000X-0.275000X0.075000X0.275000X-0.075000X0.275000X0*%
%ADD31RoundRect,0.250000X-0.450000X0.262500X-0.450000X-0.262500X0.450000X-0.262500X0.450000X0.262500X0*%
%ADD32R,0.600000X0.700000*%
%ADD33R,1.000000X0.700000*%
%ADD34RoundRect,0.075000X0.275000X-0.075000X0.275000X0.075000X-0.275000X0.075000X-0.275000X-0.075000X0*%
%ADD35RoundRect,0.200000X0.275000X-0.200000X0.275000X0.200000X-0.275000X0.200000X-0.275000X-0.200000X0*%
%ADD36RoundRect,0.250000X0.250000X0.250000X-0.250000X0.250000X-0.250000X-0.250000X0.250000X-0.250000X0*%
%ADD37RoundRect,0.218750X0.218750X0.256250X-0.218750X0.256250X-0.218750X-0.256250X0.218750X-0.256250X0*%
%ADD38RoundRect,0.152500X-0.152500X0.357500X-0.152500X-0.357500X0.152500X-0.357500X0.152500X0.357500X0*%
%ADD39RoundRect,0.075000X-0.675000X0.675000X-0.675000X-0.675000X0.675000X-0.675000X0.675000X0.675000X0*%
%ADD40RoundRect,0.152500X-0.152500X0.482500X-0.152500X-0.482500X0.152500X-0.482500X0.152500X0.482500X0*%
%ADD41RoundRect,0.445000X1.130000X-0.445000X1.130000X0.445000X-1.130000X0.445000X-1.130000X-0.445000X0*%
%ADD42RoundRect,0.250000X-0.250000X-0.475000X0.250000X-0.475000X0.250000X0.475000X-0.250000X0.475000X0*%
%ADD43RoundRect,0.250000X-0.250000X0.250000X-0.250000X-0.250000X0.250000X-0.250000X0.250000X0.250000X0*%
%ADD44RoundRect,0.100000X0.534279X0.013064X0.492065X0.208558X-0.534279X-0.013064X-0.492065X-0.208558X0*%
%ADD45RoundRect,0.250000X0.500000X-0.250000X0.500000X0.250000X-0.500000X0.250000X-0.500000X-0.250000X0*%
%ADD46RoundRect,0.200000X0.200000X-0.400000X0.200000X0.400000X-0.200000X0.400000X-0.200000X-0.400000X0*%
%ADD47RoundRect,0.212500X0.237500X-0.212500X0.237500X0.212500X-0.237500X0.212500X-0.237500X-0.212500X0*%
%ADD48RoundRect,0.112500X0.137500X-0.112500X0.137500X0.112500X-0.137500X0.112500X-0.137500X-0.112500X0*%
G04 APERTURE END LIST*
D10*
X-27457994Y-7738000D02*
X-27956000Y-7738000D01*
X-27956000Y-7139994D01*
X-27457994Y-7139994D01*
X-27457994Y-7738000D01*
G36*
X-27457994Y-7738000D02*
G01*
X-27956000Y-7738000D01*
X-27956000Y-7139994D01*
X-27457994Y-7139994D01*
X-27457994Y-7738000D01*
G37*
X-27456564Y-5738000D02*
X-27956000Y-5738000D01*
X-27956000Y-5136950D01*
X-27456564Y-5136950D01*
X-27456564Y-5738000D01*
G36*
X-27456564Y-5738000D02*
G01*
X-27956000Y-5738000D01*
X-27956000Y-5136950D01*
X-27456564Y-5136950D01*
X-27456564Y-5738000D01*
G37*
X-25554330Y-5738000D02*
X-26456000Y-5738000D01*
X-26456000Y-5136200D01*
X-25554330Y-5136200D01*
X-25554330Y-5738000D01*
G36*
X-25554330Y-5738000D02*
G01*
X-26456000Y-5738000D01*
X-26456000Y-5136200D01*
X-25554330Y-5136200D01*
X-25554330Y-5738000D01*
G37*
X-25554260Y-7738000D02*
X-26056000Y-7738000D01*
X-26056000Y-7139014D01*
X-25554260Y-7139014D01*
X-25554260Y-7738000D01*
G36*
X-25554260Y-7738000D02*
G01*
X-26056000Y-7738000D01*
X-26056000Y-7139014D01*
X-25554260Y-7139014D01*
X-25554260Y-7738000D01*
G37*
D11*
X-2125000Y30998800D03*
X-5075000Y30998800D03*
D12*
X-3600000Y29473800D03*
D13*
X-22465000Y-7200000D03*
X-23935000Y-7200000D03*
D14*
X7365000Y20184000D03*
X3485000Y20184000D03*
X7365000Y21454000D03*
X3485000Y21454000D03*
X7365000Y22724000D03*
X3485000Y22724000D03*
X7365000Y23994000D03*
X3485000Y23994000D03*
X7365000Y25264000D03*
X3485000Y25264000D03*
D15*
X19475000Y-4000000D03*
X21125000Y-4000000D03*
D16*
X5299000Y4459000D03*
X3649000Y4459000D03*
D17*
X3048000Y-17973000D03*
X3048000Y-19873000D03*
D18*
X2925000Y28199000D03*
X2925000Y26649000D03*
D16*
X-18675000Y-5400000D03*
X-20325000Y-5400000D03*
D19*
X-21952000Y8590000D03*
X-19952000Y9540000D03*
X-19952000Y7640000D03*
D17*
X5080000Y-17973000D03*
X5080000Y-19873000D03*
D20*
X-24216000Y-10388000D03*
X-24216000Y-8838000D03*
X-22311000Y-10388000D03*
X-22311000Y-8838000D03*
D21*
X-3109000Y-17750000D03*
X-2159000Y-17750000D03*
X-1209000Y-17750000D03*
X-1209000Y-20350000D03*
X-2159000Y-20350000D03*
X-3109000Y-20350000D03*
D22*
X-29508018Y9822668D03*
X-30747437Y4669626D03*
D23*
X-32376221Y10512534D03*
X-33615640Y5359492D03*
D24*
X3361000Y-7677000D03*
X3361000Y-9577000D03*
X991000Y-9577000D03*
X991000Y-8627000D03*
X991000Y-7677000D03*
D16*
X-30862000Y2700000D03*
X-32512000Y2700000D03*
D25*
X-3005000Y-14215000D03*
X-3005000Y-12315000D03*
D26*
X2850000Y-13900000D03*
X1300000Y-13900000D03*
D27*
X-5325000Y24924000D03*
X-4175000Y24924000D03*
X-3025000Y24924000D03*
X-1875000Y24924000D03*
X-4175000Y23774000D03*
X-3025000Y23774000D03*
X-5325000Y22624000D03*
X-4175000Y22624000D03*
X-3025000Y22624000D03*
X-1875000Y22624000D03*
X-4175000Y21474000D03*
X-3025000Y21474000D03*
X400000Y17549000D03*
X-600000Y17549000D03*
X-1600000Y17549000D03*
X-2600000Y17549000D03*
X-3600000Y17549000D03*
X-4600000Y17549000D03*
X-5600000Y17549000D03*
X-6600000Y17549000D03*
X-7600000Y17549000D03*
X-1950000Y20149000D03*
X-3050000Y20149000D03*
X-4150000Y20149000D03*
X-5250000Y20149000D03*
X-6350000Y20149000D03*
X-6350000Y21249000D03*
X-6350000Y22349000D03*
X-6350000Y23449000D03*
X-6350000Y24549000D03*
X-6350000Y25649000D03*
X-850000Y25649000D03*
X-850000Y24549000D03*
X-850000Y23449000D03*
X-850000Y22349000D03*
X-850000Y21249000D03*
X-850000Y20149000D03*
D28*
X-1600000Y18774000D03*
X-2600000Y18774000D03*
X-3600000Y18774000D03*
X-4600000Y18774000D03*
X-5600000Y18774000D03*
D29*
X-7725000Y18699000D03*
X-7725000Y19699000D03*
X-7725000Y20699000D03*
X-7725000Y21699000D03*
X-7725000Y22699000D03*
X-7725000Y23699000D03*
X-7725000Y24699000D03*
X-7725000Y25699000D03*
X-7725000Y26699000D03*
X-7725000Y27699000D03*
D28*
X-5600000Y27624000D03*
X-4600000Y27624000D03*
X-3600000Y27624000D03*
X-2600000Y27624000D03*
X-1600000Y27624000D03*
D29*
X525000Y27699000D03*
X525000Y26699000D03*
X525000Y25699000D03*
X525000Y24699000D03*
X525000Y23699000D03*
X525000Y22699000D03*
X525000Y21699000D03*
X525000Y20699000D03*
X525000Y19699000D03*
X525000Y18699000D03*
D30*
X15950000Y28589000D03*
X16600000Y28589000D03*
X17250000Y28589000D03*
X17250000Y26811000D03*
X16600000Y26811000D03*
X15950000Y26811000D03*
D15*
X2379000Y6364000D03*
X4029000Y6364000D03*
D16*
X-30775000Y800000D03*
X-32425000Y800000D03*
D31*
X-14000Y7356500D03*
X-14000Y9181500D03*
D32*
X-25806000Y-7438000D03*
X-27706000Y-7438000D03*
X-27706000Y-5438000D03*
D33*
X-26006000Y-5438000D03*
D34*
X12559500Y26437500D03*
X12559500Y27087500D03*
X12559500Y27737500D03*
X14337500Y27737500D03*
X14337500Y27087500D03*
X14337500Y26437500D03*
D19*
X-25000000Y6050000D03*
X-23000000Y7000000D03*
X-23000000Y5100000D03*
D35*
X14211000Y30825000D03*
X14211000Y29175000D03*
D36*
X2104000Y8269000D03*
X4304000Y8269000D03*
D16*
X17725000Y30100000D03*
X16075000Y30100000D03*
D35*
X11048500Y28112500D03*
X11048500Y26462500D03*
D37*
X1287500Y-11995000D03*
X2862500Y-11995000D03*
D38*
X8395000Y7695000D03*
X9665000Y7695000D03*
X10935000Y7695000D03*
X12205000Y7695000D03*
D39*
X10300000Y9800000D03*
D40*
X9665000Y13160000D03*
X10935000Y13160000D03*
X12205000Y13160000D03*
X8395000Y13160000D03*
D20*
X5300000Y-9275000D03*
X5300000Y-7725000D03*
D41*
X-3100000Y10315000D03*
X-3100000Y5085000D03*
D16*
X2124000Y4459000D03*
X474000Y4459000D03*
D42*
X-18350000Y-3600000D03*
X-20250000Y-3600000D03*
D43*
X6379000Y10979000D03*
X6379000Y13179000D03*
D16*
X20525000Y27200000D03*
X18875000Y27200000D03*
D44*
X-30374390Y-5229287D03*
X-30237195Y-5864644D03*
X-30100000Y-6500000D03*
X-29962805Y-7135356D03*
X-29825610Y-7770713D03*
D19*
X-21952000Y3256000D03*
X-19952000Y4206000D03*
X-19952000Y2306000D03*
D16*
X-30975000Y-1900000D03*
X-32625000Y-1900000D03*
D17*
X1016000Y-17973000D03*
X1016000Y-19873000D03*
D45*
X-3000000Y-7900000D03*
X-3000000Y-10800000D03*
D46*
X3204000Y12444000D03*
X4154000Y10444000D03*
X2254000Y10444000D03*
D25*
X-465000Y-14215000D03*
X-465000Y-12315000D03*
D47*
X-34200000Y1325000D03*
D48*
X-33850000Y425000D03*
X-33850000Y-425000D03*
D47*
X-34200000Y-1325000D03*
M02*
