G04 #@! TF.GenerationSoftware,KiCad,Pcbnew,7.0.1-3b83917a11~172~ubuntu22.04.1*
G04 #@! TF.CreationDate,2023-08-11T16:57:34+02:00*
G04 #@! TF.ProjectId,io_coupling_MCU_enhanced,696f5f63-6f75-4706-9c69-6e675f4d4355,rev?*
G04 #@! TF.SameCoordinates,Original*
G04 #@! TF.FileFunction,Soldermask,Bot*
G04 #@! TF.FilePolarity,Negative*
%FSLAX46Y46*%
G04 Gerber Fmt 4.6, Leading zero omitted, Abs format (unit mm)*
G04 Created by KiCad (PCBNEW 7.0.1-3b83917a11~172~ubuntu22.04.1) date 2023-08-11 16:57:34*
%MOMM*%
%LPD*%
G01*
G04 APERTURE LIST*
G04 Aperture macros list*
%AMHorizOval*
0 Thick line with rounded ends*
0 $1 width*
0 $2 $3 position (X,Y) of the first rounded end (center of the circle)*
0 $4 $5 position (X,Y) of the second rounded end (center of the circle)*
0 Add line between two ends*
20,1,$1,$2,$3,$4,$5,0*
0 Add two circle primitives to create the rounded ends*
1,1,$1,$2,$3*
1,1,$1,$4,$5*%
%AMRotRect*
0 Rectangle, with rotation*
0 The origin of the aperture is its center*
0 $1 length*
0 $2 width*
0 $3 Rotation angle, in degrees counterclockwise*
0 Add horizontal line*
21,1,$1,$2,0,0,$3*%
G04 Aperture macros list end*
%ADD10C,2.000000*%
%ADD11C,1.800000*%
%ADD12C,1.600000*%
%ADD13C,1.950000*%
%ADD14RotRect,1.950000X1.950000X188.057000*%
%ADD15C,1.500000*%
%ADD16RotRect,1.950000X1.950000X204.171000*%
%ADD17C,0.500000*%
%ADD18HorizOval,0.500000X0.000000X0.000000X0.000000X0.000000X0*%
%ADD19RotRect,1.950000X1.950000X171.943000*%
%ADD20HorizOval,1.100000X0.390988X0.084428X-0.390988X-0.084428X0*%
%ADD21C,1.250000*%
%ADD22RotRect,1.950000X1.950000X155.828000*%
%ADD23C,0.350000*%
%ADD24C,0.800000*%
G04 APERTURE END LIST*
D10*
X-5080000Y-26670000D03*
X-5080000Y-29210000D03*
D11*
X17780000Y1270000D03*
X17780000Y-1270000D03*
X15240000Y1270000D03*
X15240000Y-1270000D03*
X12700000Y1270000D03*
X12700000Y-1270000D03*
X10160000Y1270000D03*
X10160000Y-1270000D03*
X7620000Y1270000D03*
X7620000Y-1270000D03*
D10*
X-30015518Y25650396D03*
X-31719389Y27534123D03*
X-28131792Y27354266D03*
X-29835662Y29237993D03*
X-26248065Y29058137D03*
X-27951935Y30941863D03*
X-24364338Y30762007D03*
X-26068208Y32645734D03*
X-22480611Y32465877D03*
X-24184482Y34349604D03*
X31719432Y27534204D03*
X30015594Y25650447D03*
X29835675Y29238041D03*
X28131838Y27354284D03*
X27951919Y30941878D03*
X26248081Y29058122D03*
X26068162Y32645716D03*
X24364325Y30761959D03*
X24184406Y34349553D03*
X22480568Y32465796D03*
D12*
X1480000Y25000000D03*
X-1060000Y25000000D03*
X-3600000Y25000000D03*
X-6140000Y25000000D03*
X-8680000Y25000000D03*
D11*
X10200000Y-7700000D03*
D13*
X-8675323Y43449605D03*
D14*
X-3724677Y44150395D03*
D15*
X-9000000Y-28000000D03*
D13*
X-20280819Y39376347D03*
D16*
X-15719181Y41423653D03*
D17*
X-32558408Y7830779D03*
D18*
X-29641592Y7129221D03*
D15*
X23000000Y0D03*
X0Y34800000D03*
D10*
X5080000Y-26670000D03*
D15*
X9000000Y-28000000D03*
D10*
X0Y-26670000D03*
X-2540000Y-29210000D03*
D13*
X3724677Y44150395D03*
D19*
X8675323Y43449605D03*
D10*
X2540000Y-29210000D03*
D15*
X-25000000Y0D03*
D10*
X5080000Y-29210000D03*
X-2540000Y-26670000D03*
D20*
X-33450147Y-3540436D03*
D21*
X-30648779Y-3958575D03*
X-29551221Y-9041425D03*
D20*
X-31930451Y-10578229D03*
D10*
X2540000Y-26670000D03*
D22*
X20280801Y39376307D03*
D13*
X15719199Y41423693D03*
D10*
X0Y-29210000D03*
D23*
X-7106813Y25976997D03*
D24*
X-800000Y29400000D03*
X-6188000Y28212000D03*
D23*
X-2440000Y31200000D03*
X-2440000Y30600000D03*
X-2440000Y31800000D03*
X-2440000Y30000000D03*
X-4750000Y31800000D03*
X-4750000Y31200000D03*
X-4750000Y30600000D03*
X-4750000Y30000000D03*
D24*
X22400000Y-4000000D03*
D23*
X-2460000Y29350000D03*
D24*
X-30827420Y8503266D03*
X-23300000Y-10388000D03*
X-20700000Y4200000D03*
D23*
X-4500000Y28078800D03*
D24*
X-3600000Y23200000D03*
X2622103Y23477397D03*
X2125000Y28424000D03*
D23*
X-4700000Y26578800D03*
X-3600000Y26578800D03*
X-6200000Y19100000D03*
D24*
X-29300000Y-4900000D03*
D23*
X-2450000Y26578800D03*
D24*
X-20800000Y9649500D03*
D23*
X-2450000Y28678800D03*
X-2700000Y27178800D03*
D24*
X-22200000Y7000000D03*
D23*
X-2700000Y28078800D03*
X-4750000Y29300000D03*
D24*
X-600000Y-17750000D03*
X-18350000Y-4753000D03*
X-1505853Y18123565D03*
X2100000Y-8600000D03*
D23*
X-4750000Y28678800D03*
X-4500000Y27178800D03*
D24*
X-1700000Y-14215000D03*
D23*
X-4150000Y26580000D03*
X-3100000Y26578800D03*
D24*
X3300000Y1800000D03*
X5500000Y9600000D03*
X-24500Y10397655D03*
X-2872523Y-9827477D03*
X-25800000Y-6488498D03*
X-1800000Y-6500000D03*
X4100000Y18244365D03*
X-32500000Y-500000D03*
X4100000Y26400000D03*
X-32700000Y4300000D03*
X-10000000Y25100000D03*
X-31700000Y-6400000D03*
X-24800000Y-4400000D03*
D23*
X-8200000Y27423502D03*
X-4875498Y18273502D03*
X-8200000Y26423502D03*
X-5000000Y20400000D03*
X252448Y22423502D03*
X-3782130Y19424926D03*
X200000Y21423502D03*
X-4100000Y20500000D03*
X-1900000Y20500000D03*
X-2316735Y19424874D03*
X200000Y20423502D03*
X-3100000Y20500000D03*
X13437500Y27087500D03*
X14650000Y23750000D03*
X-6100000Y20400000D03*
X-600000Y21300000D03*
X-600000Y22500000D03*
X-600000Y23200000D03*
X200000Y19423502D03*
X1000000Y18500000D03*
D24*
X1800000Y17500000D03*
D23*
X-512251Y19787749D03*
M02*
