G04 #@! TF.GenerationSoftware,KiCad,Pcbnew,7.0.1-3b83917a11~172~ubuntu22.04.1*
G04 #@! TF.CreationDate,2023-08-11T16:57:34+02:00*
G04 #@! TF.ProjectId,io_coupling_MCU_enhanced,696f5f63-6f75-4706-9c69-6e675f4d4355,rev?*
G04 #@! TF.SameCoordinates,Original*
G04 #@! TF.FileFunction,Legend,Bot*
G04 #@! TF.FilePolarity,Positive*
%FSLAX46Y46*%
G04 Gerber Fmt 4.6, Leading zero omitted, Abs format (unit mm)*
G04 Created by KiCad (PCBNEW 7.0.1-3b83917a11~172~ubuntu22.04.1) date 2023-08-11 16:57:34*
%MOMM*%
%LPD*%
G01*
G04 APERTURE LIST*
G04 Aperture macros list*
%AMHorizOval*
0 Thick line with rounded ends*
0 $1 width*
0 $2 $3 position (X,Y) of the first rounded end (center of the circle)*
0 $4 $5 position (X,Y) of the second rounded end (center of the circle)*
0 Add line between two ends*
20,1,$1,$2,$3,$4,$5,0*
0 Add two circle primitives to create the rounded ends*
1,1,$1,$2,$3*
1,1,$1,$4,$5*%
%AMRotRect*
0 Rectangle, with rotation*
0 The origin of the aperture is its center*
0 $1 length*
0 $2 width*
0 $3 Rotation angle, in degrees counterclockwise*
0 Add horizontal line*
21,1,$1,$2,0,0,$3*%
G04 Aperture macros list end*
%ADD10C,0.150000*%
%ADD11C,2.000000*%
%ADD12C,1.800000*%
%ADD13C,1.600000*%
%ADD14C,1.950000*%
%ADD15RotRect,1.950000X1.950000X188.057000*%
%ADD16C,1.500000*%
%ADD17RotRect,1.950000X1.950000X204.171000*%
%ADD18C,0.500000*%
%ADD19HorizOval,0.500000X0.000000X0.000000X0.000000X0.000000X0*%
%ADD20RotRect,1.950000X1.950000X171.943000*%
%ADD21HorizOval,1.100000X0.390988X0.084428X-0.390988X-0.084428X0*%
%ADD22C,1.250000*%
%ADD23RotRect,1.950000X1.950000X155.828000*%
%ADD24C,0.350000*%
%ADD25C,0.800000*%
G04 APERTURE END LIST*
D10*
X34492212Y29651927D02*
X35163014Y30393564D01*
X35163014Y30393564D02*
X34986434Y30553279D01*
X34986434Y30553279D02*
X34848543Y30613791D01*
X34848543Y30613791D02*
X34714025Y30607045D01*
X34714025Y30607045D02*
X34614823Y30568356D01*
X34614823Y30568356D02*
X34451735Y30459035D01*
X34451735Y30459035D02*
X34355906Y30353087D01*
X34355906Y30353087D02*
X34263450Y30179880D01*
X34263450Y30179880D02*
X34234880Y30077305D01*
X34234880Y30077305D02*
X34241627Y29942787D01*
X34241627Y29942787D02*
X34315632Y29811642D01*
X34315632Y29811642D02*
X34492212Y29651927D01*
X33362099Y30674102D02*
X33785891Y30290787D01*
X33573995Y30482444D02*
X34244797Y31224081D01*
X34244797Y31224081D02*
X34219601Y31054247D01*
X34219601Y31054247D02*
X34226347Y30919729D01*
X34226347Y30919729D02*
X34265036Y30820527D01*
X32479198Y31472676D02*
X33150001Y32214313D01*
X33150001Y32214313D02*
X32973420Y32374027D01*
X32973420Y32374027D02*
X32835529Y32434540D01*
X32835529Y32434540D02*
X32701011Y32427794D01*
X32701011Y32427794D02*
X32601810Y32389105D01*
X32601810Y32389105D02*
X32438722Y32279784D01*
X32438722Y32279784D02*
X32342893Y32173836D01*
X32342893Y32173836D02*
X32250437Y32000629D01*
X32250437Y32000629D02*
X32221867Y31898054D01*
X32221867Y31898054D02*
X32228613Y31763536D01*
X32228613Y31763536D02*
X32302618Y31632391D01*
X32302618Y31632391D02*
X32479198Y31472676D01*
X32478996Y32821229D02*
X32019888Y33236487D01*
X32019888Y33236487D02*
X32011556Y32730358D01*
X32011556Y32730358D02*
X31905608Y32826187D01*
X31905608Y32826187D02*
X31803033Y32854757D01*
X31803033Y32854757D02*
X31735774Y32851384D01*
X31735774Y32851384D02*
X31636572Y32812695D01*
X31636572Y32812695D02*
X31476858Y32636115D01*
X31476858Y32636115D02*
X31448288Y32533540D01*
X31448288Y32533540D02*
X31451661Y32466281D01*
X31451661Y32466281D02*
X31490350Y32367079D01*
X31490350Y32367079D02*
X31702246Y32175421D01*
X31702246Y32175421D02*
X31804821Y32146851D01*
X31804821Y32146851D02*
X31872080Y32150224D01*
X30466185Y33293425D02*
X31136987Y34035061D01*
X31136987Y34035061D02*
X30960407Y34194776D01*
X30960407Y34194776D02*
X30822516Y34255289D01*
X30822516Y34255289D02*
X30687998Y34248543D01*
X30687998Y34248543D02*
X30588796Y34209854D01*
X30588796Y34209854D02*
X30425708Y34100533D01*
X30425708Y34100533D02*
X30329880Y33994584D01*
X30329880Y33994584D02*
X30237424Y33821377D01*
X30237424Y33821377D02*
X30208854Y33718802D01*
X30208854Y33718802D02*
X30215600Y33584285D01*
X30215600Y33584285D02*
X30289605Y33453140D01*
X30289605Y33453140D02*
X30466185Y33293425D01*
X30042191Y35025293D02*
X30395351Y34705863D01*
X30395351Y34705863D02*
X30111237Y34320760D01*
X30111237Y34320760D02*
X30107864Y34388019D01*
X30107864Y34388019D02*
X30069175Y34487221D01*
X30069175Y34487221D02*
X29892595Y34646936D01*
X29892595Y34646936D02*
X29790020Y34675506D01*
X29790020Y34675506D02*
X29722761Y34672133D01*
X29722761Y34672133D02*
X29623559Y34633444D01*
X29623559Y34633444D02*
X29463844Y34456864D01*
X29463844Y34456864D02*
X29435274Y34354289D01*
X29435274Y34354289D02*
X29438648Y34287030D01*
X29438648Y34287030D02*
X29477337Y34187828D01*
X29477337Y34187828D02*
X29653917Y34028113D01*
X29653917Y34028113D02*
X29756492Y33999543D01*
X29756492Y33999543D02*
X29823751Y34002916D01*
X28453172Y35114174D02*
X29123974Y35855810D01*
X29123974Y35855810D02*
X28947394Y36015525D01*
X28947394Y36015525D02*
X28809503Y36076038D01*
X28809503Y36076038D02*
X28674985Y36069291D01*
X28674985Y36069291D02*
X28575783Y36030602D01*
X28575783Y36030602D02*
X28412695Y35921281D01*
X28412695Y35921281D02*
X28316866Y35815333D01*
X28316866Y35815333D02*
X28224410Y35642126D01*
X28224410Y35642126D02*
X28195840Y35539551D01*
X28195840Y35539551D02*
X28202587Y35405033D01*
X28202587Y35405033D02*
X28276592Y35273888D01*
X28276592Y35273888D02*
X28453172Y35114174D01*
X28452970Y36462726D02*
X27958545Y36909928D01*
X27958545Y36909928D02*
X27605587Y35880804D01*
X26440158Y36934922D02*
X27110961Y37676559D01*
X27110961Y37676559D02*
X26934380Y37836273D01*
X26934380Y37836273D02*
X26796489Y37896786D01*
X26796489Y37896786D02*
X26661971Y37890040D01*
X26661971Y37890040D02*
X26562770Y37851351D01*
X26562770Y37851351D02*
X26399682Y37742030D01*
X26399682Y37742030D02*
X26303853Y37636082D01*
X26303853Y37636082D02*
X26211397Y37462875D01*
X26211397Y37462875D02*
X26182827Y37360300D01*
X26182827Y37360300D02*
X26189573Y37225782D01*
X26189573Y37225782D02*
X26263578Y37094637D01*
X26263578Y37094637D02*
X26440158Y36934922D01*
X25663206Y37637667D02*
X25521942Y37765439D01*
X25521942Y37765439D02*
X25483253Y37864641D01*
X25483253Y37864641D02*
X25479880Y37931900D01*
X25479880Y37931900D02*
X25505077Y38101734D01*
X25505077Y38101734D02*
X25597532Y38274941D01*
X25597532Y38274941D02*
X25853076Y38557469D01*
X25853076Y38557469D02*
X25952278Y38596158D01*
X25952278Y38596158D02*
X26019537Y38599531D01*
X26019537Y38599531D02*
X26122112Y38570961D01*
X26122112Y38570961D02*
X26263376Y38443190D01*
X26263376Y38443190D02*
X26302065Y38343988D01*
X26302065Y38343988D02*
X26305438Y38276729D01*
X26305438Y38276729D02*
X26276868Y38174154D01*
X26276868Y38174154D02*
X26117154Y37997574D01*
X26117154Y37997574D02*
X26017952Y37958885D01*
X26017952Y37958885D02*
X25950693Y37955511D01*
X25950693Y37955511D02*
X25848118Y37984081D01*
X25848118Y37984081D02*
X25706854Y38111853D01*
X25706854Y38111853D02*
X25668164Y38211055D01*
X25668164Y38211055D02*
X25664791Y38278314D01*
X25664791Y38278314D02*
X25693361Y38380889D01*
X33405513Y28450476D02*
X34076315Y29192113D01*
X34076315Y29192113D02*
X33899735Y29351828D01*
X33899735Y29351828D02*
X33761844Y29412340D01*
X33761844Y29412340D02*
X33627326Y29405594D01*
X33627326Y29405594D02*
X33528124Y29366905D01*
X33528124Y29366905D02*
X33365036Y29257584D01*
X33365036Y29257584D02*
X33269207Y29151636D01*
X33269207Y29151636D02*
X33176751Y28978429D01*
X33176751Y28978429D02*
X33148181Y28875854D01*
X33148181Y28875854D02*
X33154928Y28741336D01*
X33154928Y28741336D02*
X33228933Y28610191D01*
X33228933Y28610191D02*
X33405513Y28450476D01*
X33193414Y29990687D02*
X33122782Y30054573D01*
X33122782Y30054573D02*
X33020207Y30083143D01*
X33020207Y30083143D02*
X32952948Y30079770D01*
X32952948Y30079770D02*
X32853746Y30041080D01*
X32853746Y30041080D02*
X32690659Y29931759D01*
X32690659Y29931759D02*
X32530944Y29755179D01*
X32530944Y29755179D02*
X32438488Y29581972D01*
X32438488Y29581972D02*
X32409918Y29479397D01*
X32409918Y29479397D02*
X32413291Y29412138D01*
X32413291Y29412138D02*
X32451980Y29312936D01*
X32451980Y29312936D02*
X32522612Y29249050D01*
X32522612Y29249050D02*
X32625187Y29220480D01*
X32625187Y29220480D02*
X32692446Y29223854D01*
X32692446Y29223854D02*
X32791648Y29262543D01*
X32791648Y29262543D02*
X32954736Y29371864D01*
X32954736Y29371864D02*
X33114451Y29548444D01*
X33114451Y29548444D02*
X33206907Y29721651D01*
X33206907Y29721651D02*
X33235477Y29824226D01*
X33235477Y29824226D02*
X33232103Y29891485D01*
X33232103Y29891485D02*
X33193414Y29990687D01*
X31392499Y30271225D02*
X32063302Y31012862D01*
X32063302Y31012862D02*
X31886721Y31172576D01*
X31886721Y31172576D02*
X31748830Y31233089D01*
X31748830Y31233089D02*
X31614312Y31226343D01*
X31614312Y31226343D02*
X31515111Y31187654D01*
X31515111Y31187654D02*
X31352023Y31078333D01*
X31352023Y31078333D02*
X31256194Y30972385D01*
X31256194Y30972385D02*
X31163738Y30799178D01*
X31163738Y30799178D02*
X31135168Y30696603D01*
X31135168Y30696603D02*
X31141914Y30562085D01*
X31141914Y30562085D02*
X31215919Y30430940D01*
X31215919Y30430940D02*
X31392499Y30271225D01*
X31293095Y31581089D02*
X31289722Y31648348D01*
X31289722Y31648348D02*
X31251033Y31747550D01*
X31251033Y31747550D02*
X31074453Y31907264D01*
X31074453Y31907264D02*
X30971878Y31935834D01*
X30971878Y31935834D02*
X30904619Y31932461D01*
X30904619Y31932461D02*
X30805417Y31893772D01*
X30805417Y31893772D02*
X30741531Y31823140D01*
X30741531Y31823140D02*
X30681018Y31685249D01*
X30681018Y31685249D02*
X30721495Y30878141D01*
X30721495Y30878141D02*
X30262387Y31293400D01*
X29379486Y32091974D02*
X30050288Y32833610D01*
X30050288Y32833610D02*
X29873708Y32993325D01*
X29873708Y32993325D02*
X29735817Y33053838D01*
X29735817Y33053838D02*
X29601299Y33047092D01*
X29601299Y33047092D02*
X29502097Y33008403D01*
X29502097Y33008403D02*
X29339009Y32899082D01*
X29339009Y32899082D02*
X29243181Y32793133D01*
X29243181Y32793133D02*
X29150725Y32619926D01*
X29150725Y32619926D02*
X29122155Y32517351D01*
X29122155Y32517351D02*
X29128901Y32382834D01*
X29128901Y32382834D02*
X29202906Y32251689D01*
X29202906Y32251689D02*
X29379486Y32091974D01*
X28767207Y33544687D02*
X28320006Y33050263D01*
X29199331Y33667500D02*
X28896766Y32978045D01*
X28896766Y32978045D02*
X28437658Y33393304D01*
X27366473Y33912723D02*
X28037275Y34654359D01*
X28037275Y34654359D02*
X27860695Y34814074D01*
X27860695Y34814074D02*
X27722804Y34874587D01*
X27722804Y34874587D02*
X27588286Y34867840D01*
X27588286Y34867840D02*
X27489084Y34829151D01*
X27489084Y34829151D02*
X27325996Y34719830D01*
X27325996Y34719830D02*
X27230167Y34613882D01*
X27230167Y34613882D02*
X27137711Y34440675D01*
X27137711Y34440675D02*
X27109141Y34338100D01*
X27109141Y34338100D02*
X27115888Y34203582D01*
X27115888Y34203582D02*
X27189893Y34072437D01*
X27189893Y34072437D02*
X27366473Y33912723D01*
X26977794Y35612648D02*
X27119058Y35484876D01*
X27119058Y35484876D02*
X27157747Y35385674D01*
X27157747Y35385674D02*
X27161121Y35318415D01*
X27161121Y35318415D02*
X27135924Y35148581D01*
X27135924Y35148581D02*
X27043468Y34975374D01*
X27043468Y34975374D02*
X26787924Y34692846D01*
X26787924Y34692846D02*
X26688722Y34654157D01*
X26688722Y34654157D02*
X26621463Y34650784D01*
X26621463Y34650784D02*
X26518888Y34679353D01*
X26518888Y34679353D02*
X26377624Y34807125D01*
X26377624Y34807125D02*
X26338935Y34906327D01*
X26338935Y34906327D02*
X26335562Y34973586D01*
X26335562Y34973586D02*
X26364132Y35076161D01*
X26364132Y35076161D02*
X26523847Y35252741D01*
X26523847Y35252741D02*
X26623049Y35291430D01*
X26623049Y35291430D02*
X26690308Y35294803D01*
X26690308Y35294803D02*
X26792883Y35266234D01*
X26792883Y35266234D02*
X26934147Y35138462D01*
X26934147Y35138462D02*
X26972836Y35039260D01*
X26972836Y35039260D02*
X26976209Y34972001D01*
X26976209Y34972001D02*
X26947639Y34869426D01*
X25353459Y35733471D02*
X26024262Y36475108D01*
X26024262Y36475108D02*
X25847681Y36634822D01*
X25847681Y36634822D02*
X25709790Y36695335D01*
X25709790Y36695335D02*
X25575272Y36688589D01*
X25575272Y36688589D02*
X25476071Y36649900D01*
X25476071Y36649900D02*
X25312983Y36540579D01*
X25312983Y36540579D02*
X25217154Y36434631D01*
X25217154Y36434631D02*
X25124698Y36261424D01*
X25124698Y36261424D02*
X25096128Y36158849D01*
X25096128Y36158849D02*
X25102874Y36024331D01*
X25102874Y36024331D02*
X25176879Y35893186D01*
X25176879Y35893186D02*
X25353459Y35733471D01*
X24889190Y36923894D02*
X24991765Y36895325D01*
X24991765Y36895325D02*
X25059024Y36898698D01*
X25059024Y36898698D02*
X25158226Y36937387D01*
X25158226Y36937387D02*
X25190169Y36972703D01*
X25190169Y36972703D02*
X25218739Y37075278D01*
X25218739Y37075278D02*
X25215366Y37142537D01*
X25215366Y37142537D02*
X25176677Y37241739D01*
X25176677Y37241739D02*
X25035413Y37369510D01*
X25035413Y37369510D02*
X24932838Y37398080D01*
X24932838Y37398080D02*
X24865579Y37394707D01*
X24865579Y37394707D02*
X24766377Y37356018D01*
X24766377Y37356018D02*
X24734434Y37320702D01*
X24734434Y37320702D02*
X24705864Y37218127D01*
X24705864Y37218127D02*
X24709237Y37150868D01*
X24709237Y37150868D02*
X24747926Y37051666D01*
X24747926Y37051666D02*
X24889190Y36923894D01*
X24889190Y36923894D02*
X24927880Y36824692D01*
X24927880Y36824692D02*
X24931253Y36757434D01*
X24931253Y36757434D02*
X24902683Y36654859D01*
X24902683Y36654859D02*
X24774911Y36513594D01*
X24774911Y36513594D02*
X24675709Y36474905D01*
X24675709Y36474905D02*
X24608450Y36471532D01*
X24608450Y36471532D02*
X24505875Y36500102D01*
X24505875Y36500102D02*
X24364611Y36627874D01*
X24364611Y36627874D02*
X24325922Y36727076D01*
X24325922Y36727076D02*
X24322549Y36794335D01*
X24322549Y36794335D02*
X24351119Y36896910D01*
X24351119Y36896910D02*
X24478890Y37038174D01*
X24478890Y37038174D02*
X24578092Y37076863D01*
X24578092Y37076863D02*
X24645351Y37080236D01*
X24645351Y37080236D02*
X24747926Y37051666D01*
X18885843Y37832668D02*
X17973523Y37423191D01*
X17973523Y37423191D02*
X18071018Y37205972D01*
X18071018Y37205972D02*
X18172958Y37095139D01*
X18172958Y37095139D02*
X18298844Y37047249D01*
X18298844Y37047249D02*
X18405230Y37042803D01*
X18405230Y37042803D02*
X18598505Y37077355D01*
X18598505Y37077355D02*
X18728836Y37135852D01*
X18728836Y37135852D02*
X18883112Y37257291D01*
X18883112Y37257291D02*
X18950501Y37339733D01*
X18950501Y37339733D02*
X18998391Y37465619D01*
X18998391Y37465619D02*
X18983338Y37615449D01*
X18983338Y37615449D02*
X18885843Y37832668D01*
X18640932Y36052487D02*
X18558491Y36119876D01*
X18558491Y36119876D02*
X18499994Y36250208D01*
X18499994Y36250208D02*
X18484941Y36400038D01*
X18484941Y36400038D02*
X18532831Y36525924D01*
X18532831Y36525924D02*
X18600219Y36608365D01*
X18600219Y36608365D02*
X18754496Y36729805D01*
X18754496Y36729805D02*
X18884827Y36788301D01*
X18884827Y36788301D02*
X19078102Y36822853D01*
X19078102Y36822853D02*
X19184488Y36818407D01*
X19184488Y36818407D02*
X19310374Y36770517D01*
X19310374Y36770517D02*
X19412314Y36659685D01*
X19412314Y36659685D02*
X19451312Y36572797D01*
X19451312Y36572797D02*
X19466365Y36422967D01*
X19466365Y36422967D02*
X19442420Y36360024D01*
X19442420Y36360024D02*
X19138313Y36223532D01*
X19138313Y36223532D02*
X19060318Y36397307D01*
X19704798Y36008027D02*
X18792478Y35598550D01*
X18792478Y35598550D02*
X19938785Y35486702D01*
X19938785Y35486702D02*
X19026465Y35077224D01*
X20133774Y35052263D02*
X19221454Y34642786D01*
X19221454Y34642786D02*
X19318948Y34425567D01*
X19318948Y34425567D02*
X19420889Y34314734D01*
X19420889Y34314734D02*
X19546774Y34266845D01*
X19546774Y34266845D02*
X19653161Y34262399D01*
X19653161Y34262399D02*
X19846435Y34296950D01*
X19846435Y34296950D02*
X19976767Y34355447D01*
X19976767Y34355447D02*
X20131043Y34476887D01*
X20131043Y34476887D02*
X20198432Y34559328D01*
X20198432Y34559328D02*
X20246322Y34685214D01*
X20246322Y34685214D02*
X20231269Y34835044D01*
X20231269Y34835044D02*
X20133774Y35052263D01*
X15255057Y36606739D02*
X15153117Y36717571D01*
X15153117Y36717571D02*
X15055622Y36934791D01*
X15055622Y36934791D02*
X15060068Y37041177D01*
X15060068Y37041177D02*
X15084013Y37104120D01*
X15084013Y37104120D02*
X15151402Y37186562D01*
X15151402Y37186562D02*
X15238289Y37225559D01*
X15238289Y37225559D02*
X15344676Y37221113D01*
X15344676Y37221113D02*
X15407619Y37197169D01*
X15407619Y37197169D02*
X15490060Y37129780D01*
X15490060Y37129780D02*
X15611500Y36975503D01*
X15611500Y36975503D02*
X15693942Y36908115D01*
X15693942Y36908115D02*
X15756884Y36884170D01*
X15756884Y36884170D02*
X15863271Y36879724D01*
X15863271Y36879724D02*
X15950158Y36918722D01*
X15950158Y36918722D02*
X16017547Y37001163D01*
X16017547Y37001163D02*
X16041492Y37064106D01*
X16041492Y37064106D02*
X16045938Y37170493D01*
X16045938Y37170493D02*
X15948444Y37387712D01*
X15948444Y37387712D02*
X15846503Y37498544D01*
X14802136Y37499560D02*
X15714457Y37909038D01*
X15714457Y37909038D02*
X15616962Y38126257D01*
X15616962Y38126257D02*
X15515021Y38237089D01*
X15515021Y38237089D02*
X15389136Y38284979D01*
X15389136Y38284979D02*
X15282749Y38289425D01*
X15282749Y38289425D02*
X15089475Y38254873D01*
X15089475Y38254873D02*
X14959144Y38196377D01*
X14959144Y38196377D02*
X14804867Y38074937D01*
X14804867Y38074937D02*
X14737479Y37992495D01*
X14737479Y37992495D02*
X14689589Y37866610D01*
X14689589Y37866610D02*
X14704642Y37716780D01*
X14704642Y37716780D02*
X14802136Y37499560D01*
X14672821Y38485430D02*
X14477832Y38919869D01*
X14451156Y38281549D02*
X15226984Y38995133D01*
X15226984Y38995133D02*
X14178171Y38889763D01*
X13827190Y39671752D02*
X14061177Y39150426D01*
X13944184Y39411089D02*
X14856504Y39820566D01*
X14856504Y39820566D02*
X14765171Y39675182D01*
X14765171Y39675182D02*
X14717281Y39549296D01*
X14717281Y39549296D02*
X14712835Y39442910D01*
X13714156Y35967331D02*
X14626476Y36376808D01*
X14626476Y36376808D02*
X13838326Y36388431D01*
X13838326Y36388431D02*
X14353491Y36985022D01*
X14353491Y36985022D02*
X13441171Y36575544D01*
X13246182Y37009983D02*
X14158502Y37419460D01*
X13114135Y37420475D02*
X13012195Y37531308D01*
X13012195Y37531308D02*
X12914700Y37748527D01*
X12914700Y37748527D02*
X12919146Y37854914D01*
X12919146Y37854914D02*
X12943091Y37917856D01*
X12943091Y37917856D02*
X13010480Y38000298D01*
X13010480Y38000298D02*
X13097368Y38039296D01*
X13097368Y38039296D02*
X13203754Y38034850D01*
X13203754Y38034850D02*
X13266697Y38010905D01*
X13266697Y38010905D02*
X13349138Y37943516D01*
X13349138Y37943516D02*
X13470578Y37789240D01*
X13470578Y37789240D02*
X13553020Y37721851D01*
X13553020Y37721851D02*
X13615962Y37697906D01*
X13615962Y37697906D02*
X13722349Y37693460D01*
X13722349Y37693460D02*
X13809237Y37732458D01*
X13809237Y37732458D02*
X13876625Y37814900D01*
X13876625Y37814900D02*
X13900570Y37877842D01*
X13900570Y37877842D02*
X13905016Y37984229D01*
X13905016Y37984229D02*
X13807522Y38201448D01*
X13807522Y38201448D02*
X13705581Y38312281D01*
X13495539Y38896549D02*
X13417543Y39070325D01*
X13417543Y39070325D02*
X13335102Y39137713D01*
X13335102Y39137713D02*
X13209216Y39185603D01*
X13209216Y39185603D02*
X13015942Y39151051D01*
X13015942Y39151051D02*
X12711835Y39014559D01*
X12711835Y39014559D02*
X12557559Y38893120D01*
X12557559Y38893120D02*
X12509669Y38767234D01*
X12509669Y38767234D02*
X12505223Y38660847D01*
X12505223Y38660847D02*
X12583219Y38487072D01*
X12583219Y38487072D02*
X12665660Y38419683D01*
X12665660Y38419683D02*
X12791546Y38371794D01*
X12791546Y38371794D02*
X12984820Y38406345D01*
X12984820Y38406345D02*
X13288927Y38542838D01*
X13288927Y38542838D02*
X13443203Y38664277D01*
X13443203Y38664277D02*
X13491093Y38790163D01*
X13491093Y38790163D02*
X13495539Y38896549D01*
X9245634Y38339478D02*
X9178462Y38474251D01*
X9178462Y38474251D02*
X9145091Y38709996D01*
X9145091Y38709996D02*
X9178892Y38810968D01*
X9178892Y38810968D02*
X9219366Y38864792D01*
X9219366Y38864792D02*
X9306990Y38925289D01*
X9306990Y38925289D02*
X9401288Y38938637D01*
X9401288Y38938637D02*
X9502261Y38904837D01*
X9502261Y38904837D02*
X9556084Y38864362D01*
X9556084Y38864362D02*
X9616581Y38776738D01*
X9616581Y38776738D02*
X9690427Y38594816D01*
X9690427Y38594816D02*
X9750924Y38507193D01*
X9750924Y38507193D02*
X9804748Y38466718D01*
X9804748Y38466718D02*
X9905720Y38432917D01*
X9905720Y38432917D02*
X10000018Y38446266D01*
X10000018Y38446266D02*
X10087642Y38506763D01*
X10087642Y38506763D02*
X10128116Y38560586D01*
X10128116Y38560586D02*
X10161917Y38661558D01*
X10161917Y38661558D02*
X10128546Y38897303D01*
X10128546Y38897303D02*
X10061374Y39032076D01*
X9072534Y39902070D02*
X9032059Y39848247D01*
X9032059Y39848247D02*
X9004933Y39700125D01*
X9004933Y39700125D02*
X9018281Y39605827D01*
X9018281Y39605827D02*
X9085453Y39471055D01*
X9085453Y39471055D02*
X9193099Y39390105D01*
X9193099Y39390105D02*
X9294071Y39356304D01*
X9294071Y39356304D02*
X9489342Y39335852D01*
X9489342Y39335852D02*
X9630789Y39355875D01*
X9630789Y39355875D02*
X9812711Y39429721D01*
X9812711Y39429721D02*
X9900334Y39490218D01*
X9900334Y39490218D02*
X9981284Y39597864D01*
X9981284Y39597864D02*
X10008410Y39745986D01*
X10008410Y39745986D02*
X9995062Y39840284D01*
X9995062Y39840284D02*
X9927890Y39975056D01*
X9927890Y39975056D02*
X9874067Y40015531D01*
X8851426Y40784553D02*
X8918168Y40313063D01*
X8918168Y40313063D02*
X9908297Y40453221D01*
X8731291Y41633235D02*
X8811381Y41067447D01*
X8771336Y41350341D02*
X9761465Y41490499D01*
X9761465Y41490499D02*
X9633366Y41376178D01*
X9633366Y41376178D02*
X9552417Y41268532D01*
X9552417Y41268532D02*
X9518616Y41167560D01*
X7587801Y38152897D02*
X8577931Y38293055D01*
X8577931Y38293055D02*
X7823976Y38522985D01*
X7823976Y38522985D02*
X8484492Y38953141D01*
X8484492Y38953141D02*
X7494363Y38812983D01*
X8391053Y39613227D02*
X8364356Y39801823D01*
X8364356Y39801823D02*
X8303859Y39889447D01*
X8303859Y39889447D02*
X8196212Y39970397D01*
X8196212Y39970397D02*
X8000942Y39990849D01*
X8000942Y39990849D02*
X7670899Y39944130D01*
X7670899Y39944130D02*
X7488977Y39870284D01*
X7488977Y39870284D02*
X7408028Y39762637D01*
X7408028Y39762637D02*
X7374227Y39661665D01*
X7374227Y39661665D02*
X7400924Y39473069D01*
X7400924Y39473069D02*
X7461421Y39385445D01*
X7461421Y39385445D02*
X7569068Y39304496D01*
X7569068Y39304496D02*
X7764338Y39284044D01*
X7764338Y39284044D02*
X8094381Y39330763D01*
X8094381Y39330763D02*
X8276303Y39404609D01*
X8276303Y39404609D02*
X8357252Y39512255D01*
X8357252Y39512255D02*
X8391053Y39613227D01*
X7334612Y40281276D02*
X7267440Y40416049D01*
X7267440Y40416049D02*
X7234069Y40651794D01*
X7234069Y40651794D02*
X7267870Y40752767D01*
X7267870Y40752767D02*
X7308344Y40806590D01*
X7308344Y40806590D02*
X7395968Y40867087D01*
X7395968Y40867087D02*
X7490266Y40880436D01*
X7490266Y40880436D02*
X7591238Y40846635D01*
X7591238Y40846635D02*
X7645062Y40806160D01*
X7645062Y40806160D02*
X7705559Y40718536D01*
X7705559Y40718536D02*
X7779405Y40536615D01*
X7779405Y40536615D02*
X7839902Y40448991D01*
X7839902Y40448991D02*
X7893725Y40408516D01*
X7893725Y40408516D02*
X7994698Y40374715D01*
X7994698Y40374715D02*
X8088996Y40388064D01*
X8088996Y40388064D02*
X8176619Y40448561D01*
X8176619Y40448561D02*
X8217094Y40502384D01*
X8217094Y40502384D02*
X8250895Y40603357D01*
X8250895Y40603357D02*
X8217524Y40839102D01*
X8217524Y40839102D02*
X8150352Y40973874D01*
X7147304Y41264731D02*
X8137433Y41404890D01*
X4358374Y42287577D02*
X4425546Y42152804D01*
X4425546Y42152804D02*
X4458917Y41917059D01*
X4458917Y41917059D02*
X4425116Y41816087D01*
X4425116Y41816087D02*
X4384642Y41762263D01*
X4384642Y41762263D02*
X4297018Y41701766D01*
X4297018Y41701766D02*
X4202720Y41688418D01*
X4202720Y41688418D02*
X4101747Y41722218D01*
X4101747Y41722218D02*
X4047924Y41762693D01*
X4047924Y41762693D02*
X3987427Y41850317D01*
X3987427Y41850317D02*
X3913581Y42032239D01*
X3913581Y42032239D02*
X3853084Y42119862D01*
X3853084Y42119862D02*
X3799260Y42160337D01*
X3799260Y42160337D02*
X3698288Y42194138D01*
X3698288Y42194138D02*
X3603990Y42180789D01*
X3603990Y42180789D02*
X3516366Y42120292D01*
X3516366Y42120292D02*
X3475892Y42066469D01*
X3475892Y42066469D02*
X3442091Y41965497D01*
X3442091Y41965497D02*
X3475462Y41729752D01*
X3475462Y41729752D02*
X3542634Y41594979D01*
X4531474Y40724985D02*
X4571949Y40778808D01*
X4571949Y40778808D02*
X4599075Y40926930D01*
X4599075Y40926930D02*
X4585727Y41021228D01*
X4585727Y41021228D02*
X4518555Y41156000D01*
X4518555Y41156000D02*
X4410909Y41236950D01*
X4410909Y41236950D02*
X4309937Y41270751D01*
X4309937Y41270751D02*
X4114666Y41291203D01*
X4114666Y41291203D02*
X3973219Y41271180D01*
X3973219Y41271180D02*
X3791297Y41197334D01*
X3791297Y41197334D02*
X3703674Y41136837D01*
X3703674Y41136837D02*
X3622724Y41029191D01*
X3622724Y41029191D02*
X3595598Y40881069D01*
X3595598Y40881069D02*
X3608946Y40786771D01*
X3608946Y40786771D02*
X3676118Y40651999D01*
X3676118Y40651999D02*
X3729941Y40611524D01*
X4685840Y40313992D02*
X3695711Y40173834D01*
X4765930Y39748204D02*
X4140074Y40092455D01*
X3775801Y39608046D02*
X4261499Y40253925D01*
X-449314Y41743490D02*
X-490030Y41797131D01*
X-490030Y41797131D02*
X-577924Y41857235D01*
X-577924Y41857235D02*
X-813817Y41889548D01*
X-813817Y41889548D02*
X-914636Y41855295D01*
X-914636Y41855295D02*
X-968277Y41814579D01*
X-968277Y41814579D02*
X-1028381Y41726684D01*
X-1028381Y41726684D02*
X-1041306Y41632328D01*
X-1041306Y41632328D02*
X-1013516Y41484329D01*
X-1013516Y41484329D02*
X-524926Y40840636D01*
X-524926Y40840636D02*
X-1138246Y40924651D01*
X-1896981Y41701477D02*
X-1987458Y41040978D01*
X-1609388Y42046591D02*
X-1470435Y41306601D01*
X-1470435Y41306601D02*
X-2083755Y41390615D01*
X-2229171Y42083427D02*
X-2695136Y41137918D01*
X-2695136Y41137918D02*
X-2889669Y42173904D01*
X-3355634Y41228395D02*
X-3265157Y41888893D01*
X-3219919Y42219143D02*
X-3179203Y42165502D01*
X-3179203Y42165502D02*
X-3232844Y42124786D01*
X-3232844Y42124786D02*
X-3273560Y42178427D01*
X-3273560Y42178427D02*
X-3219919Y42219143D01*
X-3219919Y42219143D02*
X-3232844Y42124786D01*
X-6455352Y41708936D02*
X-5983567Y41644309D01*
X-5983567Y41644309D02*
X-6001015Y41166062D01*
X-6001015Y41166062D02*
X-6041731Y41219703D01*
X-6041731Y41219703D02*
X-6129625Y41279807D01*
X-6129625Y41279807D02*
X-6365518Y41312120D01*
X-6365518Y41312120D02*
X-6466337Y41277867D01*
X-6466337Y41277867D02*
X-6519978Y41237151D01*
X-6519978Y41237151D02*
X-6580082Y41149257D01*
X-6580082Y41149257D02*
X-6612395Y40913364D01*
X-6612395Y40913364D02*
X-6578142Y40812545D01*
X-6578142Y40812545D02*
X-6537426Y40758904D01*
X-6537426Y40758904D02*
X-6449532Y40698800D01*
X-6449532Y40698800D02*
X-6213640Y40666487D01*
X-6213640Y40666487D02*
X-6112820Y40700740D01*
X-6112820Y40700740D02*
X-6059179Y40741456D01*
X-6785601Y41754174D02*
X-7251566Y40808665D01*
X-7251566Y40808665D02*
X-7446100Y41844651D01*
X-11673690Y39383360D02*
X-12239148Y39635307D01*
X-12239148Y39635307D02*
X-12089715Y39151669D01*
X-12089715Y39151669D02*
X-12220205Y39209811D01*
X-12220205Y39209811D02*
X-12326579Y39205075D01*
X-12326579Y39205075D02*
X-12389457Y39180959D01*
X-12389457Y39180959D02*
X-12471715Y39113346D01*
X-12471715Y39113346D02*
X-12568617Y38895862D01*
X-12568617Y38895862D02*
X-12563882Y38789488D01*
X-12563882Y38789488D02*
X-12539765Y38726611D01*
X-12539765Y38726611D02*
X-12472153Y38644353D01*
X-12472153Y38644353D02*
X-12211172Y38528070D01*
X-12211172Y38528070D02*
X-12104798Y38532805D01*
X-12104798Y38532805D02*
X-12041921Y38556921D01*
X-12500128Y39751590D02*
X-13211597Y38973822D01*
X-13211597Y38973822D02*
X-13109083Y40022918D01*
X-13326567Y40119821D02*
X-13892025Y40371768D01*
X-13892025Y40371768D02*
X-13742592Y39888130D01*
X-13742592Y39888130D02*
X-13873082Y39946272D01*
X-13873082Y39946272D02*
X-13979456Y39941536D01*
X-13979456Y39941536D02*
X-14042333Y39917420D01*
X-14042333Y39917420D02*
X-14124591Y39849807D01*
X-14124591Y39849807D02*
X-14221494Y39632323D01*
X-14221494Y39632323D02*
X-14216758Y39525949D01*
X-14216758Y39525949D02*
X-14192642Y39463072D01*
X-14192642Y39463072D02*
X-14125029Y39380814D01*
X-14125029Y39380814D02*
X-13864049Y39264531D01*
X-13864049Y39264531D02*
X-13757675Y39269266D01*
X-13757675Y39269266D02*
X-13694797Y39293383D01*
X-16307895Y36250289D02*
X-16742863Y36444095D01*
X-16337185Y35950547D02*
X-16234671Y36999643D01*
X-16234671Y36999643D02*
X-16946140Y36221875D01*
X-17341470Y37440660D02*
X-17235096Y37445396D01*
X-17235096Y37445396D02*
X-17104606Y37387254D01*
X-17104606Y37387254D02*
X-16993496Y37285616D01*
X-16993496Y37285616D02*
X-16945264Y37159861D01*
X-16945264Y37159861D02*
X-16940528Y37053487D01*
X-16940528Y37053487D02*
X-16974553Y36860120D01*
X-16974553Y36860120D02*
X-17032695Y36729629D01*
X-17032695Y36729629D02*
X-17153714Y36575023D01*
X-17153714Y36575023D02*
X-17235972Y36507410D01*
X-17235972Y36507410D02*
X-17361727Y36459178D01*
X-17361727Y36459178D02*
X-17511597Y36473822D01*
X-17511597Y36473822D02*
X-17598591Y36512584D01*
X-17598591Y36512584D02*
X-17709701Y36614222D01*
X-17709701Y36614222D02*
X-17733817Y36677099D01*
X-17733817Y36677099D02*
X-17598153Y36981577D01*
X-17598153Y36981577D02*
X-17424166Y36904054D01*
X-18164049Y36764531D02*
X-17757057Y37677963D01*
X-17757057Y37677963D02*
X-18686010Y36997098D01*
X-18686010Y36997098D02*
X-18279018Y37910529D01*
X-19120977Y37190903D02*
X-18713986Y38104335D01*
X-18713986Y38104335D02*
X-18931469Y38201238D01*
X-18931469Y38201238D02*
X-19081340Y38215883D01*
X-19081340Y38215883D02*
X-19207095Y38167650D01*
X-19207095Y38167650D02*
X-19289353Y38100037D01*
X-19289353Y38100037D02*
X-19410372Y37945431D01*
X-19410372Y37945431D02*
X-19468513Y37814941D01*
X-19468513Y37814941D02*
X-19502539Y37621573D01*
X-19502539Y37621573D02*
X-19497803Y37515199D01*
X-19497803Y37515199D02*
X-19449571Y37389444D01*
X-19449571Y37389444D02*
X-19338461Y37287806D01*
X-19338461Y37287806D02*
X-19120977Y37190903D01*
X-25445392Y37932474D02*
X-26116207Y38674099D01*
X-26116207Y38674099D02*
X-26292784Y38514381D01*
X-26292784Y38514381D02*
X-26366787Y38383235D01*
X-26366787Y38383235D02*
X-26373531Y38248717D01*
X-26373531Y38248717D02*
X-26344959Y38146142D01*
X-26344959Y38146142D02*
X-26252500Y37972937D01*
X-26252500Y37972937D02*
X-26156669Y37866991D01*
X-26156669Y37866991D02*
X-25993580Y37757672D01*
X-25993580Y37757672D02*
X-25894377Y37718985D01*
X-25894377Y37718985D02*
X-25759859Y37712241D01*
X-25759859Y37712241D02*
X-25621969Y37772757D01*
X-25621969Y37772757D02*
X-25445392Y37932474D01*
X-26575487Y36910280D02*
X-26151701Y37293603D01*
X-26363594Y37101941D02*
X-27034409Y37843566D01*
X-27034409Y37843566D02*
X-26867947Y37801507D01*
X-26867947Y37801507D02*
X-26733429Y37794763D01*
X-26733429Y37794763D02*
X-26630855Y37823335D01*
X-27658375Y36829712D02*
X-27211165Y36335296D01*
X-27737346Y37271954D02*
X-27081615Y36901940D01*
X-27081615Y36901940D02*
X-27540716Y36486673D01*
X-28321029Y35716655D02*
X-28674183Y35397220D01*
X-28058736Y35568650D02*
X-28976759Y36086669D01*
X-28976759Y36086669D02*
X-28553153Y35121440D01*
X-29188831Y34546455D02*
X-28765046Y34929778D01*
X-28976938Y34738117D02*
X-29647753Y35479741D01*
X-29647753Y35479741D02*
X-29481292Y35437682D01*
X-29481292Y35437682D02*
X-29346774Y35430938D01*
X-29346774Y35430938D02*
X-29244199Y35459510D01*
X-30228064Y33991702D02*
X-30581218Y33672266D01*
X-29965772Y33843697D02*
X-30883795Y34361716D01*
X-30883795Y34361716D02*
X-30460188Y33396487D01*
X-31307580Y33978393D02*
X-31766681Y33563127D01*
X-31766681Y33563127D02*
X-31263925Y33504208D01*
X-31263925Y33504208D02*
X-31369871Y33408377D01*
X-31369871Y33408377D02*
X-31408558Y33309175D01*
X-31408558Y33309175D02*
X-31411930Y33241916D01*
X-31411930Y33241916D02*
X-31383359Y33139341D01*
X-31383359Y33139341D02*
X-31223641Y32962764D01*
X-31223641Y32962764D02*
X-31124438Y32924077D01*
X-31124438Y32924077D02*
X-31057179Y32920705D01*
X-31057179Y32920705D02*
X-30954605Y32949276D01*
X-30954605Y32949276D02*
X-30742712Y33140938D01*
X-30742712Y33140938D02*
X-30704024Y33240140D01*
X-30704024Y33240140D02*
X-30700653Y33307400D01*
X-32135099Y32266749D02*
X-32488254Y31947313D01*
X-31872807Y32118743D02*
X-32790830Y32636763D01*
X-32790830Y32636763D02*
X-32367223Y31671533D01*
X-33638401Y31870117D02*
X-33285247Y32189553D01*
X-33285247Y32189553D02*
X-32930495Y31868342D01*
X-32930495Y31868342D02*
X-32997754Y31871714D01*
X-32997754Y31871714D02*
X-33100329Y31843142D01*
X-33100329Y31843142D02*
X-33276906Y31683424D01*
X-33276906Y31683424D02*
X-33315594Y31584222D01*
X-33315594Y31584222D02*
X-33318966Y31516963D01*
X-33318966Y31516963D02*
X-33290394Y31414388D01*
X-33290394Y31414388D02*
X-33130676Y31237811D01*
X-33130676Y31237811D02*
X-33031473Y31199123D01*
X-33031473Y31199123D02*
X-32964214Y31195752D01*
X-32964214Y31195752D02*
X-32861640Y31224323D01*
X-32861640Y31224323D02*
X-32685063Y31384041D01*
X-32685063Y31384041D02*
X-32646375Y31483244D01*
X-32646375Y31483244D02*
X-32643003Y31550503D01*
X-34042134Y30541796D02*
X-34395289Y30222360D01*
X-33779842Y30393790D02*
X-34697865Y30911810D01*
X-34697865Y30911810D02*
X-34274259Y29946580D01*
X-35121651Y30528487D02*
X-35616067Y30081277D01*
X-35616067Y30081277D02*
X-34627413Y29627144D01*
X-24358672Y36731042D02*
X-25029487Y37472667D01*
X-25029487Y37472667D02*
X-25206064Y37312949D01*
X-25206064Y37312949D02*
X-25280067Y37181803D01*
X-25280067Y37181803D02*
X-25286811Y37047285D01*
X-25286811Y37047285D02*
X-25258239Y36944710D01*
X-25258239Y36944710D02*
X-25165780Y36771505D01*
X-25165780Y36771505D02*
X-25069949Y36665559D01*
X-25069949Y36665559D02*
X-24906860Y36556240D01*
X-24906860Y36556240D02*
X-24807657Y36517553D01*
X-24807657Y36517553D02*
X-24673139Y36510809D01*
X-24673139Y36510809D02*
X-24535249Y36571325D01*
X-24535249Y36571325D02*
X-24358672Y36731042D01*
X-25488767Y35708848D02*
X-25064981Y36092171D01*
X-25276874Y35900509D02*
X-25947689Y36642134D01*
X-25947689Y36642134D02*
X-25781227Y36600075D01*
X-25781227Y36600075D02*
X-25646709Y36593331D01*
X-25646709Y36593331D02*
X-25544135Y36621903D01*
X-26406790Y36226868D02*
X-26865891Y35811601D01*
X-26865891Y35811601D02*
X-26363134Y35752683D01*
X-26363134Y35752683D02*
X-26469080Y35656852D01*
X-26469080Y35656852D02*
X-26507768Y35557649D01*
X-26507768Y35557649D02*
X-26511140Y35490390D01*
X-26511140Y35490390D02*
X-26482568Y35387816D01*
X-26482568Y35387816D02*
X-26322850Y35211238D01*
X-26322850Y35211238D02*
X-26223648Y35172551D01*
X-26223648Y35172551D02*
X-26156389Y35169179D01*
X-26156389Y35169179D02*
X-26053814Y35197751D01*
X-26053814Y35197751D02*
X-25841921Y35389412D01*
X-25841921Y35389412D02*
X-25803234Y35488615D01*
X-25803234Y35488615D02*
X-25799862Y35555874D01*
X-27234309Y34515223D02*
X-27587463Y34195788D01*
X-26972016Y34367218D02*
X-27890039Y34885237D01*
X-27890039Y34885237D02*
X-27466433Y33920008D01*
X-28525718Y34310253D02*
X-28596349Y34246366D01*
X-28596349Y34246366D02*
X-28635036Y34147163D01*
X-28635036Y34147163D02*
X-28638408Y34079904D01*
X-28638408Y34079904D02*
X-28609836Y33977330D01*
X-28609836Y33977330D02*
X-28517378Y33804124D01*
X-28517378Y33804124D02*
X-28357660Y33627547D01*
X-28357660Y33627547D02*
X-28194570Y33518229D01*
X-28194570Y33518229D02*
X-28095367Y33479541D01*
X-28095367Y33479541D02*
X-28028108Y33476170D01*
X-28028108Y33476170D02*
X-27925534Y33504741D01*
X-27925534Y33504741D02*
X-27854903Y33568628D01*
X-27854903Y33568628D02*
X-27816216Y33667831D01*
X-27816216Y33667831D02*
X-27812844Y33735090D01*
X-27812844Y33735090D02*
X-27841415Y33837665D01*
X-27841415Y33837665D02*
X-27933874Y34010870D01*
X-27933874Y34010870D02*
X-28093592Y34187447D01*
X-28093592Y34187447D02*
X-28256682Y34296766D01*
X-28256682Y34296766D02*
X-28355884Y34335453D01*
X-28355884Y34335453D02*
X-28423143Y34338825D01*
X-28423143Y34338825D02*
X-28525718Y34310253D01*
X-29141344Y32790270D02*
X-29494498Y32470834D01*
X-28879052Y32642265D02*
X-29797075Y33160284D01*
X-29797075Y33160284D02*
X-29373468Y32195055D01*
X-30192289Y32674387D02*
X-30259548Y32677759D01*
X-30259548Y32677759D02*
X-30362122Y32649187D01*
X-30362122Y32649187D02*
X-30538700Y32489469D01*
X-30538700Y32489469D02*
X-30577387Y32390267D01*
X-30577387Y32390267D02*
X-30580759Y32323008D01*
X-30580759Y32323008D02*
X-30552187Y32220433D01*
X-30552187Y32220433D02*
X-30488300Y32149802D01*
X-30488300Y32149802D02*
X-30357154Y32075799D01*
X-30357154Y32075799D02*
X-29550045Y32035337D01*
X-29550045Y32035337D02*
X-30009146Y31620070D01*
X-31048379Y31065317D02*
X-31401534Y30745881D01*
X-30786087Y30917311D02*
X-31704110Y31435331D01*
X-31704110Y31435331D02*
X-31280503Y30470101D01*
X-32292761Y30453421D02*
X-31845551Y29959004D01*
X-32371732Y30895662D02*
X-31716001Y30525648D01*
X-31716001Y30525648D02*
X-32175102Y30110382D01*
X-32955414Y29340364D02*
X-33308569Y29020928D01*
X-32693122Y29192358D02*
X-33611145Y29710378D01*
X-33611145Y29710378D02*
X-33187539Y28745148D01*
X-34423401Y28975676D02*
X-34282139Y29103450D01*
X-34282139Y29103450D02*
X-34179565Y29132022D01*
X-34179565Y29132022D02*
X-34112306Y29128650D01*
X-34112306Y29128650D02*
X-33945844Y29086590D01*
X-33945844Y29086590D02*
X-33782754Y28977272D01*
X-33782754Y28977272D02*
X-33527206Y28694748D01*
X-33527206Y28694748D02*
X-33498634Y28592174D01*
X-33498634Y28592174D02*
X-33502006Y28524915D01*
X-33502006Y28524915D02*
X-33540693Y28425712D01*
X-33540693Y28425712D02*
X-33681955Y28297938D01*
X-33681955Y28297938D02*
X-33784530Y28269366D01*
X-33784530Y28269366D02*
X-33851789Y28272738D01*
X-33851789Y28272738D02*
X-33950991Y28311426D01*
X-33950991Y28311426D02*
X-34110709Y28488003D01*
X-34110709Y28488003D02*
X-34139281Y28590577D01*
X-34139281Y28590577D02*
X-34135909Y28657836D01*
X-34135909Y28657836D02*
X-34097222Y28757039D01*
X-34097222Y28757039D02*
X-33955960Y28884813D01*
X-33955960Y28884813D02*
X-33853385Y28913385D01*
X-33853385Y28913385D02*
X-33786126Y28910013D01*
X-33786126Y28910013D02*
X-33686924Y28871326D01*
X5304047Y-24580952D02*
X4637380Y-24580952D01*
X5685000Y-24819047D02*
X4970714Y-25057142D01*
X4970714Y-25057142D02*
X4970714Y-24438095D01*
X5208809Y-23914285D02*
X5256428Y-24009523D01*
X5256428Y-24009523D02*
X5304047Y-24057142D01*
X5304047Y-24057142D02*
X5399285Y-24104761D01*
X5399285Y-24104761D02*
X5446904Y-24104761D01*
X5446904Y-24104761D02*
X5542142Y-24057142D01*
X5542142Y-24057142D02*
X5589761Y-24009523D01*
X5589761Y-24009523D02*
X5637380Y-23914285D01*
X5637380Y-23914285D02*
X5637380Y-23723809D01*
X5637380Y-23723809D02*
X5589761Y-23628571D01*
X5589761Y-23628571D02*
X5542142Y-23580952D01*
X5542142Y-23580952D02*
X5446904Y-23533333D01*
X5446904Y-23533333D02*
X5399285Y-23533333D01*
X5399285Y-23533333D02*
X5304047Y-23580952D01*
X5304047Y-23580952D02*
X5256428Y-23628571D01*
X5256428Y-23628571D02*
X5208809Y-23723809D01*
X5208809Y-23723809D02*
X5208809Y-23914285D01*
X5208809Y-23914285D02*
X5161190Y-24009523D01*
X5161190Y-24009523D02*
X5113571Y-24057142D01*
X5113571Y-24057142D02*
X5018333Y-24104761D01*
X5018333Y-24104761D02*
X4827857Y-24104761D01*
X4827857Y-24104761D02*
X4732619Y-24057142D01*
X4732619Y-24057142D02*
X4685000Y-24009523D01*
X4685000Y-24009523D02*
X4637380Y-23914285D01*
X4637380Y-23914285D02*
X4637380Y-23723809D01*
X4637380Y-23723809D02*
X4685000Y-23628571D01*
X4685000Y-23628571D02*
X4732619Y-23580952D01*
X4732619Y-23580952D02*
X4827857Y-23533333D01*
X4827857Y-23533333D02*
X5018333Y-23533333D01*
X5018333Y-23533333D02*
X5113571Y-23580952D01*
X5113571Y-23580952D02*
X5161190Y-23628571D01*
X5161190Y-23628571D02*
X5208809Y-23723809D01*
X5637380Y-22628571D02*
X5637380Y-23104761D01*
X5637380Y-23104761D02*
X5161190Y-23152380D01*
X5161190Y-23152380D02*
X5208809Y-23104761D01*
X5208809Y-23104761D02*
X5256428Y-23009523D01*
X5256428Y-23009523D02*
X5256428Y-22771428D01*
X5256428Y-22771428D02*
X5208809Y-22676190D01*
X5208809Y-22676190D02*
X5161190Y-22628571D01*
X5161190Y-22628571D02*
X5065952Y-22580952D01*
X5065952Y-22580952D02*
X4827857Y-22580952D01*
X4827857Y-22580952D02*
X4732619Y-22628571D01*
X4732619Y-22628571D02*
X4685000Y-22676190D01*
X4685000Y-22676190D02*
X4637380Y-22771428D01*
X4637380Y-22771428D02*
X4637380Y-23009523D01*
X4637380Y-23009523D02*
X4685000Y-23104761D01*
X4685000Y-23104761D02*
X4732619Y-23152380D01*
X5018333Y-22152380D02*
X5018333Y-21390476D01*
X4637380Y-21771428D02*
X5399285Y-21771428D01*
X2804047Y-24561904D02*
X2137380Y-24561904D01*
X3185000Y-24799999D02*
X2470714Y-25038094D01*
X2470714Y-25038094D02*
X2470714Y-24419047D01*
X2708809Y-23895237D02*
X2756428Y-23990475D01*
X2756428Y-23990475D02*
X2804047Y-24038094D01*
X2804047Y-24038094D02*
X2899285Y-24085713D01*
X2899285Y-24085713D02*
X2946904Y-24085713D01*
X2946904Y-24085713D02*
X3042142Y-24038094D01*
X3042142Y-24038094D02*
X3089761Y-23990475D01*
X3089761Y-23990475D02*
X3137380Y-23895237D01*
X3137380Y-23895237D02*
X3137380Y-23704761D01*
X3137380Y-23704761D02*
X3089761Y-23609523D01*
X3089761Y-23609523D02*
X3042142Y-23561904D01*
X3042142Y-23561904D02*
X2946904Y-23514285D01*
X2946904Y-23514285D02*
X2899285Y-23514285D01*
X2899285Y-23514285D02*
X2804047Y-23561904D01*
X2804047Y-23561904D02*
X2756428Y-23609523D01*
X2756428Y-23609523D02*
X2708809Y-23704761D01*
X2708809Y-23704761D02*
X2708809Y-23895237D01*
X2708809Y-23895237D02*
X2661190Y-23990475D01*
X2661190Y-23990475D02*
X2613571Y-24038094D01*
X2613571Y-24038094D02*
X2518333Y-24085713D01*
X2518333Y-24085713D02*
X2327857Y-24085713D01*
X2327857Y-24085713D02*
X2232619Y-24038094D01*
X2232619Y-24038094D02*
X2185000Y-23990475D01*
X2185000Y-23990475D02*
X2137380Y-23895237D01*
X2137380Y-23895237D02*
X2137380Y-23704761D01*
X2137380Y-23704761D02*
X2185000Y-23609523D01*
X2185000Y-23609523D02*
X2232619Y-23561904D01*
X2232619Y-23561904D02*
X2327857Y-23514285D01*
X2327857Y-23514285D02*
X2518333Y-23514285D01*
X2518333Y-23514285D02*
X2613571Y-23561904D01*
X2613571Y-23561904D02*
X2661190Y-23609523D01*
X2661190Y-23609523D02*
X2708809Y-23704761D01*
X3137380Y-22609523D02*
X3137380Y-23085713D01*
X3137380Y-23085713D02*
X2661190Y-23133332D01*
X2661190Y-23133332D02*
X2708809Y-23085713D01*
X2708809Y-23085713D02*
X2756428Y-22990475D01*
X2756428Y-22990475D02*
X2756428Y-22752380D01*
X2756428Y-22752380D02*
X2708809Y-22657142D01*
X2708809Y-22657142D02*
X2661190Y-22609523D01*
X2661190Y-22609523D02*
X2565952Y-22561904D01*
X2565952Y-22561904D02*
X2327857Y-22561904D01*
X2327857Y-22561904D02*
X2232619Y-22609523D01*
X2232619Y-22609523D02*
X2185000Y-22657142D01*
X2185000Y-22657142D02*
X2137380Y-22752380D01*
X2137380Y-22752380D02*
X2137380Y-22990475D01*
X2137380Y-22990475D02*
X2185000Y-23085713D01*
X2185000Y-23085713D02*
X2232619Y-23133332D01*
X3089761Y-21609523D02*
X3137380Y-21704761D01*
X3137380Y-21704761D02*
X3137380Y-21847618D01*
X3137380Y-21847618D02*
X3089761Y-21990475D01*
X3089761Y-21990475D02*
X2994523Y-22085713D01*
X2994523Y-22085713D02*
X2899285Y-22133332D01*
X2899285Y-22133332D02*
X2708809Y-22180951D01*
X2708809Y-22180951D02*
X2565952Y-22180951D01*
X2565952Y-22180951D02*
X2375476Y-22133332D01*
X2375476Y-22133332D02*
X2280238Y-22085713D01*
X2280238Y-22085713D02*
X2185000Y-21990475D01*
X2185000Y-21990475D02*
X2137380Y-21847618D01*
X2137380Y-21847618D02*
X2137380Y-21752380D01*
X2137380Y-21752380D02*
X2185000Y-21609523D01*
X2185000Y-21609523D02*
X2232619Y-21561904D01*
X2232619Y-21561904D02*
X2565952Y-21561904D01*
X2565952Y-21561904D02*
X2565952Y-21752380D01*
X204047Y-24580952D02*
X-462619Y-24580952D01*
X585000Y-24819047D02*
X-129285Y-25057142D01*
X-129285Y-25057142D02*
X-129285Y-24438095D01*
X108809Y-23914285D02*
X156428Y-24009523D01*
X156428Y-24009523D02*
X204047Y-24057142D01*
X204047Y-24057142D02*
X299285Y-24104761D01*
X299285Y-24104761D02*
X346904Y-24104761D01*
X346904Y-24104761D02*
X442142Y-24057142D01*
X442142Y-24057142D02*
X489761Y-24009523D01*
X489761Y-24009523D02*
X537380Y-23914285D01*
X537380Y-23914285D02*
X537380Y-23723809D01*
X537380Y-23723809D02*
X489761Y-23628571D01*
X489761Y-23628571D02*
X442142Y-23580952D01*
X442142Y-23580952D02*
X346904Y-23533333D01*
X346904Y-23533333D02*
X299285Y-23533333D01*
X299285Y-23533333D02*
X204047Y-23580952D01*
X204047Y-23580952D02*
X156428Y-23628571D01*
X156428Y-23628571D02*
X108809Y-23723809D01*
X108809Y-23723809D02*
X108809Y-23914285D01*
X108809Y-23914285D02*
X61190Y-24009523D01*
X61190Y-24009523D02*
X13571Y-24057142D01*
X13571Y-24057142D02*
X-81666Y-24104761D01*
X-81666Y-24104761D02*
X-272142Y-24104761D01*
X-272142Y-24104761D02*
X-367380Y-24057142D01*
X-367380Y-24057142D02*
X-415000Y-24009523D01*
X-415000Y-24009523D02*
X-462619Y-23914285D01*
X-462619Y-23914285D02*
X-462619Y-23723809D01*
X-462619Y-23723809D02*
X-415000Y-23628571D01*
X-415000Y-23628571D02*
X-367380Y-23580952D01*
X-367380Y-23580952D02*
X-272142Y-23533333D01*
X-272142Y-23533333D02*
X-81666Y-23533333D01*
X-81666Y-23533333D02*
X13571Y-23580952D01*
X13571Y-23580952D02*
X61190Y-23628571D01*
X61190Y-23628571D02*
X108809Y-23723809D01*
X537380Y-22628571D02*
X537380Y-23104761D01*
X537380Y-23104761D02*
X61190Y-23152380D01*
X61190Y-23152380D02*
X108809Y-23104761D01*
X108809Y-23104761D02*
X156428Y-23009523D01*
X156428Y-23009523D02*
X156428Y-22771428D01*
X156428Y-22771428D02*
X108809Y-22676190D01*
X108809Y-22676190D02*
X61190Y-22628571D01*
X61190Y-22628571D02*
X-34047Y-22580952D01*
X-34047Y-22580952D02*
X-272142Y-22580952D01*
X-272142Y-22580952D02*
X-367380Y-22628571D01*
X-367380Y-22628571D02*
X-415000Y-22676190D01*
X-415000Y-22676190D02*
X-462619Y-22771428D01*
X-462619Y-22771428D02*
X-462619Y-23009523D01*
X-462619Y-23009523D02*
X-415000Y-23104761D01*
X-415000Y-23104761D02*
X-367380Y-23152380D01*
X-81666Y-22152380D02*
X-81666Y-21390476D01*
X-2157857Y-24928570D02*
X-2110238Y-24880951D01*
X-2110238Y-24880951D02*
X-2062619Y-24785713D01*
X-2062619Y-24785713D02*
X-2062619Y-24547618D01*
X-2062619Y-24547618D02*
X-2110238Y-24452380D01*
X-2110238Y-24452380D02*
X-2157857Y-24404761D01*
X-2157857Y-24404761D02*
X-2253095Y-24357142D01*
X-2253095Y-24357142D02*
X-2348333Y-24357142D01*
X-2348333Y-24357142D02*
X-2491190Y-24404761D01*
X-2491190Y-24404761D02*
X-3062619Y-24976189D01*
X-3062619Y-24976189D02*
X-3062619Y-24357142D01*
X-2395952Y-23499999D02*
X-3062619Y-23499999D01*
X-2015000Y-23738094D02*
X-2729285Y-23976189D01*
X-2729285Y-23976189D02*
X-2729285Y-23357142D01*
X-2062619Y-23119046D02*
X-3062619Y-22785713D01*
X-3062619Y-22785713D02*
X-2062619Y-22452380D01*
X-3062619Y-22119046D02*
X-2395952Y-22119046D01*
X-2062619Y-22119046D02*
X-2110238Y-22166665D01*
X-2110238Y-22166665D02*
X-2157857Y-22119046D01*
X-2157857Y-22119046D02*
X-2110238Y-22071427D01*
X-2110238Y-22071427D02*
X-2062619Y-22119046D01*
X-2062619Y-22119046D02*
X-2157857Y-22119046D01*
X-4610238Y-24461904D02*
X-4562619Y-24557142D01*
X-4562619Y-24557142D02*
X-4562619Y-24699999D01*
X-4562619Y-24699999D02*
X-4610238Y-24842856D01*
X-4610238Y-24842856D02*
X-4705476Y-24938094D01*
X-4705476Y-24938094D02*
X-4800714Y-24985713D01*
X-4800714Y-24985713D02*
X-4991190Y-25033332D01*
X-4991190Y-25033332D02*
X-5134047Y-25033332D01*
X-5134047Y-25033332D02*
X-5324523Y-24985713D01*
X-5324523Y-24985713D02*
X-5419761Y-24938094D01*
X-5419761Y-24938094D02*
X-5515000Y-24842856D01*
X-5515000Y-24842856D02*
X-5562619Y-24699999D01*
X-5562619Y-24699999D02*
X-5562619Y-24604761D01*
X-5562619Y-24604761D02*
X-5515000Y-24461904D01*
X-5515000Y-24461904D02*
X-5467380Y-24414285D01*
X-5467380Y-24414285D02*
X-5134047Y-24414285D01*
X-5134047Y-24414285D02*
X-5134047Y-24604761D01*
X-5562619Y-23985713D02*
X-4562619Y-23985713D01*
X-4562619Y-23985713D02*
X-5562619Y-23414285D01*
X-5562619Y-23414285D02*
X-4562619Y-23414285D01*
X-5562619Y-22938094D02*
X-4562619Y-22938094D01*
X-4562619Y-22938094D02*
X-4562619Y-22699999D01*
X-4562619Y-22699999D02*
X-4610238Y-22557142D01*
X-4610238Y-22557142D02*
X-4705476Y-22461904D01*
X-4705476Y-22461904D02*
X-4800714Y-22414285D01*
X-4800714Y-22414285D02*
X-4991190Y-22366666D01*
X-4991190Y-22366666D02*
X-5134047Y-22366666D01*
X-5134047Y-22366666D02*
X-5324523Y-22414285D01*
X-5324523Y-22414285D02*
X-5419761Y-22461904D01*
X-5419761Y-22461904D02*
X-5515000Y-22557142D01*
X-5515000Y-22557142D02*
X-5562619Y-22699999D01*
X-5562619Y-22699999D02*
X-5562619Y-22938094D01*
X11085713Y-9062619D02*
X10514285Y-9062619D01*
X10799999Y-10062619D02*
X10799999Y-9062619D01*
X10180951Y-10062619D02*
X10180951Y-9062619D01*
X10180951Y-9062619D02*
X9799999Y-9062619D01*
X9799999Y-9062619D02*
X9704761Y-9110238D01*
X9704761Y-9110238D02*
X9657142Y-9157857D01*
X9657142Y-9157857D02*
X9609523Y-9253095D01*
X9609523Y-9253095D02*
X9609523Y-9395952D01*
X9609523Y-9395952D02*
X9657142Y-9491190D01*
X9657142Y-9491190D02*
X9704761Y-9538809D01*
X9704761Y-9538809D02*
X9799999Y-9586428D01*
X9799999Y-9586428D02*
X10180951Y-9586428D01*
X10542142Y-6342856D02*
X10589761Y-6295237D01*
X10589761Y-6295237D02*
X10637380Y-6199999D01*
X10637380Y-6199999D02*
X10637380Y-5961904D01*
X10637380Y-5961904D02*
X10589761Y-5866666D01*
X10589761Y-5866666D02*
X10542142Y-5819047D01*
X10542142Y-5819047D02*
X10446904Y-5771428D01*
X10446904Y-5771428D02*
X10351666Y-5771428D01*
X10351666Y-5771428D02*
X10208809Y-5819047D01*
X10208809Y-5819047D02*
X9637380Y-6390475D01*
X9637380Y-6390475D02*
X9637380Y-5771428D01*
X10304047Y-4914285D02*
X9637380Y-4914285D01*
X10685000Y-5152380D02*
X9970714Y-5390475D01*
X9970714Y-5390475D02*
X9970714Y-4771428D01*
X10637380Y-4533332D02*
X9637380Y-4199999D01*
X9637380Y-4199999D02*
X10637380Y-3866666D01*
X9637380Y-3390475D02*
X9685000Y-3485713D01*
X9685000Y-3485713D02*
X9732619Y-3533332D01*
X9732619Y-3533332D02*
X9827857Y-3580951D01*
X9827857Y-3580951D02*
X10113571Y-3580951D01*
X10113571Y-3580951D02*
X10208809Y-3533332D01*
X10208809Y-3533332D02*
X10256428Y-3485713D01*
X10256428Y-3485713D02*
X10304047Y-3390475D01*
X10304047Y-3390475D02*
X10304047Y-3247618D01*
X10304047Y-3247618D02*
X10256428Y-3152380D01*
X10256428Y-3152380D02*
X10208809Y-3104761D01*
X10208809Y-3104761D02*
X10113571Y-3057142D01*
X10113571Y-3057142D02*
X9827857Y-3057142D01*
X9827857Y-3057142D02*
X9732619Y-3104761D01*
X9732619Y-3104761D02*
X9685000Y-3152380D01*
X9685000Y-3152380D02*
X9637380Y-3247618D01*
X9637380Y-3247618D02*
X9637380Y-3390475D01*
X13337380Y-5490094D02*
X12337380Y-5156761D01*
X12337380Y-5156761D02*
X13337380Y-4823428D01*
X12337380Y-4347237D02*
X12385000Y-4442475D01*
X12385000Y-4442475D02*
X12432619Y-4490094D01*
X12432619Y-4490094D02*
X12527857Y-4537713D01*
X12527857Y-4537713D02*
X12813571Y-4537713D01*
X12813571Y-4537713D02*
X12908809Y-4490094D01*
X12908809Y-4490094D02*
X12956428Y-4442475D01*
X12956428Y-4442475D02*
X13004047Y-4347237D01*
X13004047Y-4347237D02*
X13004047Y-4204380D01*
X13004047Y-4204380D02*
X12956428Y-4109142D01*
X12956428Y-4109142D02*
X12908809Y-4061523D01*
X12908809Y-4061523D02*
X12813571Y-4013904D01*
X12813571Y-4013904D02*
X12527857Y-4013904D01*
X12527857Y-4013904D02*
X12432619Y-4061523D01*
X12432619Y-4061523D02*
X12385000Y-4109142D01*
X12385000Y-4109142D02*
X12337380Y-4204380D01*
X12337380Y-4204380D02*
X12337380Y-4347237D01*
X13004047Y-3585332D02*
X12337380Y-3585332D01*
X12908809Y-3585332D02*
X12956428Y-3537713D01*
X12956428Y-3537713D02*
X13004047Y-3442475D01*
X13004047Y-3442475D02*
X13004047Y-3299618D01*
X13004047Y-3299618D02*
X12956428Y-3204380D01*
X12956428Y-3204380D02*
X12861190Y-3156761D01*
X12861190Y-3156761D02*
X12337380Y-3156761D01*
X15544047Y-6267952D02*
X14877380Y-6267952D01*
X15925000Y-6506047D02*
X15210714Y-6744142D01*
X15210714Y-6744142D02*
X15210714Y-6125095D01*
X15448809Y-5601285D02*
X15496428Y-5696523D01*
X15496428Y-5696523D02*
X15544047Y-5744142D01*
X15544047Y-5744142D02*
X15639285Y-5791761D01*
X15639285Y-5791761D02*
X15686904Y-5791761D01*
X15686904Y-5791761D02*
X15782142Y-5744142D01*
X15782142Y-5744142D02*
X15829761Y-5696523D01*
X15829761Y-5696523D02*
X15877380Y-5601285D01*
X15877380Y-5601285D02*
X15877380Y-5410809D01*
X15877380Y-5410809D02*
X15829761Y-5315571D01*
X15829761Y-5315571D02*
X15782142Y-5267952D01*
X15782142Y-5267952D02*
X15686904Y-5220333D01*
X15686904Y-5220333D02*
X15639285Y-5220333D01*
X15639285Y-5220333D02*
X15544047Y-5267952D01*
X15544047Y-5267952D02*
X15496428Y-5315571D01*
X15496428Y-5315571D02*
X15448809Y-5410809D01*
X15448809Y-5410809D02*
X15448809Y-5601285D01*
X15448809Y-5601285D02*
X15401190Y-5696523D01*
X15401190Y-5696523D02*
X15353571Y-5744142D01*
X15353571Y-5744142D02*
X15258333Y-5791761D01*
X15258333Y-5791761D02*
X15067857Y-5791761D01*
X15067857Y-5791761D02*
X14972619Y-5744142D01*
X14972619Y-5744142D02*
X14925000Y-5696523D01*
X14925000Y-5696523D02*
X14877380Y-5601285D01*
X14877380Y-5601285D02*
X14877380Y-5410809D01*
X14877380Y-5410809D02*
X14925000Y-5315571D01*
X14925000Y-5315571D02*
X14972619Y-5267952D01*
X14972619Y-5267952D02*
X15067857Y-5220333D01*
X15067857Y-5220333D02*
X15258333Y-5220333D01*
X15258333Y-5220333D02*
X15353571Y-5267952D01*
X15353571Y-5267952D02*
X15401190Y-5315571D01*
X15401190Y-5315571D02*
X15448809Y-5410809D01*
X15877380Y-4315571D02*
X15877380Y-4791761D01*
X15877380Y-4791761D02*
X15401190Y-4839380D01*
X15401190Y-4839380D02*
X15448809Y-4791761D01*
X15448809Y-4791761D02*
X15496428Y-4696523D01*
X15496428Y-4696523D02*
X15496428Y-4458428D01*
X15496428Y-4458428D02*
X15448809Y-4363190D01*
X15448809Y-4363190D02*
X15401190Y-4315571D01*
X15401190Y-4315571D02*
X15305952Y-4267952D01*
X15305952Y-4267952D02*
X15067857Y-4267952D01*
X15067857Y-4267952D02*
X14972619Y-4315571D01*
X14972619Y-4315571D02*
X14925000Y-4363190D01*
X14925000Y-4363190D02*
X14877380Y-4458428D01*
X14877380Y-4458428D02*
X14877380Y-4696523D01*
X14877380Y-4696523D02*
X14925000Y-4791761D01*
X14925000Y-4791761D02*
X14972619Y-4839380D01*
X15258333Y-3839380D02*
X15258333Y-3077476D01*
X17984047Y-6341904D02*
X17317380Y-6341904D01*
X18365000Y-6579999D02*
X17650714Y-6818094D01*
X17650714Y-6818094D02*
X17650714Y-6199047D01*
X17888809Y-5675237D02*
X17936428Y-5770475D01*
X17936428Y-5770475D02*
X17984047Y-5818094D01*
X17984047Y-5818094D02*
X18079285Y-5865713D01*
X18079285Y-5865713D02*
X18126904Y-5865713D01*
X18126904Y-5865713D02*
X18222142Y-5818094D01*
X18222142Y-5818094D02*
X18269761Y-5770475D01*
X18269761Y-5770475D02*
X18317380Y-5675237D01*
X18317380Y-5675237D02*
X18317380Y-5484761D01*
X18317380Y-5484761D02*
X18269761Y-5389523D01*
X18269761Y-5389523D02*
X18222142Y-5341904D01*
X18222142Y-5341904D02*
X18126904Y-5294285D01*
X18126904Y-5294285D02*
X18079285Y-5294285D01*
X18079285Y-5294285D02*
X17984047Y-5341904D01*
X17984047Y-5341904D02*
X17936428Y-5389523D01*
X17936428Y-5389523D02*
X17888809Y-5484761D01*
X17888809Y-5484761D02*
X17888809Y-5675237D01*
X17888809Y-5675237D02*
X17841190Y-5770475D01*
X17841190Y-5770475D02*
X17793571Y-5818094D01*
X17793571Y-5818094D02*
X17698333Y-5865713D01*
X17698333Y-5865713D02*
X17507857Y-5865713D01*
X17507857Y-5865713D02*
X17412619Y-5818094D01*
X17412619Y-5818094D02*
X17365000Y-5770475D01*
X17365000Y-5770475D02*
X17317380Y-5675237D01*
X17317380Y-5675237D02*
X17317380Y-5484761D01*
X17317380Y-5484761D02*
X17365000Y-5389523D01*
X17365000Y-5389523D02*
X17412619Y-5341904D01*
X17412619Y-5341904D02*
X17507857Y-5294285D01*
X17507857Y-5294285D02*
X17698333Y-5294285D01*
X17698333Y-5294285D02*
X17793571Y-5341904D01*
X17793571Y-5341904D02*
X17841190Y-5389523D01*
X17841190Y-5389523D02*
X17888809Y-5484761D01*
X18317380Y-4389523D02*
X18317380Y-4865713D01*
X18317380Y-4865713D02*
X17841190Y-4913332D01*
X17841190Y-4913332D02*
X17888809Y-4865713D01*
X17888809Y-4865713D02*
X17936428Y-4770475D01*
X17936428Y-4770475D02*
X17936428Y-4532380D01*
X17936428Y-4532380D02*
X17888809Y-4437142D01*
X17888809Y-4437142D02*
X17841190Y-4389523D01*
X17841190Y-4389523D02*
X17745952Y-4341904D01*
X17745952Y-4341904D02*
X17507857Y-4341904D01*
X17507857Y-4341904D02*
X17412619Y-4389523D01*
X17412619Y-4389523D02*
X17365000Y-4437142D01*
X17365000Y-4437142D02*
X17317380Y-4532380D01*
X17317380Y-4532380D02*
X17317380Y-4770475D01*
X17317380Y-4770475D02*
X17365000Y-4865713D01*
X17365000Y-4865713D02*
X17412619Y-4913332D01*
X18269761Y-3389523D02*
X18317380Y-3484761D01*
X18317380Y-3484761D02*
X18317380Y-3627618D01*
X18317380Y-3627618D02*
X18269761Y-3770475D01*
X18269761Y-3770475D02*
X18174523Y-3865713D01*
X18174523Y-3865713D02*
X18079285Y-3913332D01*
X18079285Y-3913332D02*
X17888809Y-3960951D01*
X17888809Y-3960951D02*
X17745952Y-3960951D01*
X17745952Y-3960951D02*
X17555476Y-3913332D01*
X17555476Y-3913332D02*
X17460238Y-3865713D01*
X17460238Y-3865713D02*
X17365000Y-3770475D01*
X17365000Y-3770475D02*
X17317380Y-3627618D01*
X17317380Y-3627618D02*
X17317380Y-3532380D01*
X17317380Y-3532380D02*
X17365000Y-3389523D01*
X17365000Y-3389523D02*
X17412619Y-3341904D01*
X17412619Y-3341904D02*
X17745952Y-3341904D01*
X17745952Y-3341904D02*
X17745952Y-3532380D01*
X18417380Y3080952D02*
X18417380Y3699999D01*
X18417380Y3699999D02*
X18036428Y3366666D01*
X18036428Y3366666D02*
X18036428Y3509523D01*
X18036428Y3509523D02*
X17988809Y3604761D01*
X17988809Y3604761D02*
X17941190Y3652380D01*
X17941190Y3652380D02*
X17845952Y3699999D01*
X17845952Y3699999D02*
X17607857Y3699999D01*
X17607857Y3699999D02*
X17512619Y3652380D01*
X17512619Y3652380D02*
X17465000Y3604761D01*
X17465000Y3604761D02*
X17417380Y3509523D01*
X17417380Y3509523D02*
X17417380Y3223809D01*
X17417380Y3223809D02*
X17465000Y3128571D01*
X17465000Y3128571D02*
X17512619Y3080952D01*
X18417380Y3985714D02*
X17417380Y4319047D01*
X17417380Y4319047D02*
X18417380Y4652380D01*
X18417380Y4890476D02*
X18417380Y5509523D01*
X18417380Y5509523D02*
X18036428Y5176190D01*
X18036428Y5176190D02*
X18036428Y5319047D01*
X18036428Y5319047D02*
X17988809Y5414285D01*
X17988809Y5414285D02*
X17941190Y5461904D01*
X17941190Y5461904D02*
X17845952Y5509523D01*
X17845952Y5509523D02*
X17607857Y5509523D01*
X17607857Y5509523D02*
X17512619Y5461904D01*
X17512619Y5461904D02*
X17465000Y5414285D01*
X17465000Y5414285D02*
X17417380Y5319047D01*
X17417380Y5319047D02*
X17417380Y5033333D01*
X17417380Y5033333D02*
X17465000Y4938095D01*
X17465000Y4938095D02*
X17512619Y4890476D01*
X18417380Y6080952D02*
X18179285Y6080952D01*
X18274523Y5842857D02*
X18179285Y6080952D01*
X18179285Y6080952D02*
X18274523Y6319047D01*
X17988809Y5938095D02*
X18179285Y6080952D01*
X18179285Y6080952D02*
X17988809Y6223809D01*
X15544047Y3638047D02*
X14877380Y3638047D01*
X15925000Y3399952D02*
X15210714Y3161857D01*
X15210714Y3161857D02*
X15210714Y3780904D01*
X15448809Y4304714D02*
X15496428Y4209476D01*
X15496428Y4209476D02*
X15544047Y4161857D01*
X15544047Y4161857D02*
X15639285Y4114238D01*
X15639285Y4114238D02*
X15686904Y4114238D01*
X15686904Y4114238D02*
X15782142Y4161857D01*
X15782142Y4161857D02*
X15829761Y4209476D01*
X15829761Y4209476D02*
X15877380Y4304714D01*
X15877380Y4304714D02*
X15877380Y4495190D01*
X15877380Y4495190D02*
X15829761Y4590428D01*
X15829761Y4590428D02*
X15782142Y4638047D01*
X15782142Y4638047D02*
X15686904Y4685666D01*
X15686904Y4685666D02*
X15639285Y4685666D01*
X15639285Y4685666D02*
X15544047Y4638047D01*
X15544047Y4638047D02*
X15496428Y4590428D01*
X15496428Y4590428D02*
X15448809Y4495190D01*
X15448809Y4495190D02*
X15448809Y4304714D01*
X15448809Y4304714D02*
X15401190Y4209476D01*
X15401190Y4209476D02*
X15353571Y4161857D01*
X15353571Y4161857D02*
X15258333Y4114238D01*
X15258333Y4114238D02*
X15067857Y4114238D01*
X15067857Y4114238D02*
X14972619Y4161857D01*
X14972619Y4161857D02*
X14925000Y4209476D01*
X14925000Y4209476D02*
X14877380Y4304714D01*
X14877380Y4304714D02*
X14877380Y4495190D01*
X14877380Y4495190D02*
X14925000Y4590428D01*
X14925000Y4590428D02*
X14972619Y4638047D01*
X14972619Y4638047D02*
X15067857Y4685666D01*
X15067857Y4685666D02*
X15258333Y4685666D01*
X15258333Y4685666D02*
X15353571Y4638047D01*
X15353571Y4638047D02*
X15401190Y4590428D01*
X15401190Y4590428D02*
X15448809Y4495190D01*
X15877380Y5590428D02*
X15877380Y5114238D01*
X15877380Y5114238D02*
X15401190Y5066619D01*
X15401190Y5066619D02*
X15448809Y5114238D01*
X15448809Y5114238D02*
X15496428Y5209476D01*
X15496428Y5209476D02*
X15496428Y5447571D01*
X15496428Y5447571D02*
X15448809Y5542809D01*
X15448809Y5542809D02*
X15401190Y5590428D01*
X15401190Y5590428D02*
X15305952Y5638047D01*
X15305952Y5638047D02*
X15067857Y5638047D01*
X15067857Y5638047D02*
X14972619Y5590428D01*
X14972619Y5590428D02*
X14925000Y5542809D01*
X14925000Y5542809D02*
X14877380Y5447571D01*
X14877380Y5447571D02*
X14877380Y5209476D01*
X14877380Y5209476D02*
X14925000Y5114238D01*
X14925000Y5114238D02*
X14972619Y5066619D01*
X15258333Y6066619D02*
X15258333Y6828524D01*
X14877380Y6447571D02*
X15639285Y6447571D01*
X12432619Y3471428D02*
X12385000Y3423809D01*
X12385000Y3423809D02*
X12337380Y3280952D01*
X12337380Y3280952D02*
X12337380Y3185714D01*
X12337380Y3185714D02*
X12385000Y3042857D01*
X12385000Y3042857D02*
X12480238Y2947619D01*
X12480238Y2947619D02*
X12575476Y2900000D01*
X12575476Y2900000D02*
X12765952Y2852381D01*
X12765952Y2852381D02*
X12908809Y2852381D01*
X12908809Y2852381D02*
X13099285Y2900000D01*
X13099285Y2900000D02*
X13194523Y2947619D01*
X13194523Y2947619D02*
X13289761Y3042857D01*
X13289761Y3042857D02*
X13337380Y3185714D01*
X13337380Y3185714D02*
X13337380Y3280952D01*
X13337380Y3280952D02*
X13289761Y3423809D01*
X13289761Y3423809D02*
X13242142Y3471428D01*
X12623095Y3852381D02*
X12623095Y4328571D01*
X12337380Y3757143D02*
X13337380Y4090476D01*
X13337380Y4090476D02*
X12337380Y4423809D01*
X12385000Y4709524D02*
X12337380Y4852381D01*
X12337380Y4852381D02*
X12337380Y5090476D01*
X12337380Y5090476D02*
X12385000Y5185714D01*
X12385000Y5185714D02*
X12432619Y5233333D01*
X12432619Y5233333D02*
X12527857Y5280952D01*
X12527857Y5280952D02*
X12623095Y5280952D01*
X12623095Y5280952D02*
X12718333Y5233333D01*
X12718333Y5233333D02*
X12765952Y5185714D01*
X12765952Y5185714D02*
X12813571Y5090476D01*
X12813571Y5090476D02*
X12861190Y4900000D01*
X12861190Y4900000D02*
X12908809Y4804762D01*
X12908809Y4804762D02*
X12956428Y4757143D01*
X12956428Y4757143D02*
X13051666Y4709524D01*
X13051666Y4709524D02*
X13146904Y4709524D01*
X13146904Y4709524D02*
X13242142Y4757143D01*
X13242142Y4757143D02*
X13289761Y4804762D01*
X13289761Y4804762D02*
X13337380Y4900000D01*
X13337380Y4900000D02*
X13337380Y5138095D01*
X13337380Y5138095D02*
X13289761Y5280952D01*
X12861190Y5709524D02*
X12861190Y6042857D01*
X12337380Y6185714D02*
X12337380Y5709524D01*
X12337380Y5709524D02*
X13337380Y5709524D01*
X13337380Y5709524D02*
X13337380Y6185714D01*
X13337380Y6757143D02*
X13099285Y6757143D01*
X13194523Y6519048D02*
X13099285Y6757143D01*
X13099285Y6757143D02*
X13194523Y6995238D01*
X12908809Y6614286D02*
X13099285Y6757143D01*
X13099285Y6757143D02*
X12908809Y6900000D01*
X10642142Y2957143D02*
X10689761Y3004762D01*
X10689761Y3004762D02*
X10737380Y3100000D01*
X10737380Y3100000D02*
X10737380Y3338095D01*
X10737380Y3338095D02*
X10689761Y3433333D01*
X10689761Y3433333D02*
X10642142Y3480952D01*
X10642142Y3480952D02*
X10546904Y3528571D01*
X10546904Y3528571D02*
X10451666Y3528571D01*
X10451666Y3528571D02*
X10308809Y3480952D01*
X10308809Y3480952D02*
X9737380Y2909524D01*
X9737380Y2909524D02*
X9737380Y3528571D01*
X10404047Y4385714D02*
X9737380Y4385714D01*
X10785000Y4147619D02*
X10070714Y3909524D01*
X10070714Y3909524D02*
X10070714Y4528571D01*
X10737380Y4766667D02*
X9737380Y5100000D01*
X9737380Y5100000D02*
X10737380Y5433333D01*
X9737380Y5909524D02*
X9785000Y5814286D01*
X9785000Y5814286D02*
X9832619Y5766667D01*
X9832619Y5766667D02*
X9927857Y5719048D01*
X9927857Y5719048D02*
X10213571Y5719048D01*
X10213571Y5719048D02*
X10308809Y5766667D01*
X10308809Y5766667D02*
X10356428Y5814286D01*
X10356428Y5814286D02*
X10404047Y5909524D01*
X10404047Y5909524D02*
X10404047Y6052381D01*
X10404047Y6052381D02*
X10356428Y6147619D01*
X10356428Y6147619D02*
X10308809Y6195238D01*
X10308809Y6195238D02*
X10213571Y6242857D01*
X10213571Y6242857D02*
X9927857Y6242857D01*
X9927857Y6242857D02*
X9832619Y6195238D01*
X9832619Y6195238D02*
X9785000Y6147619D01*
X9785000Y6147619D02*
X9737380Y6052381D01*
X9737380Y6052381D02*
X9737380Y5909524D01*
X8209761Y3495095D02*
X8257380Y3399857D01*
X8257380Y3399857D02*
X8257380Y3257000D01*
X8257380Y3257000D02*
X8209761Y3114143D01*
X8209761Y3114143D02*
X8114523Y3018905D01*
X8114523Y3018905D02*
X8019285Y2971286D01*
X8019285Y2971286D02*
X7828809Y2923667D01*
X7828809Y2923667D02*
X7685952Y2923667D01*
X7685952Y2923667D02*
X7495476Y2971286D01*
X7495476Y2971286D02*
X7400238Y3018905D01*
X7400238Y3018905D02*
X7305000Y3114143D01*
X7305000Y3114143D02*
X7257380Y3257000D01*
X7257380Y3257000D02*
X7257380Y3352238D01*
X7257380Y3352238D02*
X7305000Y3495095D01*
X7305000Y3495095D02*
X7352619Y3542714D01*
X7352619Y3542714D02*
X7685952Y3542714D01*
X7685952Y3542714D02*
X7685952Y3352238D01*
X7257380Y3971286D02*
X8257380Y3971286D01*
X8257380Y3971286D02*
X7257380Y4542714D01*
X7257380Y4542714D02*
X8257380Y4542714D01*
X7257380Y5018905D02*
X8257380Y5018905D01*
X8257380Y5018905D02*
X8257380Y5257000D01*
X8257380Y5257000D02*
X8209761Y5399857D01*
X8209761Y5399857D02*
X8114523Y5495095D01*
X8114523Y5495095D02*
X8019285Y5542714D01*
X8019285Y5542714D02*
X7828809Y5590333D01*
X7828809Y5590333D02*
X7685952Y5590333D01*
X7685952Y5590333D02*
X7495476Y5542714D01*
X7495476Y5542714D02*
X7400238Y5495095D01*
X7400238Y5495095D02*
X7305000Y5399857D01*
X7305000Y5399857D02*
X7257380Y5257000D01*
X7257380Y5257000D02*
X7257380Y5018905D01*
X8209761Y-5140904D02*
X8257380Y-5236142D01*
X8257380Y-5236142D02*
X8257380Y-5378999D01*
X8257380Y-5378999D02*
X8209761Y-5521856D01*
X8209761Y-5521856D02*
X8114523Y-5617094D01*
X8114523Y-5617094D02*
X8019285Y-5664713D01*
X8019285Y-5664713D02*
X7828809Y-5712332D01*
X7828809Y-5712332D02*
X7685952Y-5712332D01*
X7685952Y-5712332D02*
X7495476Y-5664713D01*
X7495476Y-5664713D02*
X7400238Y-5617094D01*
X7400238Y-5617094D02*
X7305000Y-5521856D01*
X7305000Y-5521856D02*
X7257380Y-5378999D01*
X7257380Y-5378999D02*
X7257380Y-5283761D01*
X7257380Y-5283761D02*
X7305000Y-5140904D01*
X7305000Y-5140904D02*
X7352619Y-5093285D01*
X7352619Y-5093285D02*
X7685952Y-5093285D01*
X7685952Y-5093285D02*
X7685952Y-5283761D01*
X7257380Y-4664713D02*
X8257380Y-4664713D01*
X8257380Y-4664713D02*
X7257380Y-4093285D01*
X7257380Y-4093285D02*
X8257380Y-4093285D01*
X7257380Y-3617094D02*
X8257380Y-3617094D01*
X8257380Y-3617094D02*
X8257380Y-3378999D01*
X8257380Y-3378999D02*
X8209761Y-3236142D01*
X8209761Y-3236142D02*
X8114523Y-3140904D01*
X8114523Y-3140904D02*
X8019285Y-3093285D01*
X8019285Y-3093285D02*
X7828809Y-3045666D01*
X7828809Y-3045666D02*
X7685952Y-3045666D01*
X7685952Y-3045666D02*
X7495476Y-3093285D01*
X7495476Y-3093285D02*
X7400238Y-3140904D01*
X7400238Y-3140904D02*
X7305000Y-3236142D01*
X7305000Y-3236142D02*
X7257380Y-3378999D01*
X7257380Y-3378999D02*
X7257380Y-3617094D01*
X-5115000Y21242857D02*
X-5162619Y21385714D01*
X-5162619Y21385714D02*
X-5162619Y21623809D01*
X-5162619Y21623809D02*
X-5115000Y21719047D01*
X-5115000Y21719047D02*
X-5067380Y21766666D01*
X-5067380Y21766666D02*
X-4972142Y21814285D01*
X-4972142Y21814285D02*
X-4876904Y21814285D01*
X-4876904Y21814285D02*
X-4781666Y21766666D01*
X-4781666Y21766666D02*
X-4734047Y21719047D01*
X-4734047Y21719047D02*
X-4686428Y21623809D01*
X-4686428Y21623809D02*
X-4638809Y21433333D01*
X-4638809Y21433333D02*
X-4591190Y21338095D01*
X-4591190Y21338095D02*
X-4543571Y21290476D01*
X-4543571Y21290476D02*
X-4448333Y21242857D01*
X-4448333Y21242857D02*
X-4353095Y21242857D01*
X-4353095Y21242857D02*
X-4257857Y21290476D01*
X-4257857Y21290476D02*
X-4210238Y21338095D01*
X-4210238Y21338095D02*
X-4162619Y21433333D01*
X-4162619Y21433333D02*
X-4162619Y21671428D01*
X-4162619Y21671428D02*
X-4210238Y21814285D01*
X-4162619Y22147619D02*
X-5162619Y22385714D01*
X-5162619Y22385714D02*
X-4448333Y22576190D01*
X-4448333Y22576190D02*
X-5162619Y22766666D01*
X-5162619Y22766666D02*
X-4162619Y23004762D01*
X-5067380Y23957142D02*
X-5115000Y23909523D01*
X-5115000Y23909523D02*
X-5162619Y23766666D01*
X-5162619Y23766666D02*
X-5162619Y23671428D01*
X-5162619Y23671428D02*
X-5115000Y23528571D01*
X-5115000Y23528571D02*
X-5019761Y23433333D01*
X-5019761Y23433333D02*
X-4924523Y23385714D01*
X-4924523Y23385714D02*
X-4734047Y23338095D01*
X-4734047Y23338095D02*
X-4591190Y23338095D01*
X-4591190Y23338095D02*
X-4400714Y23385714D01*
X-4400714Y23385714D02*
X-4305476Y23433333D01*
X-4305476Y23433333D02*
X-4210238Y23528571D01*
X-4210238Y23528571D02*
X-4162619Y23671428D01*
X-4162619Y23671428D02*
X-4162619Y23766666D01*
X-4162619Y23766666D02*
X-4210238Y23909523D01*
X-4210238Y23909523D02*
X-4257857Y23957142D01*
X-9362619Y20247618D02*
X-8886428Y19914285D01*
X-9362619Y19676190D02*
X-8362619Y19676190D01*
X-8362619Y19676190D02*
X-8362619Y20057142D01*
X-8362619Y20057142D02*
X-8410238Y20152380D01*
X-8410238Y20152380D02*
X-8457857Y20199999D01*
X-8457857Y20199999D02*
X-8553095Y20247618D01*
X-8553095Y20247618D02*
X-8695952Y20247618D01*
X-8695952Y20247618D02*
X-8791190Y20199999D01*
X-8791190Y20199999D02*
X-8838809Y20152380D01*
X-8838809Y20152380D02*
X-8886428Y20057142D01*
X-8886428Y20057142D02*
X-8886428Y19676190D01*
X-8838809Y20676190D02*
X-8838809Y21009523D01*
X-9362619Y21152380D02*
X-9362619Y20676190D01*
X-9362619Y20676190D02*
X-8362619Y20676190D01*
X-8362619Y20676190D02*
X-8362619Y21152380D01*
X-9315000Y21533333D02*
X-9362619Y21676190D01*
X-9362619Y21676190D02*
X-9362619Y21914285D01*
X-9362619Y21914285D02*
X-9315000Y22009523D01*
X-9315000Y22009523D02*
X-9267380Y22057142D01*
X-9267380Y22057142D02*
X-9172142Y22104761D01*
X-9172142Y22104761D02*
X-9076904Y22104761D01*
X-9076904Y22104761D02*
X-8981666Y22057142D01*
X-8981666Y22057142D02*
X-8934047Y22009523D01*
X-8934047Y22009523D02*
X-8886428Y21914285D01*
X-8886428Y21914285D02*
X-8838809Y21723809D01*
X-8838809Y21723809D02*
X-8791190Y21628571D01*
X-8791190Y21628571D02*
X-8743571Y21580952D01*
X-8743571Y21580952D02*
X-8648333Y21533333D01*
X-8648333Y21533333D02*
X-8553095Y21533333D01*
X-8553095Y21533333D02*
X-8457857Y21580952D01*
X-8457857Y21580952D02*
X-8410238Y21628571D01*
X-8410238Y21628571D02*
X-8362619Y21723809D01*
X-8362619Y21723809D02*
X-8362619Y21961904D01*
X-8362619Y21961904D02*
X-8410238Y22104761D01*
X-8838809Y22533333D02*
X-8838809Y22866666D01*
X-9362619Y23009523D02*
X-9362619Y22533333D01*
X-9362619Y22533333D02*
X-8362619Y22533333D01*
X-8362619Y22533333D02*
X-8362619Y23009523D01*
X-8362619Y23295238D02*
X-8362619Y23866666D01*
X-9362619Y23580952D02*
X-8362619Y23580952D01*
X-6615000Y21142857D02*
X-6662619Y21285714D01*
X-6662619Y21285714D02*
X-6662619Y21523809D01*
X-6662619Y21523809D02*
X-6615000Y21619047D01*
X-6615000Y21619047D02*
X-6567380Y21666666D01*
X-6567380Y21666666D02*
X-6472142Y21714285D01*
X-6472142Y21714285D02*
X-6376904Y21714285D01*
X-6376904Y21714285D02*
X-6281666Y21666666D01*
X-6281666Y21666666D02*
X-6234047Y21619047D01*
X-6234047Y21619047D02*
X-6186428Y21523809D01*
X-6186428Y21523809D02*
X-6138809Y21333333D01*
X-6138809Y21333333D02*
X-6091190Y21238095D01*
X-6091190Y21238095D02*
X-6043571Y21190476D01*
X-6043571Y21190476D02*
X-5948333Y21142857D01*
X-5948333Y21142857D02*
X-5853095Y21142857D01*
X-5853095Y21142857D02*
X-5757857Y21190476D01*
X-5757857Y21190476D02*
X-5710238Y21238095D01*
X-5710238Y21238095D02*
X-5662619Y21333333D01*
X-5662619Y21333333D02*
X-5662619Y21571428D01*
X-5662619Y21571428D02*
X-5710238Y21714285D01*
X-5662619Y22047619D02*
X-6662619Y22285714D01*
X-6662619Y22285714D02*
X-5948333Y22476190D01*
X-5948333Y22476190D02*
X-6662619Y22666666D01*
X-6662619Y22666666D02*
X-5662619Y22904762D01*
X-6662619Y23285714D02*
X-5662619Y23285714D01*
X-5662619Y23285714D02*
X-5662619Y23523809D01*
X-5662619Y23523809D02*
X-5710238Y23666666D01*
X-5710238Y23666666D02*
X-5805476Y23761904D01*
X-5805476Y23761904D02*
X-5900714Y23809523D01*
X-5900714Y23809523D02*
X-6091190Y23857142D01*
X-6091190Y23857142D02*
X-6234047Y23857142D01*
X-6234047Y23857142D02*
X-6424523Y23809523D01*
X-6424523Y23809523D02*
X-6519761Y23761904D01*
X-6519761Y23761904D02*
X-6615000Y23666666D01*
X-6615000Y23666666D02*
X-6662619Y23523809D01*
X-6662619Y23523809D02*
X-6662619Y23285714D01*
X-1362619Y21161905D02*
X-1362619Y21780952D01*
X-1362619Y21780952D02*
X-1743571Y21447619D01*
X-1743571Y21447619D02*
X-1743571Y21590476D01*
X-1743571Y21590476D02*
X-1791190Y21685714D01*
X-1791190Y21685714D02*
X-1838809Y21733333D01*
X-1838809Y21733333D02*
X-1934047Y21780952D01*
X-1934047Y21780952D02*
X-2172142Y21780952D01*
X-2172142Y21780952D02*
X-2267380Y21733333D01*
X-2267380Y21733333D02*
X-2315000Y21685714D01*
X-2315000Y21685714D02*
X-2362619Y21590476D01*
X-2362619Y21590476D02*
X-2362619Y21304762D01*
X-2362619Y21304762D02*
X-2315000Y21209524D01*
X-2315000Y21209524D02*
X-2267380Y21161905D01*
X-1362619Y22066667D02*
X-2362619Y22400000D01*
X-2362619Y22400000D02*
X-1362619Y22733333D01*
X-1362619Y22971429D02*
X-1362619Y23590476D01*
X-1362619Y23590476D02*
X-1743571Y23257143D01*
X-1743571Y23257143D02*
X-1743571Y23400000D01*
X-1743571Y23400000D02*
X-1791190Y23495238D01*
X-1791190Y23495238D02*
X-1838809Y23542857D01*
X-1838809Y23542857D02*
X-1934047Y23590476D01*
X-1934047Y23590476D02*
X-2172142Y23590476D01*
X-2172142Y23590476D02*
X-2267380Y23542857D01*
X-2267380Y23542857D02*
X-2315000Y23495238D01*
X-2315000Y23495238D02*
X-2362619Y23400000D01*
X-2362619Y23400000D02*
X-2362619Y23114286D01*
X-2362619Y23114286D02*
X-2315000Y23019048D01*
X-2315000Y23019048D02*
X-2267380Y22971429D01*
X1889761Y21538095D02*
X1937380Y21442857D01*
X1937380Y21442857D02*
X1937380Y21300000D01*
X1937380Y21300000D02*
X1889761Y21157143D01*
X1889761Y21157143D02*
X1794523Y21061905D01*
X1794523Y21061905D02*
X1699285Y21014286D01*
X1699285Y21014286D02*
X1508809Y20966667D01*
X1508809Y20966667D02*
X1365952Y20966667D01*
X1365952Y20966667D02*
X1175476Y21014286D01*
X1175476Y21014286D02*
X1080238Y21061905D01*
X1080238Y21061905D02*
X985000Y21157143D01*
X985000Y21157143D02*
X937380Y21300000D01*
X937380Y21300000D02*
X937380Y21395238D01*
X937380Y21395238D02*
X985000Y21538095D01*
X985000Y21538095D02*
X1032619Y21585714D01*
X1032619Y21585714D02*
X1365952Y21585714D01*
X1365952Y21585714D02*
X1365952Y21395238D01*
X937380Y22014286D02*
X1937380Y22014286D01*
X1937380Y22014286D02*
X937380Y22585714D01*
X937380Y22585714D02*
X1937380Y22585714D01*
X937380Y23061905D02*
X1937380Y23061905D01*
X1937380Y23061905D02*
X1937380Y23300000D01*
X1937380Y23300000D02*
X1889761Y23442857D01*
X1889761Y23442857D02*
X1794523Y23538095D01*
X1794523Y23538095D02*
X1699285Y23585714D01*
X1699285Y23585714D02*
X1508809Y23633333D01*
X1508809Y23633333D02*
X1365952Y23633333D01*
X1365952Y23633333D02*
X1175476Y23585714D01*
X1175476Y23585714D02*
X1080238Y23538095D01*
X1080238Y23538095D02*
X985000Y23442857D01*
X985000Y23442857D02*
X937380Y23300000D01*
X937380Y23300000D02*
X937380Y23061905D01*
%LPC*%
D11*
X-5080000Y-26670000D03*
X-5080000Y-29210000D03*
D12*
X17780000Y1270000D03*
X17780000Y-1270000D03*
X15240000Y1270000D03*
X15240000Y-1270000D03*
X12700000Y1270000D03*
X12700000Y-1270000D03*
X10160000Y1270000D03*
X10160000Y-1270000D03*
X7620000Y1270000D03*
X7620000Y-1270000D03*
D11*
X-30015518Y25650396D03*
X-31719389Y27534123D03*
X-28131792Y27354266D03*
X-29835662Y29237993D03*
X-26248065Y29058137D03*
X-27951935Y30941863D03*
X-24364338Y30762007D03*
X-26068208Y32645734D03*
X-22480611Y32465877D03*
X-24184482Y34349604D03*
X31719432Y27534204D03*
X30015594Y25650447D03*
X29835675Y29238041D03*
X28131838Y27354284D03*
X27951919Y30941878D03*
X26248081Y29058122D03*
X26068162Y32645716D03*
X24364325Y30761959D03*
X24184406Y34349553D03*
X22480568Y32465796D03*
D13*
X1480000Y25000000D03*
X-1060000Y25000000D03*
X-3600000Y25000000D03*
X-6140000Y25000000D03*
X-8680000Y25000000D03*
D12*
X10200000Y-7700000D03*
D14*
X-8675323Y43449605D03*
D15*
X-3724677Y44150395D03*
D16*
X-9000000Y-28000000D03*
D14*
X-20280819Y39376347D03*
D17*
X-15719181Y41423653D03*
D18*
X-32558408Y7830779D03*
D19*
X-29641592Y7129221D03*
D16*
X23000000Y0D03*
X0Y34800000D03*
D11*
X5080000Y-26670000D03*
D16*
X9000000Y-28000000D03*
D11*
X0Y-26670000D03*
X-2540000Y-29210000D03*
D14*
X3724677Y44150395D03*
D20*
X8675323Y43449605D03*
D11*
X2540000Y-29210000D03*
D16*
X-25000000Y0D03*
D11*
X5080000Y-29210000D03*
X-2540000Y-26670000D03*
D21*
X-33450147Y-3540436D03*
D22*
X-30648779Y-3958575D03*
X-29551221Y-9041425D03*
D21*
X-31930451Y-10578229D03*
D11*
X2540000Y-26670000D03*
D23*
X20280801Y39376307D03*
D14*
X15719199Y41423693D03*
D11*
X0Y-29210000D03*
D24*
X-7106813Y25976997D03*
D25*
X-800000Y29400000D03*
X-6188000Y28212000D03*
D24*
X-2440000Y31200000D03*
X-2440000Y30600000D03*
X-2440000Y31800000D03*
X-2440000Y30000000D03*
X-4750000Y31800000D03*
X-4750000Y31200000D03*
X-4750000Y30600000D03*
X-4750000Y30000000D03*
D25*
X22400000Y-4000000D03*
D24*
X-2460000Y29350000D03*
D25*
X-30827420Y8503266D03*
X-23300000Y-10388000D03*
X-20700000Y4200000D03*
D24*
X-4500000Y28078800D03*
D25*
X-3600000Y23200000D03*
X2622103Y23477397D03*
X2125000Y28424000D03*
D24*
X-4700000Y26578800D03*
X-3600000Y26578800D03*
X-6200000Y19100000D03*
D25*
X-29300000Y-4900000D03*
D24*
X-2450000Y26578800D03*
D25*
X-20800000Y9649500D03*
D24*
X-2450000Y28678800D03*
X-2700000Y27178800D03*
D25*
X-22200000Y7000000D03*
D24*
X-2700000Y28078800D03*
X-4750000Y29300000D03*
D25*
X-600000Y-17750000D03*
X-18350000Y-4753000D03*
X-1505853Y18123565D03*
X2100000Y-8600000D03*
D24*
X-4750000Y28678800D03*
X-4500000Y27178800D03*
D25*
X-1700000Y-14215000D03*
D24*
X-4150000Y26580000D03*
X-3100000Y26578800D03*
D25*
X3300000Y1800000D03*
X5500000Y9600000D03*
X-24500Y10397655D03*
X-2872523Y-9827477D03*
X-25800000Y-6488498D03*
X-1800000Y-6500000D03*
X4100000Y18244365D03*
X-32500000Y-500000D03*
X4100000Y26400000D03*
X-32700000Y4300000D03*
X-10000000Y25100000D03*
X-31700000Y-6400000D03*
X-24800000Y-4400000D03*
D24*
X-8200000Y27423502D03*
X-4875498Y18273502D03*
X-8200000Y26423502D03*
X-5000000Y20400000D03*
X252448Y22423502D03*
X-3782130Y19424926D03*
X200000Y21423502D03*
X-4100000Y20500000D03*
X-1900000Y20500000D03*
X-2316735Y19424874D03*
X200000Y20423502D03*
X-3100000Y20500000D03*
X13437500Y27087500D03*
X14650000Y23750000D03*
X-6100000Y20400000D03*
X-600000Y21300000D03*
X-600000Y22500000D03*
X-600000Y23200000D03*
X200000Y19423502D03*
X1000000Y18500000D03*
D25*
X1800000Y17500000D03*
D24*
X-512251Y19787749D03*
M02*
