M48
; DRILL file {KiCad 7.0.1-3b83917a11~172~ubuntu22.04.1} date ma 06 nov 2023 14:25:31
; FORMAT={-:-/ absolute / metric / decimal}
; #@! TF.CreationDate,2023-11-06T14:25:31+01:00
; #@! TF.GenerationSoftware,Kicad,Pcbnew,7.0.1-3b83917a11~172~ubuntu22.04.1
; #@! TF.FileFunction,Plated,1,4,PTH
FMAT,2
METRIC
; #@! TA.AperFunction,Plated,PTH,ViaDrill
T1C0.300
; #@! TA.AperFunction,Plated,PTH,ViaDrill
T2C0.400
; #@! TA.AperFunction,Plated,PTH,ComponentDrill
T3C0.500
; #@! TA.AperFunction,Plated,PTH,ComponentDrill
T4C0.700
; #@! TA.AperFunction,Plated,PTH,ComponentDrill
T5C0.850
; #@! TA.AperFunction,Plated,PTH,ComponentDrill
T6C1.300
%
G90
G05
T1
X-8.0Y28.3
X-7.3Y25.8
X-6.79Y26.71
X-6.5Y18.8
X-6.425Y20.374
X-5.0Y20.7
X-4.825Y18.324
X-4.8Y31.85
X-4.8Y31.15
X-4.8Y30.45
X-4.8Y29.75
X-4.8Y29.05
X-4.7Y28.35
X-4.55Y27.65
X-4.55Y26.95
X-4.2Y20.5
X-4.0Y26.55
X-3.746Y19.3
X-3.2Y26.55
X-3.0Y20.5
X-2.6Y27.624
X-2.6Y26.95
X-2.597Y19.287
X-2.5Y28.35
X-2.4Y31.85
X-2.4Y31.15
X-2.4Y30.45
X-2.4Y29.75
X-2.4Y29.05
X-2.0Y20.6
X-1.2Y21.4
X-0.6Y22.57
X-0.6Y19.6
X-0.575Y23.675
X1.0Y18.3
X1.1Y22.7
X1.1Y21.7
X1.1Y19.6
X1.439Y20.305
X13.45Y28.03
X14.3Y24.57
T2
X-32.6Y4.72
X-32.5Y-0.5
X-30.927Y8.023
X-29.41Y-4.09
X-27.61Y-8.34
X-25.81Y-5.79
X-25.81Y-9.89
X-24.475Y-3.45
X-22.494Y-9.465
X-22.2Y7.0
X-21.11Y-3.79
X-20.8Y9.649
X-20.7Y4.2
X-18.46Y-3.943
X-9.9Y25.9
X-6.188Y28.212
X-4.36Y-3.932
X-4.0Y2.0
X-3.6Y23.2
X-3.188Y-8.32
X-2.087Y-11.855
X-1.506Y18.124
X-1.024Y10.398
X-0.8Y29.4
X0.612Y-2.705
X1.8Y17.5
X2.1Y24.0
X2.125Y28.424
X3.3Y1.8
X4.1Y26.4
X4.1Y18.244
X4.5Y9.6
X22.4Y-4.0
T4
X-30.682Y-3.145
X-29.718Y-8.255
T5
X7.62Y1.27
X7.62Y-1.27
X7.62Y-7.7
X7.62Y-10.24
X10.16Y1.27
X10.16Y-1.27
X10.2Y-7.7
X12.7Y1.27
X12.7Y-1.27
X15.24Y1.27
X15.24Y-1.27
X17.78Y1.27
X17.78Y-1.27
T6
X-31.719Y27.534
X-30.016Y25.65
X-29.836Y29.238
X-28.132Y27.354
X-27.952Y30.942
X-26.248Y29.058
X-26.068Y32.646
X-24.364Y30.762
X-24.184Y34.35
X-22.481Y32.466
X-20.281Y39.376
X-15.719Y41.424
X-8.675Y43.45
X-5.08Y-20.46
X-5.08Y-23.0
X-3.725Y44.15
X-2.54Y-20.46
X-2.54Y-23.0
X0.0Y-20.46
X0.0Y-23.0
X2.54Y-20.46
X2.54Y-23.0
X3.725Y44.15
X5.08Y-20.46
X5.08Y-23.0
X8.675Y43.45
X15.719Y41.424
X20.281Y39.376
X22.481Y32.466
X24.184Y34.35
X24.364Y30.762
X26.068Y32.646
X26.248Y29.058
X27.952Y30.942
X28.132Y27.354
X29.836Y29.238
X30.016Y25.65
X31.719Y27.534
T3
X-33.865Y-2.728G85X-33.079Y-2.58
G05
X-32.529Y-9.803G85X-31.743Y-9.655
G05
T0
M30
