G04 #@! TF.GenerationSoftware,KiCad,Pcbnew,7.0.1-3b83917a11~172~ubuntu22.04.1*
G04 #@! TF.CreationDate,2023-11-06T14:25:17+01:00*
G04 #@! TF.ProjectId,io_coupling_MCU_enhanced,696f5f63-6f75-4706-9c69-6e675f4d4355,rev?*
G04 #@! TF.SameCoordinates,Original*
G04 #@! TF.FileFunction,Soldermask,Top*
G04 #@! TF.FilePolarity,Negative*
%FSLAX46Y46*%
G04 Gerber Fmt 4.6, Leading zero omitted, Abs format (unit mm)*
G04 Created by KiCad (PCBNEW 7.0.1-3b83917a11~172~ubuntu22.04.1) date 2023-11-06 14:25:17*
%MOMM*%
%LPD*%
G01*
G04 APERTURE LIST*
G04 Aperture macros list*
%AMRoundRect*
0 Rectangle with rounded corners*
0 $1 Rounding radius*
0 $2 $3 $4 $5 $6 $7 $8 $9 X,Y pos of 4 corners*
0 Add a 4 corners polygon primitive as box body*
4,1,4,$2,$3,$4,$5,$6,$7,$8,$9,$2,$3,0*
0 Add four circle primitives for the rounded corners*
1,1,$1+$1,$2,$3*
1,1,$1+$1,$4,$5*
1,1,$1+$1,$6,$7*
1,1,$1+$1,$8,$9*
0 Add four rect primitives between the rounded corners*
20,1,$1+$1,$2,$3,$4,$5,0*
20,1,$1+$1,$4,$5,$6,$7,0*
20,1,$1+$1,$6,$7,$8,$9,0*
20,1,$1+$1,$8,$9,$2,$3,0*%
%AMHorizOval*
0 Thick line with rounded ends*
0 $1 width*
0 $2 $3 position (X,Y) of the first rounded end (center of the circle)*
0 $4 $5 position (X,Y) of the second rounded end (center of the circle)*
0 Add line between two ends*
20,1,$1,$2,$3,$4,$5,0*
0 Add two circle primitives to create the rounded ends*
1,1,$1,$2,$3*
1,1,$1,$4,$5*%
%AMRotRect*
0 Rectangle, with rotation*
0 The origin of the aperture is its center*
0 $1 length*
0 $2 width*
0 $3 Rotation angle, in degrees counterclockwise*
0 Add horizontal line*
21,1,$1,$2,0,0,$3*%
G04 Aperture macros list end*
%ADD10RoundRect,0.200000X-0.200000X-0.275000X0.200000X-0.275000X0.200000X0.275000X-0.200000X0.275000X0*%
%ADD11RoundRect,0.250000X0.475000X-0.250000X0.475000X0.250000X-0.475000X0.250000X-0.475000X-0.250000X0*%
%ADD12RoundRect,0.225000X0.250000X-0.225000X0.250000X0.225000X-0.250000X0.225000X-0.250000X-0.225000X0*%
%ADD13RotRect,1.950000X1.950000X188.057000*%
%ADD14C,1.950000*%
%ADD15RoundRect,0.200000X0.400000X0.200000X-0.400000X0.200000X-0.400000X-0.200000X0.400000X-0.200000X0*%
%ADD16C,1.500000*%
%ADD17C,1.800000*%
%ADD18RoundRect,0.225000X-0.250000X0.225000X-0.250000X-0.225000X0.250000X-0.225000X0.250000X0.225000X0*%
%ADD19C,2.000000*%
%ADD20RotRect,1.950000X1.950000X204.171000*%
%ADD21R,0.620000X1.220000*%
%ADD22HorizOval,0.500000X0.000000X0.000000X0.000000X0.000000X0*%
%ADD23C,0.500000*%
%ADD24RoundRect,0.250000X0.309613X0.237991X-0.178257X0.347454X-0.309613X-0.237991X0.178257X-0.347454X0*%
%ADD25RoundRect,0.275000X0.426108X0.186231X-0.305698X0.350426X-0.426108X-0.186231X0.305698X-0.350426X0*%
%ADD26RoundRect,0.200000X0.200000X0.275000X-0.200000X0.275000X-0.200000X-0.275000X0.200000X-0.275000X0*%
%ADD27RoundRect,0.060000X-0.615000X0.240000X-0.615000X-0.240000X0.615000X-0.240000X0.615000X0.240000X0*%
%ADD28RoundRect,0.250000X-0.475000X0.250000X-0.475000X-0.250000X0.475000X-0.250000X0.475000X0.250000X0*%
%ADD29RoundRect,0.225000X-0.225000X-0.250000X0.225000X-0.250000X0.225000X0.250000X-0.225000X0.250000X0*%
%ADD30RoundRect,0.242500X-0.257500X-0.242500X0.257500X-0.242500X0.257500X0.242500X-0.257500X0.242500X0*%
%ADD31R,1.150000X0.700000*%
%ADD32R,0.700000X1.150000*%
%ADD33R,0.700000X0.700000*%
%ADD34RoundRect,0.075000X-0.075000X-0.275000X0.075000X-0.275000X0.075000X0.275000X-0.075000X0.275000X0*%
%ADD35RoundRect,0.250000X-0.450000X0.262500X-0.450000X-0.262500X0.450000X-0.262500X0.450000X0.262500X0*%
%ADD36R,1.000000X0.700000*%
%ADD37R,0.600000X0.700000*%
%ADD38RoundRect,0.075000X0.275000X-0.075000X0.275000X0.075000X-0.275000X0.075000X-0.275000X-0.075000X0*%
%ADD39RotRect,1.950000X1.950000X171.943000*%
%ADD40RoundRect,0.200000X0.275000X-0.200000X0.275000X0.200000X-0.275000X0.200000X-0.275000X-0.200000X0*%
%ADD41RoundRect,0.250000X0.250000X0.250000X-0.250000X0.250000X-0.250000X-0.250000X0.250000X-0.250000X0*%
%ADD42RoundRect,0.250000X-0.250000X-0.275000X0.250000X-0.275000X0.250000X0.275000X-0.250000X0.275000X0*%
%ADD43RoundRect,0.262500X-0.262500X-0.837500X0.262500X-0.837500X0.262500X0.837500X-0.262500X0.837500X0*%
%ADD44RoundRect,0.218750X0.218750X0.256250X-0.218750X0.256250X-0.218750X-0.256250X0.218750X-0.256250X0*%
%ADD45RoundRect,0.152500X-0.152500X0.482500X-0.152500X-0.482500X0.152500X-0.482500X0.152500X0.482500X0*%
%ADD46RoundRect,0.190500X-1.764500X1.714500X-1.764500X-1.714500X1.764500X-1.714500X1.764500X1.714500X0*%
%ADD47RoundRect,0.152500X-0.152500X0.357500X-0.152500X-0.357500X0.152500X-0.357500X0.152500X0.357500X0*%
%ADD48RoundRect,0.445000X1.130000X-0.445000X1.130000X0.445000X-1.130000X0.445000X-1.130000X-0.445000X0*%
%ADD49RoundRect,0.250000X-0.250000X-0.475000X0.250000X-0.475000X0.250000X0.475000X-0.250000X0.475000X0*%
%ADD50RoundRect,0.200000X-1.110000X-0.200000X1.110000X-0.200000X1.110000X0.200000X-1.110000X0.200000X0*%
%ADD51RoundRect,0.250000X-0.250000X0.250000X-0.250000X-0.250000X0.250000X-0.250000X0.250000X0.250000X0*%
%ADD52RoundRect,0.100000X0.534438X-0.000898X0.497346X0.195632X-0.534438X0.000898X-0.497346X-0.195632X0*%
%ADD53HorizOval,1.100000X0.393061X0.074184X-0.393061X-0.074184X0*%
%ADD54C,1.250000*%
%ADD55RotRect,1.950000X1.950000X155.828000*%
%ADD56RoundRect,0.250000X0.500000X-0.250000X0.500000X0.250000X-0.500000X0.250000X-0.500000X-0.250000X0*%
%ADD57RoundRect,0.200000X0.200000X-0.400000X0.200000X0.400000X-0.200000X0.400000X-0.200000X-0.400000X0*%
%ADD58RoundRect,0.212500X0.237500X-0.212500X0.237500X0.212500X-0.237500X0.212500X-0.237500X-0.212500X0*%
%ADD59RoundRect,0.112500X0.137500X-0.112500X0.137500X0.112500X-0.137500X0.112500X-0.137500X-0.112500X0*%
%ADD60C,0.450000*%
%ADD61C,0.800000*%
G04 APERTURE END LIST*
D10*
X2649000Y4459000D03*
X4299000Y4459000D03*
D11*
X1560500Y-13978000D03*
X1560500Y-12078000D03*
D12*
X2925000Y26649000D03*
X2925000Y28199000D03*
D10*
X-20434701Y-4590299D03*
X-18784701Y-4590299D03*
D13*
X-3724677Y44150395D03*
D14*
X-8675323Y43449605D03*
D15*
X-19952000Y7640000D03*
X-19952000Y9540000D03*
X-21952000Y8590000D03*
D11*
X3592500Y-13978000D03*
X3592500Y-12078000D03*
D16*
X-8000000Y-30500000D03*
D17*
X7620000Y-7700000D03*
D18*
X-23409701Y-7915299D03*
X-23409701Y-9465299D03*
D19*
X-5080000Y-20460000D03*
D20*
X-15719181Y41423653D03*
D14*
X-20280819Y39376347D03*
D18*
X-21504701Y-7915299D03*
X-21504701Y-9465299D03*
D21*
X-4596500Y-14455000D03*
X-3646500Y-14455000D03*
X-2696500Y-14455000D03*
X-2696500Y-11855000D03*
X-3646500Y-11855000D03*
X-4596500Y-11855000D03*
D22*
X-29736388Y6671610D03*
D23*
X-32663612Y7328390D03*
D24*
X-33682851Y4841193D03*
X-32522540Y10012622D03*
D25*
X-30804414Y4195359D03*
X-29644103Y9366788D03*
D16*
X23000000Y0D03*
D26*
X21125000Y-4000000D03*
X19475000Y-4000000D03*
D27*
X-496500Y-1782000D03*
X-496500Y-2732000D03*
X-496500Y-3682000D03*
X1873500Y-3682000D03*
X1873500Y-1782000D03*
D10*
X-32425000Y2600000D03*
X-30775000Y2600000D03*
D17*
X7620000Y-10240000D03*
D28*
X-4492500Y-6420000D03*
X-4492500Y-8320000D03*
D16*
X0Y34800000D03*
D19*
X-24184482Y34349604D03*
X-22480611Y32465877D03*
X-26068208Y32645734D03*
X-24364338Y30762007D03*
X-27951935Y30941863D03*
X-26248065Y29058137D03*
X-29835662Y29237993D03*
X-28131792Y27354266D03*
X-31719389Y27534123D03*
X-30015518Y25650396D03*
X5080000Y-20460000D03*
D16*
X8000000Y-30500000D03*
D29*
X-187500Y-8005000D03*
X1362500Y-8005000D03*
D19*
X0Y-20460000D03*
D17*
X10200000Y-7700000D03*
D19*
X-2540000Y-23000000D03*
D30*
X-23128701Y-6277299D03*
X-21658701Y-6277299D03*
D31*
X525000Y18699000D03*
X525000Y19699000D03*
X525000Y20699000D03*
X525000Y21699000D03*
X525000Y22699000D03*
X525000Y23699000D03*
X525000Y24699000D03*
X525000Y25699000D03*
X525000Y26699000D03*
X525000Y27699000D03*
D32*
X-1600000Y27624000D03*
X-2600000Y27624000D03*
X-3600000Y27624000D03*
X-4600000Y27624000D03*
X-5600000Y27624000D03*
D31*
X-7725000Y27699000D03*
X-7725000Y26699000D03*
X-7725000Y25699000D03*
X-7725000Y24699000D03*
X-7725000Y23699000D03*
X-7725000Y22699000D03*
X-7725000Y21699000D03*
X-7725000Y20699000D03*
X-7725000Y19699000D03*
X-7725000Y18699000D03*
D32*
X-5600000Y18774000D03*
X-4600000Y18774000D03*
X-3600000Y18774000D03*
X-2600000Y18774000D03*
X-1600000Y18774000D03*
D33*
X-850000Y20149000D03*
X-850000Y21249000D03*
X-850000Y22349000D03*
X-850000Y23449000D03*
X-850000Y24549000D03*
X-850000Y25649000D03*
X-6350000Y25649000D03*
X-6350000Y24549000D03*
X-6350000Y23449000D03*
X-6350000Y22349000D03*
X-6350000Y21249000D03*
X-6350000Y20149000D03*
X-5250000Y20149000D03*
X-4150000Y20149000D03*
X-3050000Y20149000D03*
X-1950000Y20149000D03*
X-7600000Y17549000D03*
X-6600000Y17549000D03*
X-5600000Y17549000D03*
X-4600000Y17549000D03*
X-3600000Y17549000D03*
X-2600000Y17549000D03*
X-1600000Y17549000D03*
X-600000Y17549000D03*
X400000Y17549000D03*
X-3025000Y21474000D03*
X-4175000Y21474000D03*
X-1875000Y22624000D03*
X-3025000Y22624000D03*
X-4175000Y22624000D03*
X-5325000Y22624000D03*
X-3025000Y23774000D03*
X-4175000Y23774000D03*
X-1875000Y24924000D03*
X-3025000Y24924000D03*
X-4175000Y24924000D03*
X-5325000Y24924000D03*
D34*
X15950000Y26811000D03*
X16600000Y26811000D03*
X17250000Y26811000D03*
X17250000Y28589000D03*
X16600000Y28589000D03*
X15950000Y28589000D03*
D26*
X3029000Y6364000D03*
X1379000Y6364000D03*
D10*
X-32425000Y800000D03*
X-30775000Y800000D03*
D35*
X-1014000Y9181500D03*
X-1014000Y7356500D03*
D36*
X-27615701Y-6628299D03*
D37*
X-25915701Y-6628299D03*
X-25915701Y-4628299D03*
X-27815701Y-4628299D03*
D38*
X14337500Y26437500D03*
X14337500Y27087500D03*
X14337500Y27737500D03*
X12559500Y27737500D03*
X12559500Y27087500D03*
X12559500Y26437500D03*
D17*
X7620000Y-1270000D03*
X7620000Y1270000D03*
X10160000Y-1270000D03*
X10160000Y1270000D03*
X12700000Y-1270000D03*
X12700000Y1270000D03*
X15240000Y-1270000D03*
X15240000Y1270000D03*
X17780000Y-1270000D03*
X17780000Y1270000D03*
D15*
X-23000000Y5100000D03*
X-23000000Y7000000D03*
X-25000000Y6050000D03*
D39*
X8675323Y43449605D03*
D14*
X3724677Y44150395D03*
D40*
X14211000Y29175000D03*
X14211000Y30825000D03*
D41*
X3304000Y8269000D03*
X1104000Y8269000D03*
D19*
X2540000Y-23000000D03*
D10*
X16075000Y30100000D03*
X17725000Y30100000D03*
D40*
X11048500Y26462500D03*
X11048500Y28112500D03*
D16*
X-25000000Y0D03*
D42*
X-3600000Y29473800D03*
D43*
X-5075000Y30998800D03*
X-2125000Y30998800D03*
D44*
X1375000Y-6100000D03*
X-200000Y-6100000D03*
D45*
X7395000Y12660000D03*
X11205000Y12660000D03*
X9935000Y12660000D03*
X8665000Y12660000D03*
D46*
X9300000Y9300000D03*
D47*
X11205000Y7195000D03*
X9935000Y7195000D03*
X8665000Y7195000D03*
X7395000Y7195000D03*
D18*
X3812500Y-1830000D03*
X3812500Y-3380000D03*
D19*
X5080000Y-23000000D03*
D48*
X-4600000Y4385000D03*
X-4600000Y9615000D03*
D19*
X-5080000Y-23000000D03*
D10*
X-526000Y4459000D03*
X1124000Y4459000D03*
D19*
X-2540000Y-20460000D03*
D49*
X-20359701Y-2790299D03*
X-18459701Y-2790299D03*
D19*
X22480568Y32465796D03*
X24184406Y34349553D03*
X24364325Y30761959D03*
X26068162Y32645716D03*
X26248081Y29058122D03*
X27951919Y30941878D03*
X28131838Y27354284D03*
X29835675Y29238041D03*
X30015594Y25650447D03*
X31719432Y27534204D03*
D50*
X3485000Y25264000D03*
X7365000Y25264000D03*
X3485000Y23994000D03*
X7365000Y23994000D03*
X3485000Y22724000D03*
X7365000Y22724000D03*
X3485000Y21454000D03*
X7365000Y21454000D03*
X3485000Y20184000D03*
X7365000Y20184000D03*
D51*
X5379000Y13179000D03*
X5379000Y10979000D03*
D10*
X18875000Y27200000D03*
X20525000Y27200000D03*
D52*
X-30441099Y-4422553D03*
X-30320550Y-5061276D03*
X-30200000Y-5700000D03*
X-30079450Y-6338724D03*
X-29958901Y-6977447D03*
D53*
X-32136368Y-9729017D03*
D54*
X-29717802Y-8254894D03*
X-30682198Y-3145106D03*
D53*
X-33471686Y-2653925D03*
D15*
X-19952000Y2306000D03*
X-19952000Y4206000D03*
X-21952000Y3256000D03*
D19*
X2540000Y-20460000D03*
D10*
X-31325000Y-900000D03*
X-29675000Y-900000D03*
D55*
X20280801Y39376307D03*
D14*
X15719199Y41423693D03*
D19*
X0Y-23000000D03*
D11*
X-471500Y-13978000D03*
X-471500Y-12078000D03*
D56*
X-4487500Y-4905000D03*
X-4487500Y-2005000D03*
D57*
X1254000Y10444000D03*
X3154000Y10444000D03*
X2204000Y12444000D03*
D28*
X-1952500Y-6420000D03*
X-1952500Y-8320000D03*
D58*
X-34200000Y-825000D03*
D59*
X-33850000Y75000D03*
X-33850000Y925000D03*
D58*
X-34200000Y1825000D03*
D60*
X-4800000Y29050000D03*
D61*
X-30927420Y8023266D03*
D60*
X-4550000Y26950000D03*
X-2400000Y31150000D03*
X-6500000Y18800000D03*
D61*
X-22493701Y-9465299D03*
X-20700000Y4200000D03*
D60*
X-2400000Y29050000D03*
X-2600000Y26950000D03*
D61*
X-3600000Y23200000D03*
X2099750Y23999750D03*
X2125000Y28424000D03*
D60*
X-4550000Y27650000D03*
X-4700000Y28350000D03*
D61*
X-20800000Y9649500D03*
D60*
X-3200000Y26550000D03*
X-2500000Y28350000D03*
D61*
X-22200000Y7000000D03*
D60*
X-2600000Y27624000D03*
D61*
X-2087500Y-11855000D03*
X-18459701Y-3943299D03*
D60*
X-4800000Y31150000D03*
D61*
X-27610389Y-8339611D03*
X-1505853Y18123565D03*
D60*
X-2400000Y31850000D03*
X-4800000Y30450000D03*
D61*
X612500Y-2705000D03*
D60*
X-4800000Y29750000D03*
D61*
X-3187500Y-8320000D03*
D60*
X-2400000Y30450000D03*
X-4800000Y31850000D03*
X-2400000Y29750000D03*
X-4000000Y26550000D03*
D61*
X22400000Y-4000000D03*
X3300000Y1800000D03*
X4500000Y9600000D03*
X-1024500Y10397655D03*
X-4360023Y-3932477D03*
X-21109701Y-3790299D03*
X-4000000Y2000000D03*
X4100000Y18244365D03*
X-32500000Y-500000D03*
X4100000Y26400000D03*
X-29409701Y-4090299D03*
X-25809701Y-9890299D03*
X-800000Y29400000D03*
X-6188000Y28212000D03*
X-32600000Y4720000D03*
X-9900000Y25900000D03*
X-24475250Y-3449500D03*
X-25809701Y-5790299D03*
D60*
X-8000000Y28300000D03*
X-4825498Y18323502D03*
X-6790000Y26710000D03*
X-7300000Y25800000D03*
X-5000000Y20700000D03*
X1100000Y22700000D03*
X-3746300Y19300000D03*
X1100000Y21700000D03*
X-4200000Y20500000D03*
X-2000000Y20600000D03*
X-2596800Y19287234D03*
X1438786Y20304784D03*
X-3000000Y20500000D03*
X13450000Y28030000D03*
X-6424502Y20374498D03*
X14300000Y24570000D03*
X-1200000Y21400000D03*
X-600000Y22570000D03*
X-574502Y23675265D03*
X1100000Y19600000D03*
X1000000Y18300000D03*
D61*
X1800000Y17500000D03*
D60*
X-600000Y19600000D03*
M02*
