G04 #@! TF.GenerationSoftware,KiCad,Pcbnew,7.0.1-3b83917a11~172~ubuntu22.04.1*
G04 #@! TF.CreationDate,2023-11-06T14:25:17+01:00*
G04 #@! TF.ProjectId,io_coupling_MCU_enhanced,696f5f63-6f75-4706-9c69-6e675f4d4355,rev?*
G04 #@! TF.SameCoordinates,Original*
G04 #@! TF.FileFunction,Soldermask,Bot*
G04 #@! TF.FilePolarity,Negative*
%FSLAX46Y46*%
G04 Gerber Fmt 4.6, Leading zero omitted, Abs format (unit mm)*
G04 Created by KiCad (PCBNEW 7.0.1-3b83917a11~172~ubuntu22.04.1) date 2023-11-06 14:25:17*
%MOMM*%
%LPD*%
G01*
G04 APERTURE LIST*
G04 Aperture macros list*
%AMHorizOval*
0 Thick line with rounded ends*
0 $1 width*
0 $2 $3 position (X,Y) of the first rounded end (center of the circle)*
0 $4 $5 position (X,Y) of the second rounded end (center of the circle)*
0 Add line between two ends*
20,1,$1,$2,$3,$4,$5,0*
0 Add two circle primitives to create the rounded ends*
1,1,$1,$2,$3*
1,1,$1,$4,$5*%
%AMRotRect*
0 Rectangle, with rotation*
0 The origin of the aperture is its center*
0 $1 length*
0 $2 width*
0 $3 Rotation angle, in degrees counterclockwise*
0 Add horizontal line*
21,1,$1,$2,0,0,$3*%
G04 Aperture macros list end*
%ADD10RotRect,1.950000X1.950000X188.057000*%
%ADD11C,1.950000*%
%ADD12C,1.500000*%
%ADD13C,1.800000*%
%ADD14C,2.000000*%
%ADD15RotRect,1.950000X1.950000X204.171000*%
%ADD16HorizOval,0.500000X0.000000X0.000000X0.000000X0.000000X0*%
%ADD17C,0.500000*%
%ADD18RotRect,1.950000X1.950000X171.943000*%
%ADD19HorizOval,1.100000X0.393061X0.074184X-0.393061X-0.074184X0*%
%ADD20C,1.250000*%
%ADD21RotRect,1.950000X1.950000X155.828000*%
%ADD22C,1.600000*%
%ADD23C,0.450000*%
%ADD24C,0.800000*%
G04 APERTURE END LIST*
D10*
X-3724677Y44150395D03*
D11*
X-8675323Y43449605D03*
D12*
X-8000000Y-30500000D03*
D13*
X7620000Y-7700000D03*
D14*
X-5080000Y-20460000D03*
D15*
X-15719181Y41423653D03*
D11*
X-20280819Y39376347D03*
D16*
X-29736388Y6671610D03*
D17*
X-32663612Y7328390D03*
D12*
X23000000Y0D03*
D13*
X7620000Y-10240000D03*
D12*
X0Y34800000D03*
D14*
X-24184482Y34349604D03*
X-22480611Y32465877D03*
X-26068208Y32645734D03*
X-24364338Y30762007D03*
X-27951935Y30941863D03*
X-26248065Y29058137D03*
X-29835662Y29237993D03*
X-28131792Y27354266D03*
X-31719389Y27534123D03*
X-30015518Y25650396D03*
X5080000Y-20460000D03*
D12*
X8000000Y-30500000D03*
D14*
X0Y-20460000D03*
D13*
X10200000Y-7700000D03*
D14*
X-2540000Y-23000000D03*
D13*
X7620000Y-1270000D03*
X7620000Y1270000D03*
X10160000Y-1270000D03*
X10160000Y1270000D03*
X12700000Y-1270000D03*
X12700000Y1270000D03*
X15240000Y-1270000D03*
X15240000Y1270000D03*
X17780000Y-1270000D03*
X17780000Y1270000D03*
D18*
X8675323Y43449605D03*
D11*
X3724677Y44150395D03*
D14*
X2540000Y-23000000D03*
D12*
X-25000000Y0D03*
D14*
X5080000Y-23000000D03*
X-5080000Y-23000000D03*
X-2540000Y-20460000D03*
X22480568Y32465796D03*
X24184406Y34349553D03*
X24364325Y30761959D03*
X26068162Y32645716D03*
X26248081Y29058122D03*
X27951919Y30941878D03*
X28131838Y27354284D03*
X29835675Y29238041D03*
X30015594Y25650447D03*
X31719432Y27534204D03*
D19*
X-32136368Y-9729017D03*
D20*
X-29717802Y-8254894D03*
X-30682198Y-3145106D03*
D19*
X-33471686Y-2653925D03*
D14*
X2540000Y-20460000D03*
D21*
X20280801Y39376307D03*
D11*
X15719199Y41423693D03*
D14*
X0Y-23000000D03*
D22*
X1480000Y25000000D03*
X-6140000Y25000000D03*
X-3600000Y25000000D03*
X-1060000Y25000000D03*
X-8680000Y25000000D03*
D23*
X-4800000Y29050000D03*
D24*
X-30927420Y8023266D03*
D23*
X-4550000Y26950000D03*
X-2400000Y31150000D03*
X-6500000Y18800000D03*
D24*
X-22493701Y-9465299D03*
X-20700000Y4200000D03*
D23*
X-2400000Y29050000D03*
X-2600000Y26950000D03*
D24*
X-3600000Y23200000D03*
X2099750Y23999750D03*
X2125000Y28424000D03*
D23*
X-4550000Y27650000D03*
X-4700000Y28350000D03*
D24*
X-20800000Y9649500D03*
D23*
X-3200000Y26550000D03*
X-2500000Y28350000D03*
D24*
X-22200000Y7000000D03*
D23*
X-2600000Y27624000D03*
D24*
X-2087500Y-11855000D03*
X-18459701Y-3943299D03*
D23*
X-4800000Y31150000D03*
D24*
X-27610389Y-8339611D03*
X-1505853Y18123565D03*
D23*
X-2400000Y31850000D03*
X-4800000Y30450000D03*
D24*
X612500Y-2705000D03*
D23*
X-4800000Y29750000D03*
D24*
X-3187500Y-8320000D03*
D23*
X-2400000Y30450000D03*
X-4800000Y31850000D03*
X-2400000Y29750000D03*
X-4000000Y26550000D03*
D24*
X22400000Y-4000000D03*
X3300000Y1800000D03*
X4500000Y9600000D03*
X-1024500Y10397655D03*
X-4360023Y-3932477D03*
X-21109701Y-3790299D03*
X-4000000Y2000000D03*
X4100000Y18244365D03*
X-32500000Y-500000D03*
X4100000Y26400000D03*
X-29409701Y-4090299D03*
X-25809701Y-9890299D03*
X-800000Y29400000D03*
X-6188000Y28212000D03*
X-32600000Y4720000D03*
X-9900000Y25900000D03*
X-24475250Y-3449500D03*
X-25809701Y-5790299D03*
D23*
X-8000000Y28300000D03*
X-4825498Y18323502D03*
X-6790000Y26710000D03*
X-7300000Y25800000D03*
X-5000000Y20700000D03*
X1100000Y22700000D03*
X-3746300Y19300000D03*
X1100000Y21700000D03*
X-4200000Y20500000D03*
X-2000000Y20600000D03*
X-2596800Y19287234D03*
X1438786Y20304784D03*
X-3000000Y20500000D03*
X13450000Y28030000D03*
X-6424502Y20374498D03*
X14300000Y24570000D03*
X-1200000Y21400000D03*
X-600000Y22570000D03*
X-574502Y23675265D03*
X1100000Y19600000D03*
X1000000Y18300000D03*
D24*
X1800000Y17500000D03*
D23*
X-600000Y19600000D03*
M02*
