G04 #@! TF.GenerationSoftware,KiCad,Pcbnew,7.0.1-3b83917a11~172~ubuntu22.04.1*
G04 #@! TF.CreationDate,2023-11-06T14:25:17+01:00*
G04 #@! TF.ProjectId,io_coupling_MCU_enhanced,696f5f63-6f75-4706-9c69-6e675f4d4355,rev?*
G04 #@! TF.SameCoordinates,Original*
G04 #@! TF.FileFunction,Copper,L3,Inr*
G04 #@! TF.FilePolarity,Positive*
%FSLAX46Y46*%
G04 Gerber Fmt 4.6, Leading zero omitted, Abs format (unit mm)*
G04 Created by KiCad (PCBNEW 7.0.1-3b83917a11~172~ubuntu22.04.1) date 2023-11-06 14:25:17*
%MOMM*%
%LPD*%
G01*
G04 APERTURE LIST*
G04 Aperture macros list*
%AMHorizOval*
0 Thick line with rounded ends*
0 $1 width*
0 $2 $3 position (X,Y) of the first rounded end (center of the circle)*
0 $4 $5 position (X,Y) of the second rounded end (center of the circle)*
0 Add line between two ends*
20,1,$1,$2,$3,$4,$5,0*
0 Add two circle primitives to create the rounded ends*
1,1,$1,$2,$3*
1,1,$1,$4,$5*%
%AMRotRect*
0 Rectangle, with rotation*
0 The origin of the aperture is its center*
0 $1 length*
0 $2 width*
0 $3 Rotation angle, in degrees counterclockwise*
0 Add horizontal line*
21,1,$1,$2,0,0,$3*%
G04 Aperture macros list end*
G04 #@! TA.AperFunction,ComponentPad*
%ADD10RotRect,1.950000X1.950000X188.057000*%
G04 #@! TD*
G04 #@! TA.AperFunction,ComponentPad*
%ADD11C,1.950000*%
G04 #@! TD*
G04 #@! TA.AperFunction,ComponentPad*
%ADD12C,1.800000*%
G04 #@! TD*
G04 #@! TA.AperFunction,ComponentPad*
%ADD13C,2.000000*%
G04 #@! TD*
G04 #@! TA.AperFunction,ComponentPad*
%ADD14RotRect,1.950000X1.950000X204.171000*%
G04 #@! TD*
G04 #@! TA.AperFunction,ComponentPad*
%ADD15RotRect,1.950000X1.950000X171.943000*%
G04 #@! TD*
G04 #@! TA.AperFunction,ComponentPad*
%ADD16HorizOval,1.100000X0.393061X0.074184X-0.393061X-0.074184X0*%
G04 #@! TD*
G04 #@! TA.AperFunction,ComponentPad*
%ADD17C,1.250000*%
G04 #@! TD*
G04 #@! TA.AperFunction,ComponentPad*
%ADD18RotRect,1.950000X1.950000X155.828000*%
G04 #@! TD*
G04 #@! TA.AperFunction,ViaPad*
%ADD19C,0.450000*%
G04 #@! TD*
G04 #@! TA.AperFunction,ViaPad*
%ADD20C,0.800000*%
G04 #@! TD*
G04 #@! TA.AperFunction,Conductor*
%ADD21C,0.250000*%
G04 #@! TD*
G04 #@! TA.AperFunction,Conductor*
%ADD22C,0.200000*%
G04 #@! TD*
G04 APERTURE END LIST*
D10*
X-3724677Y44150395D03*
D11*
X-8675323Y43449605D03*
D12*
X7620000Y-7700000D03*
D13*
X-5080000Y-20460000D03*
D14*
X-15719181Y41423653D03*
D11*
X-20280819Y39376347D03*
D12*
X7620000Y-10240000D03*
D13*
X-24184482Y34349604D03*
X-22480611Y32465877D03*
X-26068208Y32645734D03*
X-24364338Y30762007D03*
X-27951935Y30941863D03*
X-26248065Y29058137D03*
X-29835662Y29237993D03*
X-28131792Y27354266D03*
X-31719389Y27534123D03*
X-30015518Y25650396D03*
X5080000Y-20460000D03*
X0Y-20460000D03*
D12*
X10200000Y-7700000D03*
D13*
X-2540000Y-23000000D03*
D12*
X7620000Y-1270000D03*
X7620000Y1270000D03*
X10160000Y-1270000D03*
X10160000Y1270000D03*
X12700000Y-1270000D03*
X12700000Y1270000D03*
X15240000Y-1270000D03*
X15240000Y1270000D03*
X17780000Y-1270000D03*
X17780000Y1270000D03*
D15*
X8675323Y43449605D03*
D11*
X3724677Y44150395D03*
D13*
X2540000Y-23000000D03*
X5080000Y-23000000D03*
X-5080000Y-23000000D03*
X-2540000Y-20460000D03*
X22480568Y32465796D03*
X24184406Y34349553D03*
X24364325Y30761959D03*
X26068162Y32645716D03*
X26248081Y29058122D03*
X27951919Y30941878D03*
X28131838Y27354284D03*
X29835675Y29238041D03*
X30015594Y25650447D03*
X31719432Y27534204D03*
D16*
X-32136368Y-9729017D03*
D17*
X-29717802Y-8254894D03*
X-30682198Y-3145106D03*
D16*
X-33471686Y-2653925D03*
D13*
X2540000Y-20460000D03*
D18*
X20280801Y39376307D03*
D11*
X15719199Y41423693D03*
D13*
X0Y-23000000D03*
D19*
X-4800000Y29050000D03*
D20*
X-30927420Y8023266D03*
D19*
X-4550000Y26950000D03*
X-2400000Y31150000D03*
X-6500000Y18800000D03*
D20*
X-22493701Y-9465299D03*
X-20700000Y4200000D03*
D19*
X-2400000Y29050000D03*
X-2600000Y26950000D03*
D20*
X-3600000Y23200000D03*
X2099750Y23999750D03*
X2125000Y28424000D03*
D19*
X-4550000Y27650000D03*
X-4700000Y28350000D03*
D20*
X-20800000Y9649500D03*
D19*
X-3200000Y26550000D03*
X-2500000Y28350000D03*
D20*
X-22200000Y7000000D03*
D19*
X-2600000Y27624000D03*
D20*
X-2087500Y-11855000D03*
X-18459701Y-3943299D03*
D19*
X-4800000Y31150000D03*
D20*
X-27610389Y-8339611D03*
X-1505853Y18123565D03*
D19*
X-2400000Y31850000D03*
X-4800000Y30450000D03*
D20*
X612500Y-2705000D03*
D19*
X-4800000Y29750000D03*
D20*
X-3187500Y-8320000D03*
D19*
X-2400000Y30450000D03*
X-4800000Y31850000D03*
X-2400000Y29750000D03*
X-4000000Y26550000D03*
D20*
X22400000Y-4000000D03*
X3300000Y1800000D03*
X4500000Y9600000D03*
X-1024500Y10397655D03*
X-4360023Y-3932477D03*
X-21109701Y-3790299D03*
X-4000000Y2000000D03*
X4100000Y18244365D03*
X-32500000Y-500000D03*
X4100000Y26400000D03*
X-29409701Y-4090299D03*
X-25809701Y-9890299D03*
X-800000Y29400000D03*
X-6188000Y28212000D03*
X-32600000Y4720000D03*
X-9900000Y25900000D03*
X-24475250Y-3449500D03*
X-25809701Y-5790299D03*
D19*
X-8000000Y28300000D03*
X-4825498Y18323502D03*
X-6790000Y26710000D03*
X-7300000Y25800000D03*
X-5000000Y20700000D03*
X1100000Y22700000D03*
X-3746300Y19300000D03*
X1100000Y21700000D03*
X-4200000Y20500000D03*
X-2000000Y20600000D03*
X-2596800Y19287234D03*
X1438786Y20304784D03*
X-3000000Y20500000D03*
X13450000Y28030000D03*
X-6424502Y20374498D03*
X14300000Y24570000D03*
X-1200000Y21400000D03*
X-600000Y22570000D03*
X-574502Y23675265D03*
X1100000Y19600000D03*
X1000000Y18300000D03*
D20*
X1800000Y17500000D03*
D19*
X-600000Y19600000D03*
D21*
X-31719389Y32780611D02*
X-31719389Y27534123D01*
X-9076498Y28300000D02*
X-18576498Y37800000D01*
X-26700000Y37800000D02*
X-31719389Y32780611D01*
X-18576498Y37800000D02*
X-26700000Y37800000D01*
X-8000000Y28300000D02*
X-9076498Y28300000D01*
X-5820000Y20547814D02*
X-10922582Y25650396D01*
X-4825498Y18631894D02*
X-5820000Y19626396D01*
X-4825498Y18323502D02*
X-4825498Y18631894D01*
X-10922582Y25650396D02*
X-30015518Y25650396D01*
X-5820000Y19626396D02*
X-5820000Y20547814D01*
X-6790000Y26710000D02*
X-8486498Y26710000D01*
X-18976498Y37200000D02*
X-26150000Y37200000D01*
X-26150000Y37200000D02*
X-29835662Y33514338D01*
X-8486498Y26710000D02*
X-18976498Y37200000D01*
X-29835662Y33514338D02*
X-29835662Y29237993D01*
X-19300000Y36600000D02*
X-25700000Y36600000D01*
X-8500000Y25800000D02*
X-19300000Y36600000D01*
X-27951935Y34348065D02*
X-27951935Y30941863D01*
X-25700000Y36600000D02*
X-27951935Y34348065D01*
X-7300000Y25800000D02*
X-8500000Y25800000D01*
X-5000000Y19500000D02*
X-4190000Y18690000D01*
X-1386396Y14250000D02*
X3747235Y14250000D01*
X6675000Y17177765D02*
X6675000Y18058704D01*
X6675000Y18058704D02*
X13803796Y25187500D01*
X3747235Y14250000D02*
X6675000Y17177765D01*
X13803796Y25187500D02*
X29552622Y25187500D01*
X-4190000Y17053604D02*
X-1386396Y14250000D01*
X-5000000Y20700000D02*
X-5000000Y19500000D01*
X29552622Y25187500D02*
X30015518Y25650396D01*
X-4190000Y18690000D02*
X-4190000Y17053604D01*
X3150000Y22700000D02*
X17850000Y37400000D01*
X17850000Y37400000D02*
X25500000Y37400000D01*
X1100000Y22700000D02*
X3150000Y22700000D01*
X25500000Y37400000D02*
X31719389Y31180611D01*
X31719389Y31180611D02*
X31719389Y27534123D01*
X6225000Y18245100D02*
X15334166Y27354266D01*
X-3746300Y19300000D02*
X-3590000Y19143700D01*
X3660839Y14800000D02*
X6225000Y17364161D01*
X-1300000Y14800000D02*
X3660839Y14800000D01*
X15334166Y27354266D02*
X28131792Y27354266D01*
X-3590000Y19143700D02*
X-3590000Y17090000D01*
X-3590000Y17090000D02*
X-1300000Y14800000D01*
X6225000Y17364161D02*
X6225000Y18245100D01*
X3050000Y21700000D02*
X18250000Y36900000D01*
X25363604Y36900000D02*
X29835662Y32427942D01*
X1100000Y21700000D02*
X3050000Y21700000D01*
X29835662Y32427942D02*
X29835662Y29237993D01*
X18250000Y36900000D02*
X25363604Y36900000D01*
D22*
X-3121800Y19641800D02*
X-3121800Y17451800D01*
X-4200000Y20500000D02*
X-3980000Y20500000D01*
X3500000Y15340000D02*
X5800000Y17640000D01*
X5800000Y17640000D02*
X5800000Y18580000D01*
X-3121800Y17451800D02*
X-1010000Y15340000D01*
X-3980000Y20500000D02*
X-3121800Y19641800D01*
X-1010000Y15340000D02*
X3500000Y15340000D01*
X5800000Y18580000D02*
X16278122Y29058122D01*
X16278122Y29058122D02*
X26248081Y29058122D01*
D21*
X27951935Y33548065D02*
X27951935Y30941863D01*
X18570000Y36400000D02*
X25100000Y36400000D01*
X25100000Y36400000D02*
X27951935Y33548065D01*
X-700000Y20600000D02*
X-426498Y20873502D01*
X-2000000Y20600000D02*
X-700000Y20600000D01*
X3043502Y20873502D02*
X18570000Y36400000D01*
X-426498Y20873502D02*
X3043502Y20873502D01*
X3323960Y15765000D02*
X5375000Y17816040D01*
X-2596800Y19287234D02*
X-2400000Y19090434D01*
X5375000Y18795000D02*
X17341959Y30761959D01*
X-172593Y15765000D02*
X3323960Y15765000D01*
X-2400000Y17992407D02*
X-172593Y15765000D01*
X5375000Y17816040D02*
X5375000Y18795000D01*
X-2400000Y19090434D02*
X-2400000Y17992407D01*
X17341959Y30761959D02*
X24364325Y30761959D01*
X18706396Y35900000D02*
X24900000Y35900000D01*
X1438786Y20304784D02*
X3111180Y20304784D01*
X3111180Y20304784D02*
X18706396Y35900000D01*
X26068208Y34731792D02*
X26068208Y32645734D01*
X24900000Y35900000D02*
X26068208Y34731792D01*
X625000Y16775000D02*
X-780853Y18180853D01*
X3655940Y16775000D02*
X625000Y16775000D01*
X-780853Y18680853D02*
X-2150000Y20050000D01*
X-780853Y18180853D02*
X-780853Y18680853D01*
X13450000Y28030000D02*
X4925000Y19505000D01*
X4925000Y19505000D02*
X4925000Y18044060D01*
X-2150000Y20050000D02*
X-2550000Y20050000D01*
X-2550000Y20050000D02*
X-3000000Y20500000D01*
X4925000Y18044060D02*
X3655940Y16775000D01*
X-6424502Y19594502D02*
X-6424502Y20374498D01*
X-5770000Y18940000D02*
X-6424502Y19594502D01*
X-5770000Y17833604D02*
X-5770000Y18940000D01*
X14300000Y24570000D02*
X14120000Y24570000D01*
X3933631Y13800000D02*
X-1736396Y13800000D01*
X14120000Y24570000D02*
X7125000Y17575000D01*
X-1736396Y13800000D02*
X-5770000Y17833604D01*
X7125000Y17575000D02*
X7125000Y16991369D01*
X7125000Y16991369D02*
X3933631Y13800000D01*
X-1900000Y22100000D02*
X-1900000Y26700000D01*
X-1200000Y21400000D02*
X-1900000Y22100000D01*
X-1900000Y26700000D02*
X3724677Y32324677D01*
X3724677Y32324677D02*
X3724677Y44150395D01*
X-600000Y22570000D02*
X-600000Y22600000D01*
X-600000Y22600000D02*
X-1300000Y23300000D01*
X8675323Y36375323D02*
X8675323Y43449605D01*
X-1300000Y23300000D02*
X-1300000Y26400000D01*
X-1300000Y26400000D02*
X8675323Y36375323D01*
X-574502Y23725498D02*
X15719199Y40019199D01*
X15719199Y40019199D02*
X15719199Y41423693D01*
X-574502Y23675265D02*
X-574502Y23725498D01*
X17792396Y34349604D02*
X24184482Y34349604D01*
X3042792Y19600000D02*
X17792396Y34349604D01*
X1100000Y19600000D02*
X3042792Y19600000D01*
X1000000Y18300000D02*
X2700000Y18300000D01*
X16865877Y32465877D02*
X22480611Y32465877D01*
X2700000Y18300000D02*
X16865877Y32465877D01*
M02*
